G75*
%MOIN*%
%OFA0B0*%
%FSLAX25Y25*%
%IPPOS*%
%LPD*%
%AMOC8*
5,1,8,0,0,1.08239X$1,22.5*
%
%ADD10C,0.01100*%
%ADD11C,0.00500*%
%ADD12C,0.00800*%
%ADD13R,0.01500X0.04000*%
%ADD14C,0.00700*%
D10*
X0019828Y0122861D02*
X0019826Y0122930D01*
X0019821Y0122999D01*
X0019812Y0123068D01*
X0019799Y0123136D01*
X0019783Y0123203D01*
X0019764Y0123269D01*
X0019741Y0123334D01*
X0019715Y0123398D01*
X0019685Y0123461D01*
X0019653Y0123522D01*
X0019617Y0123581D01*
X0019578Y0123638D01*
X0019536Y0123693D01*
X0019491Y0123746D01*
X0019444Y0123797D01*
X0019394Y0123844D01*
X0019342Y0123890D01*
X0019288Y0123932D01*
X0019231Y0123972D01*
X0019172Y0124009D01*
X0019172Y0124008D02*
X0017369Y0124992D01*
X0018025Y0127450D02*
X0018124Y0127448D01*
X0018223Y0127442D01*
X0018321Y0127432D01*
X0018419Y0127418D01*
X0018516Y0127400D01*
X0018612Y0127379D01*
X0018708Y0127353D01*
X0018802Y0127324D01*
X0018895Y0127291D01*
X0018987Y0127254D01*
X0019077Y0127213D01*
X0019166Y0127169D01*
X0019252Y0127122D01*
X0019337Y0127071D01*
X0019420Y0127016D01*
X0019500Y0126958D01*
X0017369Y0124991D02*
X0017310Y0125028D01*
X0017253Y0125068D01*
X0017199Y0125110D01*
X0017147Y0125155D01*
X0017097Y0125203D01*
X0017050Y0125254D01*
X0017005Y0125307D01*
X0016963Y0125362D01*
X0016924Y0125419D01*
X0016889Y0125478D01*
X0016856Y0125539D01*
X0016826Y0125602D01*
X0016800Y0125666D01*
X0016777Y0125731D01*
X0016758Y0125797D01*
X0016742Y0125864D01*
X0016729Y0125932D01*
X0016720Y0126001D01*
X0016715Y0126070D01*
X0016713Y0126139D01*
X0016714Y0126139D02*
X0016716Y0126210D01*
X0016722Y0126281D01*
X0016731Y0126351D01*
X0016745Y0126421D01*
X0016762Y0126490D01*
X0016783Y0126558D01*
X0016807Y0126624D01*
X0016835Y0126689D01*
X0016867Y0126753D01*
X0016902Y0126815D01*
X0016940Y0126875D01*
X0016981Y0126932D01*
X0017026Y0126988D01*
X0017073Y0127041D01*
X0017123Y0127091D01*
X0017176Y0127138D01*
X0017232Y0127183D01*
X0017289Y0127224D01*
X0017349Y0127262D01*
X0017411Y0127297D01*
X0017475Y0127329D01*
X0017540Y0127357D01*
X0017606Y0127381D01*
X0017674Y0127402D01*
X0017743Y0127419D01*
X0017813Y0127433D01*
X0017883Y0127442D01*
X0017954Y0127448D01*
X0018025Y0127450D01*
X0022499Y0126139D02*
X0024138Y0127450D01*
X0024138Y0121550D01*
X0022499Y0121550D02*
X0025777Y0121550D01*
X0019828Y0122861D02*
X0019826Y0122790D01*
X0019820Y0122719D01*
X0019811Y0122649D01*
X0019797Y0122579D01*
X0019780Y0122510D01*
X0019759Y0122442D01*
X0019735Y0122376D01*
X0019707Y0122311D01*
X0019675Y0122247D01*
X0019640Y0122185D01*
X0019602Y0122125D01*
X0019561Y0122068D01*
X0019516Y0122012D01*
X0019469Y0121959D01*
X0019419Y0121909D01*
X0019366Y0121862D01*
X0019310Y0121817D01*
X0019253Y0121776D01*
X0019193Y0121738D01*
X0019131Y0121703D01*
X0019067Y0121671D01*
X0019002Y0121643D01*
X0018936Y0121619D01*
X0018868Y0121598D01*
X0018799Y0121581D01*
X0018729Y0121567D01*
X0018659Y0121558D01*
X0018588Y0121552D01*
X0018517Y0121550D01*
X0018413Y0121552D01*
X0018309Y0121558D01*
X0018205Y0121568D01*
X0018102Y0121581D01*
X0017999Y0121599D01*
X0017897Y0121620D01*
X0017796Y0121645D01*
X0017696Y0121674D01*
X0017597Y0121707D01*
X0017500Y0121744D01*
X0017404Y0121784D01*
X0017309Y0121827D01*
X0017216Y0121874D01*
X0017125Y0121925D01*
X0017036Y0121979D01*
X0016949Y0122036D01*
X0016865Y0122097D01*
X0016782Y0122161D01*
X0016702Y0122227D01*
X0016625Y0122297D01*
X0016550Y0122370D01*
X0048960Y0124992D02*
X0050763Y0124008D01*
X0050107Y0121550D02*
X0050003Y0121552D01*
X0049899Y0121558D01*
X0049795Y0121568D01*
X0049692Y0121581D01*
X0049589Y0121599D01*
X0049487Y0121620D01*
X0049386Y0121645D01*
X0049286Y0121674D01*
X0049187Y0121707D01*
X0049090Y0121744D01*
X0048994Y0121784D01*
X0048899Y0121827D01*
X0048806Y0121874D01*
X0048715Y0121925D01*
X0048626Y0121979D01*
X0048539Y0122036D01*
X0048455Y0122097D01*
X0048372Y0122161D01*
X0048292Y0122227D01*
X0048215Y0122297D01*
X0048140Y0122370D01*
X0050763Y0124009D02*
X0050822Y0123972D01*
X0050879Y0123932D01*
X0050933Y0123890D01*
X0050985Y0123844D01*
X0051035Y0123797D01*
X0051082Y0123746D01*
X0051127Y0123693D01*
X0051169Y0123638D01*
X0051208Y0123581D01*
X0051244Y0123522D01*
X0051276Y0123461D01*
X0051306Y0123398D01*
X0051332Y0123334D01*
X0051355Y0123269D01*
X0051374Y0123203D01*
X0051390Y0123136D01*
X0051403Y0123068D01*
X0051412Y0122999D01*
X0051417Y0122930D01*
X0051419Y0122861D01*
X0051418Y0122861D02*
X0051416Y0122790D01*
X0051410Y0122719D01*
X0051401Y0122649D01*
X0051387Y0122579D01*
X0051370Y0122510D01*
X0051349Y0122442D01*
X0051325Y0122376D01*
X0051297Y0122311D01*
X0051265Y0122247D01*
X0051230Y0122185D01*
X0051192Y0122125D01*
X0051151Y0122068D01*
X0051106Y0122012D01*
X0051059Y0121959D01*
X0051009Y0121909D01*
X0050956Y0121862D01*
X0050900Y0121817D01*
X0050843Y0121776D01*
X0050783Y0121738D01*
X0050721Y0121703D01*
X0050657Y0121671D01*
X0050592Y0121643D01*
X0050526Y0121619D01*
X0050458Y0121598D01*
X0050389Y0121581D01*
X0050319Y0121567D01*
X0050249Y0121558D01*
X0050178Y0121552D01*
X0050107Y0121550D01*
X0051091Y0126958D02*
X0051011Y0127016D01*
X0050928Y0127071D01*
X0050843Y0127122D01*
X0050757Y0127169D01*
X0050668Y0127213D01*
X0050578Y0127254D01*
X0050486Y0127291D01*
X0050393Y0127324D01*
X0050299Y0127353D01*
X0050203Y0127379D01*
X0050107Y0127400D01*
X0050010Y0127418D01*
X0049912Y0127432D01*
X0049814Y0127442D01*
X0049715Y0127448D01*
X0049616Y0127450D01*
X0049545Y0127448D01*
X0049474Y0127442D01*
X0049404Y0127433D01*
X0049334Y0127419D01*
X0049265Y0127402D01*
X0049197Y0127381D01*
X0049131Y0127357D01*
X0049066Y0127329D01*
X0049002Y0127297D01*
X0048940Y0127262D01*
X0048880Y0127224D01*
X0048823Y0127183D01*
X0048767Y0127138D01*
X0048714Y0127091D01*
X0048664Y0127041D01*
X0048617Y0126988D01*
X0048572Y0126932D01*
X0048531Y0126875D01*
X0048493Y0126815D01*
X0048458Y0126753D01*
X0048426Y0126689D01*
X0048398Y0126624D01*
X0048374Y0126558D01*
X0048353Y0126490D01*
X0048336Y0126421D01*
X0048322Y0126351D01*
X0048313Y0126281D01*
X0048307Y0126210D01*
X0048305Y0126139D01*
X0048304Y0126139D02*
X0048306Y0126070D01*
X0048311Y0126001D01*
X0048320Y0125932D01*
X0048333Y0125864D01*
X0048349Y0125797D01*
X0048368Y0125731D01*
X0048391Y0125666D01*
X0048417Y0125602D01*
X0048447Y0125539D01*
X0048480Y0125478D01*
X0048515Y0125419D01*
X0048554Y0125362D01*
X0048596Y0125307D01*
X0048641Y0125254D01*
X0048688Y0125203D01*
X0048738Y0125155D01*
X0048790Y0125110D01*
X0048844Y0125068D01*
X0048901Y0125028D01*
X0048960Y0124991D01*
X0054089Y0121550D02*
X0057367Y0121550D01*
X0054089Y0121550D02*
X0056876Y0124828D01*
X0055892Y0127450D02*
X0055807Y0127448D01*
X0055722Y0127442D01*
X0055637Y0127433D01*
X0055553Y0127419D01*
X0055470Y0127402D01*
X0055387Y0127382D01*
X0055306Y0127357D01*
X0055226Y0127329D01*
X0055147Y0127297D01*
X0055069Y0127262D01*
X0054993Y0127223D01*
X0054919Y0127181D01*
X0054847Y0127136D01*
X0054777Y0127088D01*
X0054710Y0127036D01*
X0054644Y0126981D01*
X0054582Y0126924D01*
X0054521Y0126864D01*
X0054464Y0126801D01*
X0054410Y0126735D01*
X0054358Y0126668D01*
X0054310Y0126598D01*
X0054264Y0126526D01*
X0054223Y0126452D01*
X0054184Y0126376D01*
X0054149Y0126298D01*
X0054117Y0126219D01*
X0054089Y0126139D01*
X0056875Y0124828D02*
X0056929Y0124881D01*
X0056980Y0124937D01*
X0057028Y0124995D01*
X0057073Y0125056D01*
X0057115Y0125118D01*
X0057154Y0125183D01*
X0057191Y0125249D01*
X0057224Y0125317D01*
X0057253Y0125386D01*
X0057280Y0125457D01*
X0057303Y0125528D01*
X0057322Y0125601D01*
X0057338Y0125675D01*
X0057351Y0125749D01*
X0057360Y0125824D01*
X0057365Y0125900D01*
X0057367Y0125975D01*
X0057365Y0126050D01*
X0057359Y0126124D01*
X0057350Y0126198D01*
X0057337Y0126272D01*
X0057320Y0126345D01*
X0057299Y0126417D01*
X0057275Y0126487D01*
X0057247Y0126557D01*
X0057216Y0126625D01*
X0057182Y0126691D01*
X0057144Y0126755D01*
X0057103Y0126818D01*
X0057058Y0126878D01*
X0057011Y0126936D01*
X0056961Y0126991D01*
X0056908Y0127044D01*
X0056853Y0127094D01*
X0056795Y0127141D01*
X0056735Y0127186D01*
X0056672Y0127227D01*
X0056608Y0127265D01*
X0056542Y0127299D01*
X0056474Y0127330D01*
X0056404Y0127358D01*
X0056334Y0127382D01*
X0056262Y0127403D01*
X0056189Y0127420D01*
X0056115Y0127433D01*
X0056041Y0127442D01*
X0055967Y0127448D01*
X0055892Y0127450D01*
X0080551Y0124992D02*
X0082353Y0124008D01*
X0081698Y0121550D02*
X0081594Y0121552D01*
X0081490Y0121558D01*
X0081386Y0121568D01*
X0081283Y0121581D01*
X0081180Y0121599D01*
X0081078Y0121620D01*
X0080977Y0121645D01*
X0080877Y0121674D01*
X0080778Y0121707D01*
X0080681Y0121744D01*
X0080585Y0121784D01*
X0080490Y0121827D01*
X0080397Y0121874D01*
X0080306Y0121925D01*
X0080217Y0121979D01*
X0080130Y0122036D01*
X0080046Y0122097D01*
X0079963Y0122161D01*
X0079883Y0122227D01*
X0079806Y0122297D01*
X0079731Y0122370D01*
X0082353Y0124009D02*
X0082412Y0123972D01*
X0082469Y0123932D01*
X0082523Y0123890D01*
X0082575Y0123844D01*
X0082625Y0123797D01*
X0082672Y0123746D01*
X0082717Y0123693D01*
X0082759Y0123638D01*
X0082798Y0123581D01*
X0082834Y0123522D01*
X0082866Y0123461D01*
X0082896Y0123398D01*
X0082922Y0123334D01*
X0082945Y0123269D01*
X0082964Y0123203D01*
X0082980Y0123136D01*
X0082993Y0123068D01*
X0083002Y0122999D01*
X0083007Y0122930D01*
X0083009Y0122861D01*
X0083007Y0122790D01*
X0083001Y0122719D01*
X0082992Y0122649D01*
X0082978Y0122579D01*
X0082961Y0122510D01*
X0082940Y0122442D01*
X0082916Y0122376D01*
X0082888Y0122311D01*
X0082856Y0122247D01*
X0082821Y0122185D01*
X0082783Y0122125D01*
X0082742Y0122068D01*
X0082697Y0122012D01*
X0082650Y0121959D01*
X0082600Y0121909D01*
X0082547Y0121862D01*
X0082491Y0121817D01*
X0082434Y0121776D01*
X0082374Y0121738D01*
X0082312Y0121703D01*
X0082248Y0121671D01*
X0082183Y0121643D01*
X0082117Y0121619D01*
X0082049Y0121598D01*
X0081980Y0121581D01*
X0081910Y0121567D01*
X0081840Y0121558D01*
X0081769Y0121552D01*
X0081698Y0121550D01*
X0082681Y0126958D02*
X0082601Y0127016D01*
X0082518Y0127071D01*
X0082433Y0127122D01*
X0082347Y0127169D01*
X0082258Y0127213D01*
X0082168Y0127254D01*
X0082076Y0127291D01*
X0081983Y0127324D01*
X0081889Y0127353D01*
X0081793Y0127379D01*
X0081697Y0127400D01*
X0081600Y0127418D01*
X0081502Y0127432D01*
X0081404Y0127442D01*
X0081305Y0127448D01*
X0081206Y0127450D01*
X0081135Y0127448D01*
X0081064Y0127442D01*
X0080994Y0127433D01*
X0080924Y0127419D01*
X0080855Y0127402D01*
X0080787Y0127381D01*
X0080721Y0127357D01*
X0080656Y0127329D01*
X0080592Y0127297D01*
X0080530Y0127262D01*
X0080470Y0127224D01*
X0080413Y0127183D01*
X0080357Y0127138D01*
X0080304Y0127091D01*
X0080254Y0127041D01*
X0080207Y0126988D01*
X0080162Y0126932D01*
X0080121Y0126875D01*
X0080083Y0126815D01*
X0080048Y0126753D01*
X0080016Y0126689D01*
X0079988Y0126624D01*
X0079964Y0126558D01*
X0079943Y0126490D01*
X0079926Y0126421D01*
X0079912Y0126351D01*
X0079903Y0126281D01*
X0079897Y0126210D01*
X0079895Y0126139D01*
X0079897Y0126070D01*
X0079902Y0126001D01*
X0079911Y0125932D01*
X0079924Y0125864D01*
X0079940Y0125797D01*
X0079959Y0125731D01*
X0079982Y0125666D01*
X0080008Y0125602D01*
X0080038Y0125539D01*
X0080071Y0125478D01*
X0080106Y0125419D01*
X0080145Y0125362D01*
X0080187Y0125307D01*
X0080232Y0125254D01*
X0080279Y0125203D01*
X0080329Y0125155D01*
X0080381Y0125110D01*
X0080435Y0125068D01*
X0080492Y0125028D01*
X0080551Y0124991D01*
X0085680Y0127450D02*
X0087647Y0127450D01*
X0087718Y0127448D01*
X0087789Y0127442D01*
X0087859Y0127433D01*
X0087929Y0127419D01*
X0087998Y0127402D01*
X0088066Y0127381D01*
X0088132Y0127357D01*
X0088197Y0127329D01*
X0088261Y0127297D01*
X0088323Y0127262D01*
X0088383Y0127224D01*
X0088440Y0127183D01*
X0088496Y0127138D01*
X0088549Y0127091D01*
X0088599Y0127041D01*
X0088646Y0126988D01*
X0088691Y0126932D01*
X0088732Y0126875D01*
X0088770Y0126815D01*
X0088805Y0126753D01*
X0088837Y0126689D01*
X0088865Y0126624D01*
X0088889Y0126558D01*
X0088910Y0126490D01*
X0088927Y0126421D01*
X0088941Y0126351D01*
X0088950Y0126281D01*
X0088956Y0126210D01*
X0088958Y0126139D01*
X0088956Y0126068D01*
X0088950Y0125997D01*
X0088941Y0125927D01*
X0088927Y0125857D01*
X0088910Y0125788D01*
X0088889Y0125720D01*
X0088865Y0125654D01*
X0088837Y0125589D01*
X0088805Y0125525D01*
X0088770Y0125463D01*
X0088732Y0125403D01*
X0088691Y0125346D01*
X0088646Y0125290D01*
X0088599Y0125237D01*
X0088549Y0125187D01*
X0088496Y0125140D01*
X0088440Y0125095D01*
X0088383Y0125054D01*
X0088323Y0125016D01*
X0088261Y0124981D01*
X0088197Y0124949D01*
X0088132Y0124921D01*
X0088066Y0124897D01*
X0087998Y0124876D01*
X0087929Y0124859D01*
X0087859Y0124845D01*
X0087789Y0124836D01*
X0087718Y0124830D01*
X0087647Y0124828D01*
X0086336Y0124828D01*
X0087319Y0124828D02*
X0087398Y0124826D01*
X0087477Y0124820D01*
X0087556Y0124811D01*
X0087634Y0124797D01*
X0087711Y0124780D01*
X0087788Y0124760D01*
X0087863Y0124735D01*
X0087937Y0124707D01*
X0088010Y0124675D01*
X0088081Y0124640D01*
X0088150Y0124602D01*
X0088217Y0124560D01*
X0088282Y0124515D01*
X0088345Y0124467D01*
X0088406Y0124416D01*
X0088464Y0124362D01*
X0088519Y0124305D01*
X0088572Y0124246D01*
X0088621Y0124184D01*
X0088668Y0124120D01*
X0088711Y0124054D01*
X0088751Y0123986D01*
X0088788Y0123915D01*
X0088822Y0123844D01*
X0088851Y0123770D01*
X0088878Y0123695D01*
X0088900Y0123620D01*
X0088919Y0123543D01*
X0088935Y0123465D01*
X0088946Y0123387D01*
X0088954Y0123308D01*
X0088958Y0123229D01*
X0088958Y0123149D01*
X0088954Y0123070D01*
X0088946Y0122991D01*
X0088935Y0122913D01*
X0088919Y0122835D01*
X0088900Y0122758D01*
X0088878Y0122683D01*
X0088851Y0122608D01*
X0088822Y0122534D01*
X0088788Y0122463D01*
X0088751Y0122392D01*
X0088711Y0122324D01*
X0088668Y0122258D01*
X0088621Y0122194D01*
X0088572Y0122132D01*
X0088519Y0122073D01*
X0088464Y0122016D01*
X0088406Y0121962D01*
X0088345Y0121911D01*
X0088282Y0121863D01*
X0088217Y0121818D01*
X0088150Y0121776D01*
X0088081Y0121738D01*
X0088010Y0121703D01*
X0087937Y0121671D01*
X0087863Y0121643D01*
X0087788Y0121618D01*
X0087711Y0121598D01*
X0087634Y0121581D01*
X0087556Y0121567D01*
X0087477Y0121558D01*
X0087398Y0121552D01*
X0087319Y0121550D01*
X0085680Y0121550D01*
X0108859Y0124992D02*
X0110662Y0124008D01*
X0110006Y0121550D02*
X0109902Y0121552D01*
X0109798Y0121558D01*
X0109694Y0121568D01*
X0109591Y0121581D01*
X0109488Y0121599D01*
X0109386Y0121620D01*
X0109285Y0121645D01*
X0109185Y0121674D01*
X0109086Y0121707D01*
X0108989Y0121744D01*
X0108893Y0121784D01*
X0108798Y0121827D01*
X0108705Y0121874D01*
X0108614Y0121925D01*
X0108525Y0121979D01*
X0108438Y0122036D01*
X0108354Y0122097D01*
X0108271Y0122161D01*
X0108191Y0122227D01*
X0108114Y0122297D01*
X0108039Y0122370D01*
X0110662Y0124009D02*
X0110721Y0123972D01*
X0110778Y0123932D01*
X0110832Y0123890D01*
X0110884Y0123844D01*
X0110934Y0123797D01*
X0110981Y0123746D01*
X0111026Y0123693D01*
X0111068Y0123638D01*
X0111107Y0123581D01*
X0111143Y0123522D01*
X0111175Y0123461D01*
X0111205Y0123398D01*
X0111231Y0123334D01*
X0111254Y0123269D01*
X0111273Y0123203D01*
X0111289Y0123136D01*
X0111302Y0123068D01*
X0111311Y0122999D01*
X0111316Y0122930D01*
X0111318Y0122861D01*
X0111317Y0122861D02*
X0111315Y0122790D01*
X0111309Y0122719D01*
X0111300Y0122649D01*
X0111286Y0122579D01*
X0111269Y0122510D01*
X0111248Y0122442D01*
X0111224Y0122376D01*
X0111196Y0122311D01*
X0111164Y0122247D01*
X0111129Y0122185D01*
X0111091Y0122125D01*
X0111050Y0122068D01*
X0111005Y0122012D01*
X0110958Y0121959D01*
X0110908Y0121909D01*
X0110855Y0121862D01*
X0110799Y0121817D01*
X0110742Y0121776D01*
X0110682Y0121738D01*
X0110620Y0121703D01*
X0110556Y0121671D01*
X0110491Y0121643D01*
X0110425Y0121619D01*
X0110357Y0121598D01*
X0110288Y0121581D01*
X0110218Y0121567D01*
X0110148Y0121558D01*
X0110077Y0121552D01*
X0110006Y0121550D01*
X0110990Y0126958D02*
X0110910Y0127016D01*
X0110827Y0127071D01*
X0110742Y0127122D01*
X0110656Y0127169D01*
X0110567Y0127213D01*
X0110477Y0127254D01*
X0110385Y0127291D01*
X0110292Y0127324D01*
X0110198Y0127353D01*
X0110102Y0127379D01*
X0110006Y0127400D01*
X0109909Y0127418D01*
X0109811Y0127432D01*
X0109713Y0127442D01*
X0109614Y0127448D01*
X0109515Y0127450D01*
X0109444Y0127448D01*
X0109373Y0127442D01*
X0109303Y0127433D01*
X0109233Y0127419D01*
X0109164Y0127402D01*
X0109096Y0127381D01*
X0109030Y0127357D01*
X0108965Y0127329D01*
X0108901Y0127297D01*
X0108839Y0127262D01*
X0108779Y0127224D01*
X0108722Y0127183D01*
X0108666Y0127138D01*
X0108613Y0127091D01*
X0108563Y0127041D01*
X0108516Y0126988D01*
X0108471Y0126932D01*
X0108430Y0126875D01*
X0108392Y0126815D01*
X0108357Y0126753D01*
X0108325Y0126689D01*
X0108297Y0126624D01*
X0108273Y0126558D01*
X0108252Y0126490D01*
X0108235Y0126421D01*
X0108221Y0126351D01*
X0108212Y0126281D01*
X0108206Y0126210D01*
X0108204Y0126139D01*
X0108203Y0126139D02*
X0108205Y0126070D01*
X0108210Y0126001D01*
X0108219Y0125932D01*
X0108232Y0125864D01*
X0108248Y0125797D01*
X0108267Y0125731D01*
X0108290Y0125666D01*
X0108316Y0125602D01*
X0108346Y0125539D01*
X0108379Y0125478D01*
X0108414Y0125419D01*
X0108453Y0125362D01*
X0108495Y0125307D01*
X0108540Y0125254D01*
X0108587Y0125203D01*
X0108637Y0125155D01*
X0108689Y0125110D01*
X0108743Y0125068D01*
X0108800Y0125028D01*
X0108859Y0124991D01*
X0113989Y0122861D02*
X0115300Y0127450D01*
X0116283Y0124172D02*
X0116283Y0121550D01*
X0117266Y0122861D02*
X0113989Y0122861D01*
X0137168Y0124992D02*
X0138970Y0124008D01*
X0138315Y0121550D02*
X0138211Y0121552D01*
X0138107Y0121558D01*
X0138003Y0121568D01*
X0137900Y0121581D01*
X0137797Y0121599D01*
X0137695Y0121620D01*
X0137594Y0121645D01*
X0137494Y0121674D01*
X0137395Y0121707D01*
X0137298Y0121744D01*
X0137202Y0121784D01*
X0137107Y0121827D01*
X0137014Y0121874D01*
X0136923Y0121925D01*
X0136834Y0121979D01*
X0136747Y0122036D01*
X0136663Y0122097D01*
X0136580Y0122161D01*
X0136500Y0122227D01*
X0136423Y0122297D01*
X0136348Y0122370D01*
X0138970Y0124009D02*
X0139029Y0123972D01*
X0139086Y0123932D01*
X0139140Y0123890D01*
X0139192Y0123844D01*
X0139242Y0123797D01*
X0139289Y0123746D01*
X0139334Y0123693D01*
X0139376Y0123638D01*
X0139415Y0123581D01*
X0139451Y0123522D01*
X0139483Y0123461D01*
X0139513Y0123398D01*
X0139539Y0123334D01*
X0139562Y0123269D01*
X0139581Y0123203D01*
X0139597Y0123136D01*
X0139610Y0123068D01*
X0139619Y0122999D01*
X0139624Y0122930D01*
X0139626Y0122861D01*
X0139624Y0122790D01*
X0139618Y0122719D01*
X0139609Y0122649D01*
X0139595Y0122579D01*
X0139578Y0122510D01*
X0139557Y0122442D01*
X0139533Y0122376D01*
X0139505Y0122311D01*
X0139473Y0122247D01*
X0139438Y0122185D01*
X0139400Y0122125D01*
X0139359Y0122068D01*
X0139314Y0122012D01*
X0139267Y0121959D01*
X0139217Y0121909D01*
X0139164Y0121862D01*
X0139108Y0121817D01*
X0139051Y0121776D01*
X0138991Y0121738D01*
X0138929Y0121703D01*
X0138865Y0121671D01*
X0138800Y0121643D01*
X0138734Y0121619D01*
X0138666Y0121598D01*
X0138597Y0121581D01*
X0138527Y0121567D01*
X0138457Y0121558D01*
X0138386Y0121552D01*
X0138315Y0121550D01*
X0139298Y0126958D02*
X0139218Y0127016D01*
X0139135Y0127071D01*
X0139050Y0127122D01*
X0138964Y0127169D01*
X0138875Y0127213D01*
X0138785Y0127254D01*
X0138693Y0127291D01*
X0138600Y0127324D01*
X0138506Y0127353D01*
X0138410Y0127379D01*
X0138314Y0127400D01*
X0138217Y0127418D01*
X0138119Y0127432D01*
X0138021Y0127442D01*
X0137922Y0127448D01*
X0137823Y0127450D01*
X0137752Y0127448D01*
X0137681Y0127442D01*
X0137611Y0127433D01*
X0137541Y0127419D01*
X0137472Y0127402D01*
X0137404Y0127381D01*
X0137338Y0127357D01*
X0137273Y0127329D01*
X0137209Y0127297D01*
X0137147Y0127262D01*
X0137087Y0127224D01*
X0137030Y0127183D01*
X0136974Y0127138D01*
X0136921Y0127091D01*
X0136871Y0127041D01*
X0136824Y0126988D01*
X0136779Y0126932D01*
X0136738Y0126875D01*
X0136700Y0126815D01*
X0136665Y0126753D01*
X0136633Y0126689D01*
X0136605Y0126624D01*
X0136581Y0126558D01*
X0136560Y0126490D01*
X0136543Y0126421D01*
X0136529Y0126351D01*
X0136520Y0126281D01*
X0136514Y0126210D01*
X0136512Y0126139D01*
X0136514Y0126070D01*
X0136519Y0126001D01*
X0136528Y0125932D01*
X0136541Y0125864D01*
X0136557Y0125797D01*
X0136576Y0125731D01*
X0136599Y0125666D01*
X0136625Y0125602D01*
X0136655Y0125539D01*
X0136688Y0125478D01*
X0136723Y0125419D01*
X0136762Y0125362D01*
X0136804Y0125307D01*
X0136849Y0125254D01*
X0136896Y0125203D01*
X0136946Y0125155D01*
X0136998Y0125110D01*
X0137052Y0125068D01*
X0137109Y0125028D01*
X0137168Y0124991D01*
X0142297Y0124828D02*
X0142297Y0127450D01*
X0145575Y0127450D01*
X0144264Y0124828D02*
X0142297Y0124828D01*
X0144264Y0124828D02*
X0144335Y0124826D01*
X0144406Y0124820D01*
X0144476Y0124811D01*
X0144546Y0124797D01*
X0144615Y0124780D01*
X0144683Y0124759D01*
X0144749Y0124735D01*
X0144814Y0124707D01*
X0144878Y0124675D01*
X0144940Y0124640D01*
X0145000Y0124602D01*
X0145057Y0124561D01*
X0145113Y0124516D01*
X0145166Y0124469D01*
X0145216Y0124419D01*
X0145263Y0124366D01*
X0145308Y0124310D01*
X0145349Y0124253D01*
X0145387Y0124193D01*
X0145422Y0124131D01*
X0145454Y0124067D01*
X0145482Y0124002D01*
X0145506Y0123936D01*
X0145527Y0123868D01*
X0145544Y0123799D01*
X0145558Y0123729D01*
X0145567Y0123659D01*
X0145573Y0123588D01*
X0145575Y0123517D01*
X0145575Y0122861D01*
X0145573Y0122790D01*
X0145567Y0122719D01*
X0145558Y0122649D01*
X0145544Y0122579D01*
X0145527Y0122510D01*
X0145506Y0122442D01*
X0145482Y0122376D01*
X0145454Y0122311D01*
X0145422Y0122247D01*
X0145387Y0122185D01*
X0145349Y0122125D01*
X0145308Y0122068D01*
X0145263Y0122012D01*
X0145216Y0121959D01*
X0145166Y0121909D01*
X0145113Y0121862D01*
X0145057Y0121817D01*
X0145000Y0121776D01*
X0144940Y0121738D01*
X0144878Y0121703D01*
X0144814Y0121671D01*
X0144749Y0121643D01*
X0144683Y0121619D01*
X0144615Y0121598D01*
X0144546Y0121581D01*
X0144476Y0121567D01*
X0144406Y0121558D01*
X0144335Y0121552D01*
X0144264Y0121550D01*
X0142297Y0121550D01*
X0165476Y0124992D02*
X0167279Y0124008D01*
X0166623Y0121550D02*
X0166519Y0121552D01*
X0166415Y0121558D01*
X0166311Y0121568D01*
X0166208Y0121581D01*
X0166105Y0121599D01*
X0166003Y0121620D01*
X0165902Y0121645D01*
X0165802Y0121674D01*
X0165703Y0121707D01*
X0165606Y0121744D01*
X0165510Y0121784D01*
X0165415Y0121827D01*
X0165322Y0121874D01*
X0165231Y0121925D01*
X0165142Y0121979D01*
X0165055Y0122036D01*
X0164971Y0122097D01*
X0164888Y0122161D01*
X0164808Y0122227D01*
X0164731Y0122297D01*
X0164656Y0122370D01*
X0167279Y0124009D02*
X0167338Y0123972D01*
X0167395Y0123932D01*
X0167449Y0123890D01*
X0167501Y0123844D01*
X0167551Y0123797D01*
X0167598Y0123746D01*
X0167643Y0123693D01*
X0167685Y0123638D01*
X0167724Y0123581D01*
X0167760Y0123522D01*
X0167792Y0123461D01*
X0167822Y0123398D01*
X0167848Y0123334D01*
X0167871Y0123269D01*
X0167890Y0123203D01*
X0167906Y0123136D01*
X0167919Y0123068D01*
X0167928Y0122999D01*
X0167933Y0122930D01*
X0167935Y0122861D01*
X0167934Y0122861D02*
X0167932Y0122790D01*
X0167926Y0122719D01*
X0167917Y0122649D01*
X0167903Y0122579D01*
X0167886Y0122510D01*
X0167865Y0122442D01*
X0167841Y0122376D01*
X0167813Y0122311D01*
X0167781Y0122247D01*
X0167746Y0122185D01*
X0167708Y0122125D01*
X0167667Y0122068D01*
X0167622Y0122012D01*
X0167575Y0121959D01*
X0167525Y0121909D01*
X0167472Y0121862D01*
X0167416Y0121817D01*
X0167359Y0121776D01*
X0167299Y0121738D01*
X0167237Y0121703D01*
X0167173Y0121671D01*
X0167108Y0121643D01*
X0167042Y0121619D01*
X0166974Y0121598D01*
X0166905Y0121581D01*
X0166835Y0121567D01*
X0166765Y0121558D01*
X0166694Y0121552D01*
X0166623Y0121550D01*
X0167607Y0126958D02*
X0167527Y0127016D01*
X0167444Y0127071D01*
X0167359Y0127122D01*
X0167273Y0127169D01*
X0167184Y0127213D01*
X0167094Y0127254D01*
X0167002Y0127291D01*
X0166909Y0127324D01*
X0166815Y0127353D01*
X0166719Y0127379D01*
X0166623Y0127400D01*
X0166526Y0127418D01*
X0166428Y0127432D01*
X0166330Y0127442D01*
X0166231Y0127448D01*
X0166132Y0127450D01*
X0166061Y0127448D01*
X0165990Y0127442D01*
X0165920Y0127433D01*
X0165850Y0127419D01*
X0165781Y0127402D01*
X0165713Y0127381D01*
X0165647Y0127357D01*
X0165582Y0127329D01*
X0165518Y0127297D01*
X0165456Y0127262D01*
X0165396Y0127224D01*
X0165339Y0127183D01*
X0165283Y0127138D01*
X0165230Y0127091D01*
X0165180Y0127041D01*
X0165133Y0126988D01*
X0165088Y0126932D01*
X0165047Y0126875D01*
X0165009Y0126815D01*
X0164974Y0126753D01*
X0164942Y0126689D01*
X0164914Y0126624D01*
X0164890Y0126558D01*
X0164869Y0126490D01*
X0164852Y0126421D01*
X0164838Y0126351D01*
X0164829Y0126281D01*
X0164823Y0126210D01*
X0164821Y0126139D01*
X0164820Y0126139D02*
X0164822Y0126070D01*
X0164827Y0126001D01*
X0164836Y0125932D01*
X0164849Y0125864D01*
X0164865Y0125797D01*
X0164884Y0125731D01*
X0164907Y0125666D01*
X0164933Y0125602D01*
X0164963Y0125539D01*
X0164996Y0125478D01*
X0165031Y0125419D01*
X0165070Y0125362D01*
X0165112Y0125307D01*
X0165157Y0125254D01*
X0165204Y0125203D01*
X0165254Y0125155D01*
X0165306Y0125110D01*
X0165360Y0125068D01*
X0165417Y0125028D01*
X0165476Y0124991D01*
X0170605Y0124828D02*
X0170605Y0123189D01*
X0170605Y0124828D02*
X0172572Y0124828D01*
X0170606Y0124828D02*
X0170608Y0124928D01*
X0170614Y0125029D01*
X0170623Y0125129D01*
X0170637Y0125228D01*
X0170654Y0125327D01*
X0170675Y0125425D01*
X0170700Y0125523D01*
X0170728Y0125619D01*
X0170760Y0125714D01*
X0170796Y0125808D01*
X0170835Y0125901D01*
X0170878Y0125991D01*
X0170925Y0126081D01*
X0170974Y0126168D01*
X0171027Y0126253D01*
X0171083Y0126336D01*
X0171143Y0126418D01*
X0171205Y0126496D01*
X0171271Y0126572D01*
X0171339Y0126646D01*
X0171410Y0126717D01*
X0171484Y0126785D01*
X0171560Y0126851D01*
X0171638Y0126913D01*
X0171720Y0126973D01*
X0171803Y0127029D01*
X0171888Y0127082D01*
X0171975Y0127131D01*
X0172065Y0127178D01*
X0172155Y0127221D01*
X0172248Y0127260D01*
X0172342Y0127296D01*
X0172437Y0127328D01*
X0172533Y0127356D01*
X0172631Y0127381D01*
X0172729Y0127402D01*
X0172828Y0127419D01*
X0172927Y0127433D01*
X0173027Y0127442D01*
X0173128Y0127448D01*
X0173228Y0127450D01*
X0173883Y0123517D02*
X0173883Y0123189D01*
X0173883Y0123517D02*
X0173881Y0123588D01*
X0173875Y0123659D01*
X0173866Y0123729D01*
X0173852Y0123799D01*
X0173835Y0123868D01*
X0173814Y0123936D01*
X0173790Y0124002D01*
X0173762Y0124067D01*
X0173730Y0124131D01*
X0173695Y0124193D01*
X0173657Y0124253D01*
X0173616Y0124310D01*
X0173571Y0124366D01*
X0173524Y0124419D01*
X0173474Y0124469D01*
X0173421Y0124516D01*
X0173365Y0124561D01*
X0173308Y0124602D01*
X0173248Y0124640D01*
X0173186Y0124675D01*
X0173122Y0124707D01*
X0173057Y0124735D01*
X0172991Y0124759D01*
X0172923Y0124780D01*
X0172854Y0124797D01*
X0172784Y0124811D01*
X0172714Y0124820D01*
X0172643Y0124826D01*
X0172572Y0124828D01*
X0173883Y0123189D02*
X0173881Y0123110D01*
X0173875Y0123031D01*
X0173866Y0122952D01*
X0173852Y0122874D01*
X0173835Y0122797D01*
X0173815Y0122720D01*
X0173790Y0122645D01*
X0173762Y0122571D01*
X0173730Y0122498D01*
X0173695Y0122427D01*
X0173657Y0122358D01*
X0173615Y0122291D01*
X0173570Y0122226D01*
X0173522Y0122163D01*
X0173471Y0122102D01*
X0173417Y0122044D01*
X0173360Y0121989D01*
X0173301Y0121936D01*
X0173239Y0121887D01*
X0173175Y0121840D01*
X0173109Y0121797D01*
X0173041Y0121757D01*
X0172970Y0121720D01*
X0172899Y0121686D01*
X0172825Y0121657D01*
X0172750Y0121630D01*
X0172675Y0121608D01*
X0172598Y0121589D01*
X0172520Y0121573D01*
X0172442Y0121562D01*
X0172363Y0121554D01*
X0172284Y0121550D01*
X0172204Y0121550D01*
X0172125Y0121554D01*
X0172046Y0121562D01*
X0171968Y0121573D01*
X0171890Y0121589D01*
X0171813Y0121608D01*
X0171738Y0121630D01*
X0171663Y0121657D01*
X0171589Y0121686D01*
X0171518Y0121720D01*
X0171447Y0121757D01*
X0171379Y0121797D01*
X0171313Y0121840D01*
X0171249Y0121887D01*
X0171187Y0121936D01*
X0171128Y0121989D01*
X0171071Y0122044D01*
X0171017Y0122102D01*
X0170966Y0122163D01*
X0170918Y0122226D01*
X0170873Y0122291D01*
X0170831Y0122358D01*
X0170793Y0122427D01*
X0170758Y0122498D01*
X0170726Y0122571D01*
X0170698Y0122645D01*
X0170673Y0122720D01*
X0170653Y0122797D01*
X0170636Y0122874D01*
X0170622Y0122952D01*
X0170613Y0123031D01*
X0170607Y0123110D01*
X0170605Y0123189D01*
X0197067Y0124992D02*
X0198869Y0124008D01*
X0198214Y0121550D02*
X0198110Y0121552D01*
X0198006Y0121558D01*
X0197902Y0121568D01*
X0197799Y0121581D01*
X0197696Y0121599D01*
X0197594Y0121620D01*
X0197493Y0121645D01*
X0197393Y0121674D01*
X0197294Y0121707D01*
X0197197Y0121744D01*
X0197101Y0121784D01*
X0197006Y0121827D01*
X0196913Y0121874D01*
X0196822Y0121925D01*
X0196733Y0121979D01*
X0196646Y0122036D01*
X0196562Y0122097D01*
X0196479Y0122161D01*
X0196399Y0122227D01*
X0196322Y0122297D01*
X0196247Y0122370D01*
X0198869Y0124009D02*
X0198928Y0123972D01*
X0198985Y0123932D01*
X0199039Y0123890D01*
X0199091Y0123844D01*
X0199141Y0123797D01*
X0199188Y0123746D01*
X0199233Y0123693D01*
X0199275Y0123638D01*
X0199314Y0123581D01*
X0199350Y0123522D01*
X0199382Y0123461D01*
X0199412Y0123398D01*
X0199438Y0123334D01*
X0199461Y0123269D01*
X0199480Y0123203D01*
X0199496Y0123136D01*
X0199509Y0123068D01*
X0199518Y0122999D01*
X0199523Y0122930D01*
X0199525Y0122861D01*
X0199523Y0122790D01*
X0199517Y0122719D01*
X0199508Y0122649D01*
X0199494Y0122579D01*
X0199477Y0122510D01*
X0199456Y0122442D01*
X0199432Y0122376D01*
X0199404Y0122311D01*
X0199372Y0122247D01*
X0199337Y0122185D01*
X0199299Y0122125D01*
X0199258Y0122068D01*
X0199213Y0122012D01*
X0199166Y0121959D01*
X0199116Y0121909D01*
X0199063Y0121862D01*
X0199007Y0121817D01*
X0198950Y0121776D01*
X0198890Y0121738D01*
X0198828Y0121703D01*
X0198764Y0121671D01*
X0198699Y0121643D01*
X0198633Y0121619D01*
X0198565Y0121598D01*
X0198496Y0121581D01*
X0198426Y0121567D01*
X0198356Y0121558D01*
X0198285Y0121552D01*
X0198214Y0121550D01*
X0199197Y0126958D02*
X0199117Y0127016D01*
X0199034Y0127071D01*
X0198949Y0127122D01*
X0198863Y0127169D01*
X0198774Y0127213D01*
X0198684Y0127254D01*
X0198592Y0127291D01*
X0198499Y0127324D01*
X0198405Y0127353D01*
X0198309Y0127379D01*
X0198213Y0127400D01*
X0198116Y0127418D01*
X0198018Y0127432D01*
X0197920Y0127442D01*
X0197821Y0127448D01*
X0197722Y0127450D01*
X0197651Y0127448D01*
X0197580Y0127442D01*
X0197510Y0127433D01*
X0197440Y0127419D01*
X0197371Y0127402D01*
X0197303Y0127381D01*
X0197237Y0127357D01*
X0197172Y0127329D01*
X0197108Y0127297D01*
X0197046Y0127262D01*
X0196986Y0127224D01*
X0196929Y0127183D01*
X0196873Y0127138D01*
X0196820Y0127091D01*
X0196770Y0127041D01*
X0196723Y0126988D01*
X0196678Y0126932D01*
X0196637Y0126875D01*
X0196599Y0126815D01*
X0196564Y0126753D01*
X0196532Y0126689D01*
X0196504Y0126624D01*
X0196480Y0126558D01*
X0196459Y0126490D01*
X0196442Y0126421D01*
X0196428Y0126351D01*
X0196419Y0126281D01*
X0196413Y0126210D01*
X0196411Y0126139D01*
X0196413Y0126070D01*
X0196418Y0126001D01*
X0196427Y0125932D01*
X0196440Y0125864D01*
X0196456Y0125797D01*
X0196475Y0125731D01*
X0196498Y0125666D01*
X0196524Y0125602D01*
X0196554Y0125539D01*
X0196587Y0125478D01*
X0196622Y0125419D01*
X0196661Y0125362D01*
X0196703Y0125307D01*
X0196748Y0125254D01*
X0196795Y0125203D01*
X0196845Y0125155D01*
X0196897Y0125110D01*
X0196951Y0125068D01*
X0197008Y0125028D01*
X0197067Y0124991D01*
X0202196Y0126794D02*
X0202196Y0127450D01*
X0205474Y0127450D01*
X0203835Y0121550D01*
X0225375Y0124992D02*
X0227178Y0124008D01*
X0226522Y0121550D02*
X0226418Y0121552D01*
X0226314Y0121558D01*
X0226210Y0121568D01*
X0226107Y0121581D01*
X0226004Y0121599D01*
X0225902Y0121620D01*
X0225801Y0121645D01*
X0225701Y0121674D01*
X0225602Y0121707D01*
X0225505Y0121744D01*
X0225409Y0121784D01*
X0225314Y0121827D01*
X0225221Y0121874D01*
X0225130Y0121925D01*
X0225041Y0121979D01*
X0224954Y0122036D01*
X0224870Y0122097D01*
X0224787Y0122161D01*
X0224707Y0122227D01*
X0224630Y0122297D01*
X0224555Y0122370D01*
X0227178Y0124009D02*
X0227237Y0123972D01*
X0227294Y0123932D01*
X0227348Y0123890D01*
X0227400Y0123844D01*
X0227450Y0123797D01*
X0227497Y0123746D01*
X0227542Y0123693D01*
X0227584Y0123638D01*
X0227623Y0123581D01*
X0227659Y0123522D01*
X0227691Y0123461D01*
X0227721Y0123398D01*
X0227747Y0123334D01*
X0227770Y0123269D01*
X0227789Y0123203D01*
X0227805Y0123136D01*
X0227818Y0123068D01*
X0227827Y0122999D01*
X0227832Y0122930D01*
X0227834Y0122861D01*
X0227833Y0122861D02*
X0227831Y0122790D01*
X0227825Y0122719D01*
X0227816Y0122649D01*
X0227802Y0122579D01*
X0227785Y0122510D01*
X0227764Y0122442D01*
X0227740Y0122376D01*
X0227712Y0122311D01*
X0227680Y0122247D01*
X0227645Y0122185D01*
X0227607Y0122125D01*
X0227566Y0122068D01*
X0227521Y0122012D01*
X0227474Y0121959D01*
X0227424Y0121909D01*
X0227371Y0121862D01*
X0227315Y0121817D01*
X0227258Y0121776D01*
X0227198Y0121738D01*
X0227136Y0121703D01*
X0227072Y0121671D01*
X0227007Y0121643D01*
X0226941Y0121619D01*
X0226873Y0121598D01*
X0226804Y0121581D01*
X0226734Y0121567D01*
X0226664Y0121558D01*
X0226593Y0121552D01*
X0226522Y0121550D01*
X0227506Y0126958D02*
X0227426Y0127016D01*
X0227343Y0127071D01*
X0227258Y0127122D01*
X0227172Y0127169D01*
X0227083Y0127213D01*
X0226993Y0127254D01*
X0226901Y0127291D01*
X0226808Y0127324D01*
X0226714Y0127353D01*
X0226618Y0127379D01*
X0226522Y0127400D01*
X0226425Y0127418D01*
X0226327Y0127432D01*
X0226229Y0127442D01*
X0226130Y0127448D01*
X0226031Y0127450D01*
X0225960Y0127448D01*
X0225889Y0127442D01*
X0225819Y0127433D01*
X0225749Y0127419D01*
X0225680Y0127402D01*
X0225612Y0127381D01*
X0225546Y0127357D01*
X0225481Y0127329D01*
X0225417Y0127297D01*
X0225355Y0127262D01*
X0225295Y0127224D01*
X0225238Y0127183D01*
X0225182Y0127138D01*
X0225129Y0127091D01*
X0225079Y0127041D01*
X0225032Y0126988D01*
X0224987Y0126932D01*
X0224946Y0126875D01*
X0224908Y0126815D01*
X0224873Y0126753D01*
X0224841Y0126689D01*
X0224813Y0126624D01*
X0224789Y0126558D01*
X0224768Y0126490D01*
X0224751Y0126421D01*
X0224737Y0126351D01*
X0224728Y0126281D01*
X0224722Y0126210D01*
X0224720Y0126139D01*
X0224719Y0126139D02*
X0224721Y0126070D01*
X0224726Y0126001D01*
X0224735Y0125932D01*
X0224748Y0125864D01*
X0224764Y0125797D01*
X0224783Y0125731D01*
X0224806Y0125666D01*
X0224832Y0125602D01*
X0224862Y0125539D01*
X0224895Y0125478D01*
X0224930Y0125419D01*
X0224969Y0125362D01*
X0225011Y0125307D01*
X0225056Y0125254D01*
X0225103Y0125203D01*
X0225153Y0125155D01*
X0225205Y0125110D01*
X0225259Y0125068D01*
X0225316Y0125028D01*
X0225375Y0124991D01*
X0230832Y0126139D02*
X0230834Y0126068D01*
X0230840Y0125997D01*
X0230849Y0125927D01*
X0230863Y0125857D01*
X0230880Y0125788D01*
X0230901Y0125720D01*
X0230925Y0125654D01*
X0230953Y0125589D01*
X0230985Y0125525D01*
X0231020Y0125463D01*
X0231058Y0125403D01*
X0231099Y0125346D01*
X0231144Y0125290D01*
X0231191Y0125237D01*
X0231241Y0125187D01*
X0231294Y0125140D01*
X0231350Y0125095D01*
X0231407Y0125054D01*
X0231467Y0125016D01*
X0231529Y0124981D01*
X0231593Y0124949D01*
X0231658Y0124921D01*
X0231724Y0124897D01*
X0231792Y0124876D01*
X0231861Y0124859D01*
X0231931Y0124845D01*
X0232001Y0124836D01*
X0232072Y0124830D01*
X0232143Y0124828D01*
X0232214Y0124830D01*
X0232285Y0124836D01*
X0232355Y0124845D01*
X0232425Y0124859D01*
X0232494Y0124876D01*
X0232562Y0124897D01*
X0232628Y0124921D01*
X0232693Y0124949D01*
X0232757Y0124981D01*
X0232819Y0125016D01*
X0232879Y0125054D01*
X0232936Y0125095D01*
X0232992Y0125140D01*
X0233045Y0125187D01*
X0233095Y0125237D01*
X0233142Y0125290D01*
X0233187Y0125346D01*
X0233228Y0125403D01*
X0233266Y0125463D01*
X0233301Y0125525D01*
X0233333Y0125589D01*
X0233361Y0125654D01*
X0233385Y0125720D01*
X0233406Y0125788D01*
X0233423Y0125857D01*
X0233437Y0125927D01*
X0233446Y0125997D01*
X0233452Y0126068D01*
X0233454Y0126139D01*
X0233452Y0126210D01*
X0233446Y0126281D01*
X0233437Y0126351D01*
X0233423Y0126421D01*
X0233406Y0126490D01*
X0233385Y0126558D01*
X0233361Y0126624D01*
X0233333Y0126689D01*
X0233301Y0126753D01*
X0233266Y0126815D01*
X0233228Y0126875D01*
X0233187Y0126932D01*
X0233142Y0126988D01*
X0233095Y0127041D01*
X0233045Y0127091D01*
X0232992Y0127138D01*
X0232936Y0127183D01*
X0232879Y0127224D01*
X0232819Y0127262D01*
X0232757Y0127297D01*
X0232693Y0127329D01*
X0232628Y0127357D01*
X0232562Y0127381D01*
X0232494Y0127402D01*
X0232425Y0127419D01*
X0232355Y0127433D01*
X0232285Y0127442D01*
X0232214Y0127448D01*
X0232143Y0127450D01*
X0232072Y0127448D01*
X0232001Y0127442D01*
X0231931Y0127433D01*
X0231861Y0127419D01*
X0231792Y0127402D01*
X0231724Y0127381D01*
X0231658Y0127357D01*
X0231593Y0127329D01*
X0231529Y0127297D01*
X0231467Y0127262D01*
X0231407Y0127224D01*
X0231350Y0127183D01*
X0231294Y0127138D01*
X0231241Y0127091D01*
X0231191Y0127041D01*
X0231144Y0126988D01*
X0231099Y0126932D01*
X0231058Y0126875D01*
X0231020Y0126815D01*
X0230985Y0126753D01*
X0230953Y0126689D01*
X0230925Y0126624D01*
X0230901Y0126558D01*
X0230880Y0126490D01*
X0230863Y0126421D01*
X0230849Y0126351D01*
X0230840Y0126281D01*
X0230834Y0126210D01*
X0230832Y0126139D01*
X0230504Y0123189D02*
X0230506Y0123110D01*
X0230512Y0123031D01*
X0230521Y0122952D01*
X0230535Y0122874D01*
X0230552Y0122797D01*
X0230572Y0122720D01*
X0230597Y0122645D01*
X0230625Y0122571D01*
X0230657Y0122498D01*
X0230692Y0122427D01*
X0230730Y0122358D01*
X0230772Y0122291D01*
X0230817Y0122226D01*
X0230865Y0122163D01*
X0230916Y0122102D01*
X0230970Y0122044D01*
X0231027Y0121989D01*
X0231086Y0121936D01*
X0231148Y0121887D01*
X0231212Y0121840D01*
X0231278Y0121797D01*
X0231346Y0121757D01*
X0231417Y0121720D01*
X0231488Y0121686D01*
X0231562Y0121657D01*
X0231637Y0121630D01*
X0231712Y0121608D01*
X0231789Y0121589D01*
X0231867Y0121573D01*
X0231945Y0121562D01*
X0232024Y0121554D01*
X0232103Y0121550D01*
X0232183Y0121550D01*
X0232262Y0121554D01*
X0232341Y0121562D01*
X0232419Y0121573D01*
X0232497Y0121589D01*
X0232574Y0121608D01*
X0232649Y0121630D01*
X0232724Y0121657D01*
X0232798Y0121686D01*
X0232869Y0121720D01*
X0232940Y0121757D01*
X0233008Y0121797D01*
X0233074Y0121840D01*
X0233138Y0121887D01*
X0233200Y0121936D01*
X0233259Y0121989D01*
X0233316Y0122044D01*
X0233370Y0122102D01*
X0233421Y0122163D01*
X0233469Y0122226D01*
X0233514Y0122291D01*
X0233556Y0122358D01*
X0233594Y0122427D01*
X0233629Y0122498D01*
X0233661Y0122571D01*
X0233689Y0122645D01*
X0233714Y0122720D01*
X0233734Y0122797D01*
X0233751Y0122874D01*
X0233765Y0122952D01*
X0233774Y0123031D01*
X0233780Y0123110D01*
X0233782Y0123189D01*
X0233780Y0123268D01*
X0233774Y0123347D01*
X0233765Y0123426D01*
X0233751Y0123504D01*
X0233734Y0123581D01*
X0233714Y0123658D01*
X0233689Y0123733D01*
X0233661Y0123807D01*
X0233629Y0123880D01*
X0233594Y0123951D01*
X0233556Y0124020D01*
X0233514Y0124087D01*
X0233469Y0124152D01*
X0233421Y0124215D01*
X0233370Y0124276D01*
X0233316Y0124334D01*
X0233259Y0124389D01*
X0233200Y0124442D01*
X0233138Y0124491D01*
X0233074Y0124538D01*
X0233008Y0124581D01*
X0232940Y0124621D01*
X0232869Y0124658D01*
X0232798Y0124692D01*
X0232724Y0124721D01*
X0232649Y0124748D01*
X0232574Y0124770D01*
X0232497Y0124789D01*
X0232419Y0124805D01*
X0232341Y0124816D01*
X0232262Y0124824D01*
X0232183Y0124828D01*
X0232103Y0124828D01*
X0232024Y0124824D01*
X0231945Y0124816D01*
X0231867Y0124805D01*
X0231789Y0124789D01*
X0231712Y0124770D01*
X0231637Y0124748D01*
X0231562Y0124721D01*
X0231488Y0124692D01*
X0231417Y0124658D01*
X0231346Y0124621D01*
X0231278Y0124581D01*
X0231212Y0124538D01*
X0231148Y0124491D01*
X0231086Y0124442D01*
X0231027Y0124389D01*
X0230970Y0124334D01*
X0230916Y0124276D01*
X0230865Y0124215D01*
X0230817Y0124152D01*
X0230772Y0124087D01*
X0230730Y0124020D01*
X0230692Y0123951D01*
X0230657Y0123880D01*
X0230625Y0123807D01*
X0230597Y0123733D01*
X0230572Y0123658D01*
X0230552Y0123581D01*
X0230535Y0123504D01*
X0230521Y0123426D01*
X0230512Y0123347D01*
X0230506Y0123268D01*
X0230504Y0123189D01*
X0251550Y0122950D02*
X0251550Y0122294D01*
X0251550Y0122950D02*
X0254828Y0122950D01*
X0253189Y0117050D01*
X0251878Y0111139D02*
X0251880Y0111068D01*
X0251886Y0110997D01*
X0251895Y0110927D01*
X0251909Y0110857D01*
X0251926Y0110788D01*
X0251947Y0110720D01*
X0251971Y0110654D01*
X0251999Y0110589D01*
X0252031Y0110525D01*
X0252066Y0110463D01*
X0252104Y0110403D01*
X0252145Y0110346D01*
X0252190Y0110290D01*
X0252237Y0110237D01*
X0252287Y0110187D01*
X0252340Y0110140D01*
X0252396Y0110095D01*
X0252453Y0110054D01*
X0252513Y0110016D01*
X0252575Y0109981D01*
X0252639Y0109949D01*
X0252704Y0109921D01*
X0252770Y0109897D01*
X0252838Y0109876D01*
X0252907Y0109859D01*
X0252977Y0109845D01*
X0253047Y0109836D01*
X0253118Y0109830D01*
X0253189Y0109828D01*
X0253260Y0109830D01*
X0253331Y0109836D01*
X0253401Y0109845D01*
X0253471Y0109859D01*
X0253540Y0109876D01*
X0253608Y0109897D01*
X0253674Y0109921D01*
X0253739Y0109949D01*
X0253803Y0109981D01*
X0253865Y0110016D01*
X0253925Y0110054D01*
X0253982Y0110095D01*
X0254038Y0110140D01*
X0254091Y0110187D01*
X0254141Y0110237D01*
X0254188Y0110290D01*
X0254233Y0110346D01*
X0254274Y0110403D01*
X0254312Y0110463D01*
X0254347Y0110525D01*
X0254379Y0110589D01*
X0254407Y0110654D01*
X0254431Y0110720D01*
X0254452Y0110788D01*
X0254469Y0110857D01*
X0254483Y0110927D01*
X0254492Y0110997D01*
X0254498Y0111068D01*
X0254500Y0111139D01*
X0254498Y0111210D01*
X0254492Y0111281D01*
X0254483Y0111351D01*
X0254469Y0111421D01*
X0254452Y0111490D01*
X0254431Y0111558D01*
X0254407Y0111624D01*
X0254379Y0111689D01*
X0254347Y0111753D01*
X0254312Y0111815D01*
X0254274Y0111875D01*
X0254233Y0111932D01*
X0254188Y0111988D01*
X0254141Y0112041D01*
X0254091Y0112091D01*
X0254038Y0112138D01*
X0253982Y0112183D01*
X0253925Y0112224D01*
X0253865Y0112262D01*
X0253803Y0112297D01*
X0253739Y0112329D01*
X0253674Y0112357D01*
X0253608Y0112381D01*
X0253540Y0112402D01*
X0253471Y0112419D01*
X0253401Y0112433D01*
X0253331Y0112442D01*
X0253260Y0112448D01*
X0253189Y0112450D01*
X0253118Y0112448D01*
X0253047Y0112442D01*
X0252977Y0112433D01*
X0252907Y0112419D01*
X0252838Y0112402D01*
X0252770Y0112381D01*
X0252704Y0112357D01*
X0252639Y0112329D01*
X0252575Y0112297D01*
X0252513Y0112262D01*
X0252453Y0112224D01*
X0252396Y0112183D01*
X0252340Y0112138D01*
X0252287Y0112091D01*
X0252237Y0112041D01*
X0252190Y0111988D01*
X0252145Y0111932D01*
X0252104Y0111875D01*
X0252066Y0111815D01*
X0252031Y0111753D01*
X0251999Y0111689D01*
X0251971Y0111624D01*
X0251947Y0111558D01*
X0251926Y0111490D01*
X0251909Y0111421D01*
X0251895Y0111351D01*
X0251886Y0111281D01*
X0251880Y0111210D01*
X0251878Y0111139D01*
X0251550Y0108189D02*
X0251552Y0108110D01*
X0251558Y0108031D01*
X0251567Y0107952D01*
X0251581Y0107874D01*
X0251598Y0107797D01*
X0251618Y0107720D01*
X0251643Y0107645D01*
X0251671Y0107571D01*
X0251703Y0107498D01*
X0251738Y0107427D01*
X0251776Y0107358D01*
X0251818Y0107291D01*
X0251863Y0107226D01*
X0251911Y0107163D01*
X0251962Y0107102D01*
X0252016Y0107044D01*
X0252073Y0106989D01*
X0252132Y0106936D01*
X0252194Y0106887D01*
X0252258Y0106840D01*
X0252324Y0106797D01*
X0252392Y0106757D01*
X0252463Y0106720D01*
X0252534Y0106686D01*
X0252608Y0106657D01*
X0252683Y0106630D01*
X0252758Y0106608D01*
X0252835Y0106589D01*
X0252913Y0106573D01*
X0252991Y0106562D01*
X0253070Y0106554D01*
X0253149Y0106550D01*
X0253229Y0106550D01*
X0253308Y0106554D01*
X0253387Y0106562D01*
X0253465Y0106573D01*
X0253543Y0106589D01*
X0253620Y0106608D01*
X0253695Y0106630D01*
X0253770Y0106657D01*
X0253844Y0106686D01*
X0253915Y0106720D01*
X0253986Y0106757D01*
X0254054Y0106797D01*
X0254120Y0106840D01*
X0254184Y0106887D01*
X0254246Y0106936D01*
X0254305Y0106989D01*
X0254362Y0107044D01*
X0254416Y0107102D01*
X0254467Y0107163D01*
X0254515Y0107226D01*
X0254560Y0107291D01*
X0254602Y0107358D01*
X0254640Y0107427D01*
X0254675Y0107498D01*
X0254707Y0107571D01*
X0254735Y0107645D01*
X0254760Y0107720D01*
X0254780Y0107797D01*
X0254797Y0107874D01*
X0254811Y0107952D01*
X0254820Y0108031D01*
X0254826Y0108110D01*
X0254828Y0108189D01*
X0254826Y0108268D01*
X0254820Y0108347D01*
X0254811Y0108426D01*
X0254797Y0108504D01*
X0254780Y0108581D01*
X0254760Y0108658D01*
X0254735Y0108733D01*
X0254707Y0108807D01*
X0254675Y0108880D01*
X0254640Y0108951D01*
X0254602Y0109020D01*
X0254560Y0109087D01*
X0254515Y0109152D01*
X0254467Y0109215D01*
X0254416Y0109276D01*
X0254362Y0109334D01*
X0254305Y0109389D01*
X0254246Y0109442D01*
X0254184Y0109491D01*
X0254120Y0109538D01*
X0254054Y0109581D01*
X0253986Y0109621D01*
X0253915Y0109658D01*
X0253844Y0109692D01*
X0253770Y0109721D01*
X0253695Y0109748D01*
X0253620Y0109770D01*
X0253543Y0109789D01*
X0253465Y0109805D01*
X0253387Y0109816D01*
X0253308Y0109824D01*
X0253229Y0109828D01*
X0253149Y0109828D01*
X0253070Y0109824D01*
X0252991Y0109816D01*
X0252913Y0109805D01*
X0252835Y0109789D01*
X0252758Y0109770D01*
X0252683Y0109748D01*
X0252608Y0109721D01*
X0252534Y0109692D01*
X0252463Y0109658D01*
X0252392Y0109621D01*
X0252324Y0109581D01*
X0252258Y0109538D01*
X0252194Y0109491D01*
X0252132Y0109442D01*
X0252073Y0109389D01*
X0252016Y0109334D01*
X0251962Y0109276D01*
X0251911Y0109215D01*
X0251863Y0109152D01*
X0251818Y0109087D01*
X0251776Y0109020D01*
X0251738Y0108951D01*
X0251703Y0108880D01*
X0251671Y0108807D01*
X0251643Y0108733D01*
X0251618Y0108658D01*
X0251598Y0108581D01*
X0251581Y0108504D01*
X0251567Y0108426D01*
X0251558Y0108347D01*
X0251552Y0108268D01*
X0251550Y0108189D01*
X0251550Y0129189D02*
X0251550Y0130828D01*
X0253517Y0130828D01*
X0251550Y0130828D02*
X0251552Y0130928D01*
X0251558Y0131029D01*
X0251567Y0131129D01*
X0251581Y0131228D01*
X0251598Y0131327D01*
X0251619Y0131425D01*
X0251644Y0131523D01*
X0251672Y0131619D01*
X0251704Y0131714D01*
X0251740Y0131808D01*
X0251779Y0131901D01*
X0251822Y0131991D01*
X0251869Y0132081D01*
X0251918Y0132168D01*
X0251971Y0132253D01*
X0252027Y0132336D01*
X0252087Y0132418D01*
X0252149Y0132496D01*
X0252215Y0132572D01*
X0252283Y0132646D01*
X0252354Y0132717D01*
X0252428Y0132785D01*
X0252504Y0132851D01*
X0252582Y0132913D01*
X0252664Y0132973D01*
X0252747Y0133029D01*
X0252832Y0133082D01*
X0252919Y0133131D01*
X0253009Y0133178D01*
X0253099Y0133221D01*
X0253192Y0133260D01*
X0253286Y0133296D01*
X0253381Y0133328D01*
X0253477Y0133356D01*
X0253575Y0133381D01*
X0253673Y0133402D01*
X0253772Y0133419D01*
X0253871Y0133433D01*
X0253971Y0133442D01*
X0254072Y0133448D01*
X0254172Y0133450D01*
X0253517Y0130828D02*
X0253588Y0130826D01*
X0253659Y0130820D01*
X0253729Y0130811D01*
X0253799Y0130797D01*
X0253868Y0130780D01*
X0253936Y0130759D01*
X0254002Y0130735D01*
X0254067Y0130707D01*
X0254131Y0130675D01*
X0254193Y0130640D01*
X0254253Y0130602D01*
X0254310Y0130561D01*
X0254366Y0130516D01*
X0254419Y0130469D01*
X0254469Y0130419D01*
X0254516Y0130366D01*
X0254561Y0130310D01*
X0254602Y0130253D01*
X0254640Y0130193D01*
X0254675Y0130131D01*
X0254707Y0130067D01*
X0254735Y0130002D01*
X0254759Y0129936D01*
X0254780Y0129868D01*
X0254797Y0129799D01*
X0254811Y0129729D01*
X0254820Y0129659D01*
X0254826Y0129588D01*
X0254828Y0129517D01*
X0254828Y0129189D01*
X0254826Y0129110D01*
X0254820Y0129031D01*
X0254811Y0128952D01*
X0254797Y0128874D01*
X0254780Y0128797D01*
X0254760Y0128720D01*
X0254735Y0128645D01*
X0254707Y0128571D01*
X0254675Y0128498D01*
X0254640Y0128427D01*
X0254602Y0128358D01*
X0254560Y0128291D01*
X0254515Y0128226D01*
X0254467Y0128163D01*
X0254416Y0128102D01*
X0254362Y0128044D01*
X0254305Y0127989D01*
X0254246Y0127936D01*
X0254184Y0127887D01*
X0254120Y0127840D01*
X0254054Y0127797D01*
X0253986Y0127757D01*
X0253915Y0127720D01*
X0253844Y0127686D01*
X0253770Y0127657D01*
X0253695Y0127630D01*
X0253620Y0127608D01*
X0253543Y0127589D01*
X0253465Y0127573D01*
X0253387Y0127562D01*
X0253308Y0127554D01*
X0253229Y0127550D01*
X0253149Y0127550D01*
X0253070Y0127554D01*
X0252991Y0127562D01*
X0252913Y0127573D01*
X0252835Y0127589D01*
X0252758Y0127608D01*
X0252683Y0127630D01*
X0252608Y0127657D01*
X0252534Y0127686D01*
X0252463Y0127720D01*
X0252392Y0127757D01*
X0252324Y0127797D01*
X0252258Y0127840D01*
X0252194Y0127887D01*
X0252132Y0127936D01*
X0252073Y0127989D01*
X0252016Y0128044D01*
X0251962Y0128102D01*
X0251911Y0128163D01*
X0251863Y0128226D01*
X0251818Y0128291D01*
X0251776Y0128358D01*
X0251738Y0128427D01*
X0251703Y0128498D01*
X0251671Y0128571D01*
X0251643Y0128645D01*
X0251618Y0128720D01*
X0251598Y0128797D01*
X0251581Y0128874D01*
X0251567Y0128952D01*
X0251558Y0129031D01*
X0251552Y0129110D01*
X0251550Y0129189D01*
X0251550Y0138050D02*
X0253517Y0138050D01*
X0253588Y0138052D01*
X0253659Y0138058D01*
X0253729Y0138067D01*
X0253799Y0138081D01*
X0253868Y0138098D01*
X0253936Y0138119D01*
X0254002Y0138143D01*
X0254067Y0138171D01*
X0254131Y0138203D01*
X0254193Y0138238D01*
X0254253Y0138276D01*
X0254310Y0138317D01*
X0254366Y0138362D01*
X0254419Y0138409D01*
X0254469Y0138459D01*
X0254516Y0138512D01*
X0254561Y0138568D01*
X0254602Y0138625D01*
X0254640Y0138685D01*
X0254675Y0138747D01*
X0254707Y0138811D01*
X0254735Y0138876D01*
X0254759Y0138942D01*
X0254780Y0139010D01*
X0254797Y0139079D01*
X0254811Y0139149D01*
X0254820Y0139219D01*
X0254826Y0139290D01*
X0254828Y0139361D01*
X0254828Y0140017D01*
X0254826Y0140088D01*
X0254820Y0140159D01*
X0254811Y0140229D01*
X0254797Y0140299D01*
X0254780Y0140368D01*
X0254759Y0140436D01*
X0254735Y0140502D01*
X0254707Y0140567D01*
X0254675Y0140631D01*
X0254640Y0140693D01*
X0254602Y0140753D01*
X0254561Y0140810D01*
X0254516Y0140866D01*
X0254469Y0140919D01*
X0254419Y0140969D01*
X0254366Y0141016D01*
X0254310Y0141061D01*
X0254253Y0141102D01*
X0254193Y0141140D01*
X0254131Y0141175D01*
X0254067Y0141207D01*
X0254002Y0141235D01*
X0253936Y0141259D01*
X0253868Y0141280D01*
X0253799Y0141297D01*
X0253729Y0141311D01*
X0253659Y0141320D01*
X0253588Y0141326D01*
X0253517Y0141328D01*
X0251550Y0141328D01*
X0251550Y0143950D01*
X0254828Y0143950D01*
X0253844Y0148550D02*
X0253844Y0151172D01*
X0254828Y0149861D02*
X0251550Y0149861D01*
X0252861Y0154450D01*
X0253189Y0159050D02*
X0251550Y0159050D01*
X0253189Y0159050D02*
X0253268Y0159052D01*
X0253347Y0159058D01*
X0253426Y0159067D01*
X0253504Y0159081D01*
X0253581Y0159098D01*
X0253658Y0159118D01*
X0253733Y0159143D01*
X0253807Y0159171D01*
X0253880Y0159203D01*
X0253951Y0159238D01*
X0254020Y0159276D01*
X0254087Y0159318D01*
X0254152Y0159363D01*
X0254215Y0159411D01*
X0254276Y0159462D01*
X0254334Y0159516D01*
X0254389Y0159573D01*
X0254442Y0159632D01*
X0254491Y0159694D01*
X0254538Y0159758D01*
X0254581Y0159824D01*
X0254621Y0159892D01*
X0254658Y0159963D01*
X0254692Y0160034D01*
X0254721Y0160108D01*
X0254748Y0160183D01*
X0254770Y0160258D01*
X0254789Y0160335D01*
X0254805Y0160413D01*
X0254816Y0160491D01*
X0254824Y0160570D01*
X0254828Y0160649D01*
X0254828Y0160729D01*
X0254824Y0160808D01*
X0254816Y0160887D01*
X0254805Y0160965D01*
X0254789Y0161043D01*
X0254770Y0161120D01*
X0254748Y0161195D01*
X0254721Y0161270D01*
X0254692Y0161344D01*
X0254658Y0161415D01*
X0254621Y0161486D01*
X0254581Y0161554D01*
X0254538Y0161620D01*
X0254491Y0161684D01*
X0254442Y0161746D01*
X0254389Y0161805D01*
X0254334Y0161862D01*
X0254276Y0161916D01*
X0254215Y0161967D01*
X0254152Y0162015D01*
X0254087Y0162060D01*
X0254020Y0162102D01*
X0253951Y0162140D01*
X0253880Y0162175D01*
X0253807Y0162207D01*
X0253733Y0162235D01*
X0253658Y0162260D01*
X0253581Y0162280D01*
X0253504Y0162297D01*
X0253426Y0162311D01*
X0253347Y0162320D01*
X0253268Y0162326D01*
X0253189Y0162328D01*
X0253517Y0162328D02*
X0252206Y0162328D01*
X0253517Y0162328D02*
X0253588Y0162330D01*
X0253659Y0162336D01*
X0253729Y0162345D01*
X0253799Y0162359D01*
X0253868Y0162376D01*
X0253936Y0162397D01*
X0254002Y0162421D01*
X0254067Y0162449D01*
X0254131Y0162481D01*
X0254193Y0162516D01*
X0254253Y0162554D01*
X0254310Y0162595D01*
X0254366Y0162640D01*
X0254419Y0162687D01*
X0254469Y0162737D01*
X0254516Y0162790D01*
X0254561Y0162846D01*
X0254602Y0162903D01*
X0254640Y0162963D01*
X0254675Y0163025D01*
X0254707Y0163089D01*
X0254735Y0163154D01*
X0254759Y0163220D01*
X0254780Y0163288D01*
X0254797Y0163357D01*
X0254811Y0163427D01*
X0254820Y0163497D01*
X0254826Y0163568D01*
X0254828Y0163639D01*
X0254826Y0163710D01*
X0254820Y0163781D01*
X0254811Y0163851D01*
X0254797Y0163921D01*
X0254780Y0163990D01*
X0254759Y0164058D01*
X0254735Y0164124D01*
X0254707Y0164189D01*
X0254675Y0164253D01*
X0254640Y0164315D01*
X0254602Y0164375D01*
X0254561Y0164432D01*
X0254516Y0164488D01*
X0254469Y0164541D01*
X0254419Y0164591D01*
X0254366Y0164638D01*
X0254310Y0164683D01*
X0254253Y0164724D01*
X0254193Y0164762D01*
X0254131Y0164797D01*
X0254067Y0164829D01*
X0254002Y0164857D01*
X0253936Y0164881D01*
X0253868Y0164902D01*
X0253799Y0164919D01*
X0253729Y0164933D01*
X0253659Y0164942D01*
X0253588Y0164948D01*
X0253517Y0164950D01*
X0251550Y0164950D01*
X0251550Y0169550D02*
X0254828Y0169550D01*
X0251550Y0169550D02*
X0254336Y0172828D01*
X0253353Y0175450D02*
X0253268Y0175448D01*
X0253183Y0175442D01*
X0253098Y0175433D01*
X0253014Y0175419D01*
X0252931Y0175402D01*
X0252848Y0175382D01*
X0252767Y0175357D01*
X0252687Y0175329D01*
X0252608Y0175297D01*
X0252530Y0175262D01*
X0252454Y0175223D01*
X0252380Y0175181D01*
X0252308Y0175136D01*
X0252238Y0175088D01*
X0252171Y0175036D01*
X0252105Y0174981D01*
X0252043Y0174924D01*
X0251982Y0174864D01*
X0251925Y0174801D01*
X0251871Y0174735D01*
X0251819Y0174668D01*
X0251771Y0174598D01*
X0251725Y0174526D01*
X0251684Y0174452D01*
X0251645Y0174376D01*
X0251610Y0174298D01*
X0251578Y0174219D01*
X0251550Y0174139D01*
X0254335Y0172828D02*
X0254389Y0172881D01*
X0254440Y0172937D01*
X0254488Y0172995D01*
X0254533Y0173056D01*
X0254575Y0173118D01*
X0254614Y0173183D01*
X0254651Y0173249D01*
X0254684Y0173317D01*
X0254713Y0173386D01*
X0254740Y0173457D01*
X0254763Y0173528D01*
X0254782Y0173601D01*
X0254798Y0173675D01*
X0254811Y0173749D01*
X0254820Y0173824D01*
X0254825Y0173900D01*
X0254827Y0173975D01*
X0254828Y0173975D02*
X0254826Y0174050D01*
X0254820Y0174124D01*
X0254811Y0174198D01*
X0254798Y0174272D01*
X0254781Y0174345D01*
X0254760Y0174417D01*
X0254736Y0174487D01*
X0254708Y0174557D01*
X0254677Y0174625D01*
X0254643Y0174691D01*
X0254605Y0174755D01*
X0254564Y0174818D01*
X0254519Y0174878D01*
X0254472Y0174936D01*
X0254422Y0174991D01*
X0254369Y0175044D01*
X0254314Y0175094D01*
X0254256Y0175141D01*
X0254196Y0175186D01*
X0254133Y0175227D01*
X0254069Y0175265D01*
X0254003Y0175299D01*
X0253935Y0175330D01*
X0253865Y0175358D01*
X0253795Y0175382D01*
X0253723Y0175403D01*
X0253650Y0175420D01*
X0253576Y0175433D01*
X0253502Y0175442D01*
X0253428Y0175448D01*
X0253353Y0175450D01*
X0253189Y0180050D02*
X0253189Y0185950D01*
X0251550Y0184639D01*
X0251550Y0180050D02*
X0254828Y0180050D01*
X0263189Y0196550D02*
X0263189Y0202450D01*
X0261550Y0202450D02*
X0264828Y0202450D01*
X0266966Y0202450D02*
X0270899Y0196550D01*
X0266966Y0196550D02*
X0270899Y0202450D01*
X0277060Y0202450D02*
X0277060Y0196550D01*
X0278699Y0196550D01*
X0278778Y0196552D01*
X0278857Y0196558D01*
X0278936Y0196567D01*
X0279014Y0196581D01*
X0279091Y0196598D01*
X0279168Y0196618D01*
X0279243Y0196643D01*
X0279317Y0196671D01*
X0279390Y0196703D01*
X0279461Y0196738D01*
X0279530Y0196776D01*
X0279597Y0196818D01*
X0279662Y0196863D01*
X0279725Y0196911D01*
X0279786Y0196962D01*
X0279844Y0197016D01*
X0279899Y0197073D01*
X0279952Y0197132D01*
X0280001Y0197194D01*
X0280048Y0197258D01*
X0280091Y0197324D01*
X0280131Y0197392D01*
X0280168Y0197463D01*
X0280202Y0197534D01*
X0280231Y0197608D01*
X0280258Y0197683D01*
X0280280Y0197758D01*
X0280299Y0197835D01*
X0280315Y0197913D01*
X0280326Y0197991D01*
X0280334Y0198070D01*
X0280338Y0198149D01*
X0280338Y0198229D01*
X0280334Y0198308D01*
X0280326Y0198387D01*
X0280315Y0198465D01*
X0280299Y0198543D01*
X0280280Y0198620D01*
X0280258Y0198695D01*
X0280231Y0198770D01*
X0280202Y0198844D01*
X0280168Y0198915D01*
X0280131Y0198986D01*
X0280091Y0199054D01*
X0280048Y0199120D01*
X0280001Y0199184D01*
X0279952Y0199246D01*
X0279899Y0199305D01*
X0279844Y0199362D01*
X0279786Y0199416D01*
X0279725Y0199467D01*
X0279662Y0199515D01*
X0279597Y0199560D01*
X0279530Y0199602D01*
X0279461Y0199640D01*
X0279390Y0199675D01*
X0279317Y0199707D01*
X0279243Y0199735D01*
X0279168Y0199760D01*
X0279091Y0199780D01*
X0279014Y0199797D01*
X0278936Y0199811D01*
X0278857Y0199820D01*
X0278778Y0199826D01*
X0278699Y0199828D01*
X0277060Y0199828D01*
X0278699Y0199828D02*
X0278770Y0199830D01*
X0278841Y0199836D01*
X0278911Y0199845D01*
X0278981Y0199859D01*
X0279050Y0199876D01*
X0279118Y0199897D01*
X0279184Y0199921D01*
X0279249Y0199949D01*
X0279313Y0199981D01*
X0279375Y0200016D01*
X0279435Y0200054D01*
X0279492Y0200095D01*
X0279548Y0200140D01*
X0279601Y0200187D01*
X0279651Y0200237D01*
X0279698Y0200290D01*
X0279743Y0200346D01*
X0279784Y0200403D01*
X0279822Y0200463D01*
X0279857Y0200525D01*
X0279889Y0200589D01*
X0279917Y0200654D01*
X0279941Y0200720D01*
X0279962Y0200788D01*
X0279979Y0200857D01*
X0279993Y0200927D01*
X0280002Y0200997D01*
X0280008Y0201068D01*
X0280010Y0201139D01*
X0280008Y0201210D01*
X0280002Y0201281D01*
X0279993Y0201351D01*
X0279979Y0201421D01*
X0279962Y0201490D01*
X0279941Y0201558D01*
X0279917Y0201624D01*
X0279889Y0201689D01*
X0279857Y0201753D01*
X0279822Y0201815D01*
X0279784Y0201875D01*
X0279743Y0201932D01*
X0279698Y0201988D01*
X0279651Y0202041D01*
X0279601Y0202091D01*
X0279548Y0202138D01*
X0279492Y0202183D01*
X0279435Y0202224D01*
X0279375Y0202262D01*
X0279313Y0202297D01*
X0279249Y0202329D01*
X0279184Y0202357D01*
X0279118Y0202381D01*
X0279050Y0202402D01*
X0278981Y0202419D01*
X0278911Y0202433D01*
X0278841Y0202442D01*
X0278770Y0202448D01*
X0278699Y0202450D01*
X0277060Y0202450D01*
X0283057Y0200483D02*
X0285024Y0200483D01*
X0285024Y0199828D01*
X0286984Y0200483D02*
X0286984Y0196550D01*
X0289527Y0197533D02*
X0289527Y0199500D01*
X0289528Y0199500D02*
X0289530Y0199562D01*
X0289536Y0199623D01*
X0289545Y0199684D01*
X0289559Y0199744D01*
X0289576Y0199804D01*
X0289597Y0199862D01*
X0289622Y0199919D01*
X0289650Y0199974D01*
X0289681Y0200027D01*
X0289716Y0200078D01*
X0289754Y0200127D01*
X0289794Y0200173D01*
X0289838Y0200217D01*
X0289884Y0200257D01*
X0289933Y0200295D01*
X0289984Y0200330D01*
X0290037Y0200361D01*
X0290092Y0200389D01*
X0290149Y0200414D01*
X0290207Y0200435D01*
X0290267Y0200452D01*
X0290327Y0200466D01*
X0290388Y0200475D01*
X0290449Y0200481D01*
X0290511Y0200483D01*
X0292150Y0200483D01*
X0292150Y0202450D02*
X0292150Y0196550D01*
X0290511Y0196550D01*
X0290449Y0196552D01*
X0290388Y0196558D01*
X0290327Y0196567D01*
X0290267Y0196581D01*
X0290207Y0196598D01*
X0290149Y0196619D01*
X0290092Y0196644D01*
X0290037Y0196672D01*
X0289984Y0196703D01*
X0289933Y0196738D01*
X0289884Y0196776D01*
X0289838Y0196816D01*
X0289794Y0196860D01*
X0289754Y0196906D01*
X0289716Y0196955D01*
X0289681Y0197006D01*
X0289650Y0197059D01*
X0289622Y0197114D01*
X0289597Y0197171D01*
X0289576Y0197229D01*
X0289559Y0197289D01*
X0289545Y0197349D01*
X0289536Y0197410D01*
X0289530Y0197471D01*
X0289528Y0197533D01*
X0295066Y0197533D02*
X0295066Y0199500D01*
X0295068Y0199562D01*
X0295074Y0199623D01*
X0295083Y0199684D01*
X0295097Y0199744D01*
X0295114Y0199804D01*
X0295135Y0199862D01*
X0295160Y0199919D01*
X0295188Y0199974D01*
X0295219Y0200027D01*
X0295254Y0200078D01*
X0295292Y0200127D01*
X0295332Y0200173D01*
X0295376Y0200217D01*
X0295422Y0200257D01*
X0295471Y0200295D01*
X0295522Y0200330D01*
X0295575Y0200361D01*
X0295630Y0200389D01*
X0295687Y0200414D01*
X0295745Y0200435D01*
X0295805Y0200452D01*
X0295865Y0200466D01*
X0295926Y0200475D01*
X0295987Y0200481D01*
X0296049Y0200483D01*
X0297688Y0200483D01*
X0297688Y0195567D01*
X0297688Y0196550D02*
X0296049Y0196550D01*
X0295987Y0196552D01*
X0295926Y0196558D01*
X0295865Y0196567D01*
X0295805Y0196581D01*
X0295745Y0196598D01*
X0295687Y0196619D01*
X0295630Y0196644D01*
X0295575Y0196672D01*
X0295522Y0196703D01*
X0295471Y0196738D01*
X0295422Y0196776D01*
X0295376Y0196816D01*
X0295332Y0196860D01*
X0295292Y0196906D01*
X0295254Y0196955D01*
X0295219Y0197006D01*
X0295188Y0197059D01*
X0295160Y0197114D01*
X0295135Y0197171D01*
X0295114Y0197229D01*
X0295097Y0197289D01*
X0295083Y0197349D01*
X0295074Y0197410D01*
X0295068Y0197471D01*
X0295066Y0197533D01*
X0297688Y0195567D02*
X0297686Y0195505D01*
X0297680Y0195444D01*
X0297671Y0195383D01*
X0297657Y0195323D01*
X0297640Y0195263D01*
X0297619Y0195205D01*
X0297594Y0195148D01*
X0297566Y0195093D01*
X0297535Y0195040D01*
X0297500Y0194989D01*
X0297462Y0194940D01*
X0297422Y0194894D01*
X0297378Y0194850D01*
X0297332Y0194810D01*
X0297283Y0194772D01*
X0297232Y0194737D01*
X0297179Y0194706D01*
X0297124Y0194678D01*
X0297067Y0194653D01*
X0297009Y0194632D01*
X0296949Y0194615D01*
X0296889Y0194601D01*
X0296828Y0194592D01*
X0296767Y0194586D01*
X0296705Y0194584D01*
X0296705Y0194583D02*
X0295394Y0194583D01*
X0300648Y0197533D02*
X0300648Y0199172D01*
X0300648Y0198517D02*
X0303270Y0198517D01*
X0303270Y0199172D01*
X0303268Y0199243D01*
X0303262Y0199314D01*
X0303253Y0199384D01*
X0303239Y0199454D01*
X0303222Y0199523D01*
X0303201Y0199591D01*
X0303177Y0199657D01*
X0303149Y0199722D01*
X0303117Y0199786D01*
X0303082Y0199848D01*
X0303044Y0199908D01*
X0303003Y0199965D01*
X0302958Y0200021D01*
X0302911Y0200074D01*
X0302861Y0200124D01*
X0302808Y0200171D01*
X0302752Y0200216D01*
X0302695Y0200257D01*
X0302635Y0200295D01*
X0302573Y0200330D01*
X0302509Y0200362D01*
X0302444Y0200390D01*
X0302378Y0200414D01*
X0302310Y0200435D01*
X0302241Y0200452D01*
X0302171Y0200466D01*
X0302101Y0200475D01*
X0302030Y0200481D01*
X0301959Y0200483D01*
X0301888Y0200481D01*
X0301817Y0200475D01*
X0301747Y0200466D01*
X0301677Y0200452D01*
X0301608Y0200435D01*
X0301540Y0200414D01*
X0301474Y0200390D01*
X0301409Y0200362D01*
X0301345Y0200330D01*
X0301283Y0200295D01*
X0301223Y0200257D01*
X0301166Y0200216D01*
X0301110Y0200171D01*
X0301057Y0200124D01*
X0301007Y0200074D01*
X0300960Y0200021D01*
X0300915Y0199965D01*
X0300874Y0199908D01*
X0300836Y0199848D01*
X0300801Y0199786D01*
X0300769Y0199722D01*
X0300741Y0199657D01*
X0300717Y0199591D01*
X0300696Y0199523D01*
X0300679Y0199454D01*
X0300665Y0199384D01*
X0300656Y0199314D01*
X0300650Y0199243D01*
X0300648Y0199172D01*
X0300648Y0197533D02*
X0300650Y0197471D01*
X0300656Y0197410D01*
X0300665Y0197349D01*
X0300679Y0197289D01*
X0300696Y0197229D01*
X0300717Y0197171D01*
X0300742Y0197114D01*
X0300770Y0197059D01*
X0300801Y0197006D01*
X0300836Y0196955D01*
X0300874Y0196906D01*
X0300914Y0196860D01*
X0300958Y0196816D01*
X0301004Y0196776D01*
X0301053Y0196738D01*
X0301104Y0196703D01*
X0301157Y0196672D01*
X0301212Y0196644D01*
X0301269Y0196619D01*
X0301327Y0196598D01*
X0301387Y0196581D01*
X0301447Y0196567D01*
X0301508Y0196558D01*
X0301569Y0196552D01*
X0301631Y0196550D01*
X0303270Y0196550D01*
X0287148Y0202122D02*
X0286821Y0202122D01*
X0286821Y0202450D01*
X0287148Y0202450D01*
X0287148Y0202122D01*
X0283057Y0200483D02*
X0283057Y0196550D01*
X0181380Y0182369D02*
X0181321Y0182494D01*
X0181266Y0182621D01*
X0181214Y0182748D01*
X0181167Y0182878D01*
X0181122Y0183008D01*
X0181082Y0183140D01*
X0181045Y0183273D01*
X0181013Y0183407D01*
X0180983Y0183541D01*
X0180958Y0183677D01*
X0180937Y0183813D01*
X0180919Y0183950D01*
X0180906Y0184087D01*
X0180896Y0184224D01*
X0180890Y0184362D01*
X0180888Y0184500D01*
X0184165Y0184500D02*
X0184163Y0184638D01*
X0184157Y0184776D01*
X0184147Y0184913D01*
X0184134Y0185050D01*
X0184116Y0185187D01*
X0184095Y0185323D01*
X0184070Y0185459D01*
X0184040Y0185593D01*
X0184008Y0185727D01*
X0183971Y0185860D01*
X0183931Y0185992D01*
X0183886Y0186122D01*
X0183839Y0186252D01*
X0183787Y0186379D01*
X0183732Y0186506D01*
X0183673Y0186631D01*
X0183838Y0186139D02*
X0181215Y0182861D01*
X0182526Y0181550D02*
X0182594Y0181552D01*
X0182663Y0181558D01*
X0182730Y0181567D01*
X0182797Y0181581D01*
X0182863Y0181598D01*
X0182929Y0181619D01*
X0182992Y0181643D01*
X0183055Y0181671D01*
X0183115Y0181703D01*
X0183174Y0181738D01*
X0183231Y0181776D01*
X0183286Y0181817D01*
X0183338Y0181862D01*
X0183387Y0181909D01*
X0183434Y0181959D01*
X0183478Y0182011D01*
X0183519Y0182066D01*
X0183556Y0182123D01*
X0183591Y0182182D01*
X0183622Y0182243D01*
X0183649Y0182306D01*
X0183673Y0182370D01*
X0182526Y0181550D02*
X0182458Y0181552D01*
X0182389Y0181558D01*
X0182322Y0181567D01*
X0182255Y0181581D01*
X0182189Y0181598D01*
X0182123Y0181619D01*
X0182060Y0181643D01*
X0181997Y0181671D01*
X0181937Y0181703D01*
X0181878Y0181738D01*
X0181821Y0181776D01*
X0181766Y0181817D01*
X0181714Y0181862D01*
X0181665Y0181909D01*
X0181618Y0181959D01*
X0181574Y0182011D01*
X0181533Y0182066D01*
X0181496Y0182123D01*
X0181461Y0182182D01*
X0181430Y0182243D01*
X0181403Y0182306D01*
X0181379Y0182370D01*
X0183673Y0182369D02*
X0183732Y0182494D01*
X0183787Y0182621D01*
X0183839Y0182748D01*
X0183886Y0182878D01*
X0183931Y0183008D01*
X0183971Y0183140D01*
X0184008Y0183273D01*
X0184040Y0183407D01*
X0184070Y0183541D01*
X0184095Y0183677D01*
X0184116Y0183813D01*
X0184134Y0183950D01*
X0184147Y0184087D01*
X0184157Y0184224D01*
X0184163Y0184362D01*
X0184165Y0184500D01*
X0180888Y0184500D02*
X0180890Y0184638D01*
X0180896Y0184776D01*
X0180906Y0184913D01*
X0180919Y0185050D01*
X0180937Y0185187D01*
X0180958Y0185323D01*
X0180983Y0185459D01*
X0181013Y0185593D01*
X0181045Y0185727D01*
X0181082Y0185860D01*
X0181122Y0185992D01*
X0181167Y0186122D01*
X0181214Y0186252D01*
X0181266Y0186379D01*
X0181321Y0186506D01*
X0181380Y0186631D01*
X0182526Y0187450D02*
X0182594Y0187448D01*
X0182663Y0187442D01*
X0182730Y0187433D01*
X0182797Y0187419D01*
X0182863Y0187402D01*
X0182929Y0187381D01*
X0182992Y0187357D01*
X0183055Y0187329D01*
X0183115Y0187297D01*
X0183174Y0187262D01*
X0183231Y0187224D01*
X0183286Y0187183D01*
X0183338Y0187138D01*
X0183387Y0187091D01*
X0183434Y0187041D01*
X0183478Y0186989D01*
X0183519Y0186934D01*
X0183556Y0186877D01*
X0183591Y0186818D01*
X0183622Y0186757D01*
X0183649Y0186694D01*
X0183673Y0186630D01*
X0182526Y0187450D02*
X0182458Y0187448D01*
X0182389Y0187442D01*
X0182322Y0187433D01*
X0182255Y0187419D01*
X0182189Y0187402D01*
X0182123Y0187381D01*
X0182060Y0187357D01*
X0181997Y0187329D01*
X0181937Y0187297D01*
X0181878Y0187262D01*
X0181821Y0187224D01*
X0181766Y0187183D01*
X0181714Y0187138D01*
X0181665Y0187091D01*
X0181618Y0187041D01*
X0181574Y0186989D01*
X0181533Y0186934D01*
X0181496Y0186877D01*
X0181461Y0186818D01*
X0181430Y0186757D01*
X0181403Y0186694D01*
X0181379Y0186630D01*
X0178383Y0181878D02*
X0178383Y0181550D01*
X0178055Y0181550D01*
X0178055Y0181878D01*
X0178383Y0181878D01*
X0175550Y0181550D02*
X0172272Y0181550D01*
X0173911Y0181550D02*
X0173911Y0187450D01*
X0172272Y0186139D01*
X0169683Y0185483D02*
X0168372Y0181550D01*
X0167061Y0185483D01*
X0161024Y0185483D02*
X0159385Y0185483D01*
X0159323Y0185481D01*
X0159262Y0185475D01*
X0159201Y0185466D01*
X0159141Y0185452D01*
X0159081Y0185435D01*
X0159023Y0185414D01*
X0158966Y0185389D01*
X0158911Y0185361D01*
X0158858Y0185330D01*
X0158807Y0185295D01*
X0158758Y0185257D01*
X0158712Y0185217D01*
X0158668Y0185173D01*
X0158628Y0185127D01*
X0158590Y0185078D01*
X0158555Y0185027D01*
X0158524Y0184974D01*
X0158496Y0184919D01*
X0158471Y0184862D01*
X0158450Y0184804D01*
X0158433Y0184744D01*
X0158419Y0184684D01*
X0158410Y0184623D01*
X0158404Y0184562D01*
X0158402Y0184500D01*
X0158402Y0182533D01*
X0158404Y0182471D01*
X0158410Y0182410D01*
X0158419Y0182349D01*
X0158433Y0182289D01*
X0158450Y0182229D01*
X0158471Y0182171D01*
X0158496Y0182114D01*
X0158524Y0182059D01*
X0158555Y0182006D01*
X0158590Y0181955D01*
X0158628Y0181906D01*
X0158668Y0181860D01*
X0158712Y0181816D01*
X0158758Y0181776D01*
X0158807Y0181738D01*
X0158858Y0181703D01*
X0158911Y0181672D01*
X0158966Y0181644D01*
X0159023Y0181619D01*
X0159081Y0181598D01*
X0159141Y0181581D01*
X0159201Y0181567D01*
X0159262Y0181558D01*
X0159323Y0181552D01*
X0159385Y0181550D01*
X0161024Y0181550D01*
X0161024Y0187450D01*
X0156360Y0185483D02*
X0156360Y0184828D01*
X0156360Y0185483D02*
X0154393Y0185483D01*
X0154393Y0181550D01*
X0151178Y0181550D02*
X0151178Y0184500D01*
X0151178Y0183844D02*
X0149703Y0183844D01*
X0151177Y0184500D02*
X0151175Y0184562D01*
X0151169Y0184623D01*
X0151160Y0184684D01*
X0151146Y0184744D01*
X0151129Y0184804D01*
X0151108Y0184862D01*
X0151083Y0184919D01*
X0151055Y0184974D01*
X0151024Y0185027D01*
X0150989Y0185078D01*
X0150951Y0185127D01*
X0150911Y0185173D01*
X0150867Y0185217D01*
X0150821Y0185257D01*
X0150772Y0185295D01*
X0150721Y0185330D01*
X0150668Y0185361D01*
X0150613Y0185389D01*
X0150556Y0185414D01*
X0150498Y0185435D01*
X0150438Y0185452D01*
X0150378Y0185466D01*
X0150317Y0185475D01*
X0150256Y0185481D01*
X0150194Y0185483D01*
X0148883Y0185483D01*
X0149703Y0183844D02*
X0149636Y0183842D01*
X0149570Y0183836D01*
X0149504Y0183827D01*
X0149438Y0183813D01*
X0149374Y0183796D01*
X0149311Y0183775D01*
X0149249Y0183750D01*
X0149188Y0183722D01*
X0149130Y0183690D01*
X0149073Y0183655D01*
X0149018Y0183617D01*
X0148966Y0183576D01*
X0148916Y0183531D01*
X0148869Y0183484D01*
X0148824Y0183434D01*
X0148783Y0183382D01*
X0148745Y0183327D01*
X0148710Y0183271D01*
X0148678Y0183212D01*
X0148650Y0183151D01*
X0148625Y0183089D01*
X0148604Y0183026D01*
X0148587Y0182962D01*
X0148573Y0182896D01*
X0148564Y0182830D01*
X0148558Y0182764D01*
X0148556Y0182697D01*
X0148558Y0182630D01*
X0148564Y0182564D01*
X0148573Y0182498D01*
X0148587Y0182432D01*
X0148604Y0182368D01*
X0148625Y0182305D01*
X0148650Y0182243D01*
X0148678Y0182182D01*
X0148710Y0182124D01*
X0148745Y0182067D01*
X0148783Y0182012D01*
X0148824Y0181960D01*
X0148869Y0181910D01*
X0148916Y0181863D01*
X0148966Y0181818D01*
X0149018Y0181777D01*
X0149073Y0181739D01*
X0149130Y0181704D01*
X0149188Y0181672D01*
X0149249Y0181644D01*
X0149311Y0181619D01*
X0149374Y0181598D01*
X0149438Y0181581D01*
X0149504Y0181567D01*
X0149570Y0181558D01*
X0149636Y0181552D01*
X0149703Y0181550D01*
X0151178Y0181550D01*
X0145888Y0182861D02*
X0145888Y0184172D01*
X0145886Y0184243D01*
X0145880Y0184314D01*
X0145871Y0184384D01*
X0145857Y0184454D01*
X0145840Y0184523D01*
X0145819Y0184591D01*
X0145795Y0184657D01*
X0145767Y0184722D01*
X0145735Y0184786D01*
X0145700Y0184848D01*
X0145662Y0184908D01*
X0145621Y0184965D01*
X0145576Y0185021D01*
X0145529Y0185074D01*
X0145479Y0185124D01*
X0145426Y0185171D01*
X0145370Y0185216D01*
X0145313Y0185257D01*
X0145253Y0185295D01*
X0145191Y0185330D01*
X0145127Y0185362D01*
X0145062Y0185390D01*
X0144996Y0185414D01*
X0144928Y0185435D01*
X0144859Y0185452D01*
X0144789Y0185466D01*
X0144719Y0185475D01*
X0144648Y0185481D01*
X0144577Y0185483D01*
X0144506Y0185481D01*
X0144435Y0185475D01*
X0144365Y0185466D01*
X0144295Y0185452D01*
X0144226Y0185435D01*
X0144158Y0185414D01*
X0144092Y0185390D01*
X0144027Y0185362D01*
X0143963Y0185330D01*
X0143901Y0185295D01*
X0143841Y0185257D01*
X0143784Y0185216D01*
X0143728Y0185171D01*
X0143675Y0185124D01*
X0143625Y0185074D01*
X0143578Y0185021D01*
X0143533Y0184965D01*
X0143492Y0184908D01*
X0143454Y0184848D01*
X0143419Y0184786D01*
X0143387Y0184722D01*
X0143359Y0184657D01*
X0143335Y0184591D01*
X0143314Y0184523D01*
X0143297Y0184454D01*
X0143283Y0184384D01*
X0143274Y0184314D01*
X0143268Y0184243D01*
X0143266Y0184172D01*
X0143266Y0182861D01*
X0143268Y0182790D01*
X0143274Y0182719D01*
X0143283Y0182649D01*
X0143297Y0182579D01*
X0143314Y0182510D01*
X0143335Y0182442D01*
X0143359Y0182376D01*
X0143387Y0182311D01*
X0143419Y0182247D01*
X0143454Y0182185D01*
X0143492Y0182125D01*
X0143533Y0182068D01*
X0143578Y0182012D01*
X0143625Y0181959D01*
X0143675Y0181909D01*
X0143728Y0181862D01*
X0143784Y0181817D01*
X0143841Y0181776D01*
X0143901Y0181738D01*
X0143963Y0181703D01*
X0144027Y0181671D01*
X0144092Y0181643D01*
X0144158Y0181619D01*
X0144226Y0181598D01*
X0144295Y0181581D01*
X0144365Y0181567D01*
X0144435Y0181558D01*
X0144506Y0181552D01*
X0144577Y0181550D01*
X0144648Y0181552D01*
X0144719Y0181558D01*
X0144789Y0181567D01*
X0144859Y0181581D01*
X0144928Y0181598D01*
X0144996Y0181619D01*
X0145062Y0181643D01*
X0145127Y0181671D01*
X0145191Y0181703D01*
X0145253Y0181738D01*
X0145313Y0181776D01*
X0145370Y0181817D01*
X0145426Y0181862D01*
X0145479Y0181909D01*
X0145529Y0181959D01*
X0145576Y0182012D01*
X0145621Y0182068D01*
X0145662Y0182125D01*
X0145700Y0182185D01*
X0145735Y0182247D01*
X0145767Y0182311D01*
X0145795Y0182376D01*
X0145819Y0182442D01*
X0145840Y0182510D01*
X0145857Y0182579D01*
X0145871Y0182649D01*
X0145880Y0182719D01*
X0145886Y0182790D01*
X0145888Y0182861D01*
X0139163Y0181550D02*
X0139242Y0181552D01*
X0139321Y0181558D01*
X0139400Y0181567D01*
X0139478Y0181581D01*
X0139555Y0181598D01*
X0139632Y0181618D01*
X0139707Y0181643D01*
X0139781Y0181671D01*
X0139854Y0181703D01*
X0139925Y0181738D01*
X0139994Y0181776D01*
X0140061Y0181818D01*
X0140126Y0181863D01*
X0140189Y0181911D01*
X0140250Y0181962D01*
X0140308Y0182016D01*
X0140363Y0182073D01*
X0140416Y0182132D01*
X0140465Y0182194D01*
X0140512Y0182258D01*
X0140555Y0182324D01*
X0140595Y0182392D01*
X0140632Y0182463D01*
X0140666Y0182534D01*
X0140695Y0182608D01*
X0140722Y0182683D01*
X0140744Y0182758D01*
X0140763Y0182835D01*
X0140779Y0182913D01*
X0140790Y0182991D01*
X0140798Y0183070D01*
X0140802Y0183149D01*
X0140802Y0183229D01*
X0140798Y0183308D01*
X0140790Y0183387D01*
X0140779Y0183465D01*
X0140763Y0183543D01*
X0140744Y0183620D01*
X0140722Y0183695D01*
X0140695Y0183770D01*
X0140666Y0183844D01*
X0140632Y0183915D01*
X0140595Y0183986D01*
X0140555Y0184054D01*
X0140512Y0184120D01*
X0140465Y0184184D01*
X0140416Y0184246D01*
X0140363Y0184305D01*
X0140308Y0184362D01*
X0140250Y0184416D01*
X0140189Y0184467D01*
X0140126Y0184515D01*
X0140061Y0184560D01*
X0139994Y0184602D01*
X0139925Y0184640D01*
X0139854Y0184675D01*
X0139781Y0184707D01*
X0139707Y0184735D01*
X0139632Y0184760D01*
X0139555Y0184780D01*
X0139478Y0184797D01*
X0139400Y0184811D01*
X0139321Y0184820D01*
X0139242Y0184826D01*
X0139163Y0184828D01*
X0137524Y0184828D01*
X0139163Y0184828D02*
X0139234Y0184830D01*
X0139305Y0184836D01*
X0139375Y0184845D01*
X0139445Y0184859D01*
X0139514Y0184876D01*
X0139582Y0184897D01*
X0139648Y0184921D01*
X0139713Y0184949D01*
X0139777Y0184981D01*
X0139839Y0185016D01*
X0139899Y0185054D01*
X0139956Y0185095D01*
X0140012Y0185140D01*
X0140065Y0185187D01*
X0140115Y0185237D01*
X0140162Y0185290D01*
X0140207Y0185346D01*
X0140248Y0185403D01*
X0140286Y0185463D01*
X0140321Y0185525D01*
X0140353Y0185589D01*
X0140381Y0185654D01*
X0140405Y0185720D01*
X0140426Y0185788D01*
X0140443Y0185857D01*
X0140457Y0185927D01*
X0140466Y0185997D01*
X0140472Y0186068D01*
X0140474Y0186139D01*
X0140472Y0186210D01*
X0140466Y0186281D01*
X0140457Y0186351D01*
X0140443Y0186421D01*
X0140426Y0186490D01*
X0140405Y0186558D01*
X0140381Y0186624D01*
X0140353Y0186689D01*
X0140321Y0186753D01*
X0140286Y0186815D01*
X0140248Y0186875D01*
X0140207Y0186932D01*
X0140162Y0186988D01*
X0140115Y0187041D01*
X0140065Y0187091D01*
X0140012Y0187138D01*
X0139956Y0187183D01*
X0139899Y0187224D01*
X0139839Y0187262D01*
X0139777Y0187297D01*
X0139713Y0187329D01*
X0139648Y0187357D01*
X0139582Y0187381D01*
X0139514Y0187402D01*
X0139445Y0187419D01*
X0139375Y0187433D01*
X0139305Y0187442D01*
X0139234Y0187448D01*
X0139163Y0187450D01*
X0137524Y0187450D01*
X0137524Y0181550D01*
X0139163Y0181550D01*
X0130626Y0183189D02*
X0128988Y0183844D01*
X0128987Y0183845D02*
X0128935Y0183868D01*
X0128884Y0183895D01*
X0128835Y0183925D01*
X0128788Y0183958D01*
X0128743Y0183994D01*
X0128701Y0184034D01*
X0128662Y0184076D01*
X0128626Y0184120D01*
X0128593Y0184167D01*
X0128563Y0184217D01*
X0128536Y0184268D01*
X0128513Y0184320D01*
X0128494Y0184374D01*
X0128478Y0184430D01*
X0128466Y0184486D01*
X0128458Y0184543D01*
X0128454Y0184600D01*
X0128453Y0184658D01*
X0128457Y0184715D01*
X0128464Y0184772D01*
X0128476Y0184829D01*
X0128491Y0184884D01*
X0128509Y0184939D01*
X0128532Y0184992D01*
X0128558Y0185043D01*
X0128587Y0185092D01*
X0128620Y0185140D01*
X0128656Y0185185D01*
X0128694Y0185227D01*
X0128736Y0185267D01*
X0128780Y0185304D01*
X0128827Y0185338D01*
X0128875Y0185369D01*
X0128926Y0185396D01*
X0128978Y0185420D01*
X0129032Y0185440D01*
X0129087Y0185456D01*
X0129143Y0185469D01*
X0129200Y0185478D01*
X0129258Y0185483D01*
X0129315Y0185484D01*
X0128496Y0181878D02*
X0128630Y0181832D01*
X0128765Y0181789D01*
X0128901Y0181750D01*
X0129038Y0181714D01*
X0129175Y0181682D01*
X0129314Y0181653D01*
X0129453Y0181627D01*
X0129593Y0181606D01*
X0129734Y0181587D01*
X0129874Y0181573D01*
X0130016Y0181562D01*
X0130157Y0181554D01*
X0130299Y0181551D01*
X0130299Y0181550D02*
X0130356Y0181551D01*
X0130414Y0181556D01*
X0130471Y0181565D01*
X0130527Y0181578D01*
X0130582Y0181594D01*
X0130636Y0181614D01*
X0130688Y0181638D01*
X0130739Y0181665D01*
X0130787Y0181696D01*
X0130834Y0181730D01*
X0130878Y0181767D01*
X0130920Y0181807D01*
X0130958Y0181849D01*
X0130994Y0181894D01*
X0131027Y0181942D01*
X0131056Y0181991D01*
X0131082Y0182042D01*
X0131105Y0182095D01*
X0131123Y0182150D01*
X0131138Y0182205D01*
X0131150Y0182262D01*
X0131157Y0182319D01*
X0131161Y0182376D01*
X0131160Y0182434D01*
X0131156Y0182491D01*
X0131148Y0182548D01*
X0131136Y0182604D01*
X0131120Y0182660D01*
X0131101Y0182714D01*
X0131078Y0182766D01*
X0131051Y0182817D01*
X0131021Y0182867D01*
X0130988Y0182914D01*
X0130952Y0182958D01*
X0130913Y0183000D01*
X0130871Y0183040D01*
X0130826Y0183076D01*
X0130779Y0183109D01*
X0130730Y0183139D01*
X0130679Y0183166D01*
X0130627Y0183189D01*
X0130790Y0185155D02*
X0130683Y0185201D01*
X0130574Y0185244D01*
X0130464Y0185284D01*
X0130352Y0185320D01*
X0130240Y0185352D01*
X0130126Y0185381D01*
X0130012Y0185407D01*
X0129897Y0185428D01*
X0129782Y0185447D01*
X0129665Y0185461D01*
X0129549Y0185472D01*
X0129432Y0185479D01*
X0129315Y0185483D01*
X0125580Y0184500D02*
X0125580Y0181550D01*
X0122957Y0181550D02*
X0122957Y0185483D01*
X0124596Y0185483D01*
X0124658Y0185481D01*
X0124719Y0185475D01*
X0124780Y0185466D01*
X0124840Y0185452D01*
X0124900Y0185435D01*
X0124958Y0185414D01*
X0125015Y0185389D01*
X0125070Y0185361D01*
X0125123Y0185330D01*
X0125174Y0185295D01*
X0125223Y0185257D01*
X0125269Y0185217D01*
X0125313Y0185173D01*
X0125353Y0185127D01*
X0125391Y0185078D01*
X0125426Y0185027D01*
X0125457Y0184974D01*
X0125485Y0184919D01*
X0125510Y0184862D01*
X0125531Y0184804D01*
X0125548Y0184744D01*
X0125562Y0184684D01*
X0125571Y0184623D01*
X0125577Y0184562D01*
X0125579Y0184500D01*
X0120041Y0184172D02*
X0120041Y0182861D01*
X0120039Y0182790D01*
X0120033Y0182719D01*
X0120024Y0182649D01*
X0120010Y0182579D01*
X0119993Y0182510D01*
X0119972Y0182442D01*
X0119948Y0182376D01*
X0119920Y0182311D01*
X0119888Y0182247D01*
X0119853Y0182185D01*
X0119815Y0182125D01*
X0119774Y0182068D01*
X0119729Y0182012D01*
X0119682Y0181959D01*
X0119632Y0181909D01*
X0119579Y0181862D01*
X0119523Y0181817D01*
X0119466Y0181776D01*
X0119406Y0181738D01*
X0119344Y0181703D01*
X0119280Y0181671D01*
X0119215Y0181643D01*
X0119149Y0181619D01*
X0119081Y0181598D01*
X0119012Y0181581D01*
X0118942Y0181567D01*
X0118872Y0181558D01*
X0118801Y0181552D01*
X0118730Y0181550D01*
X0118659Y0181552D01*
X0118588Y0181558D01*
X0118518Y0181567D01*
X0118448Y0181581D01*
X0118379Y0181598D01*
X0118311Y0181619D01*
X0118245Y0181643D01*
X0118180Y0181671D01*
X0118116Y0181703D01*
X0118054Y0181738D01*
X0117994Y0181776D01*
X0117937Y0181817D01*
X0117881Y0181862D01*
X0117828Y0181909D01*
X0117778Y0181959D01*
X0117731Y0182012D01*
X0117686Y0182068D01*
X0117645Y0182125D01*
X0117607Y0182185D01*
X0117572Y0182247D01*
X0117540Y0182311D01*
X0117512Y0182376D01*
X0117488Y0182442D01*
X0117467Y0182510D01*
X0117450Y0182579D01*
X0117436Y0182649D01*
X0117427Y0182719D01*
X0117421Y0182790D01*
X0117419Y0182861D01*
X0117419Y0184172D01*
X0117421Y0184243D01*
X0117427Y0184314D01*
X0117436Y0184384D01*
X0117450Y0184454D01*
X0117467Y0184523D01*
X0117488Y0184591D01*
X0117512Y0184657D01*
X0117540Y0184722D01*
X0117572Y0184786D01*
X0117607Y0184848D01*
X0117645Y0184908D01*
X0117686Y0184965D01*
X0117731Y0185021D01*
X0117778Y0185074D01*
X0117828Y0185124D01*
X0117881Y0185171D01*
X0117937Y0185216D01*
X0117994Y0185257D01*
X0118054Y0185295D01*
X0118116Y0185330D01*
X0118180Y0185362D01*
X0118245Y0185390D01*
X0118311Y0185414D01*
X0118379Y0185435D01*
X0118448Y0185452D01*
X0118518Y0185466D01*
X0118588Y0185475D01*
X0118659Y0185481D01*
X0118730Y0185483D01*
X0118801Y0185481D01*
X0118872Y0185475D01*
X0118942Y0185466D01*
X0119012Y0185452D01*
X0119081Y0185435D01*
X0119149Y0185414D01*
X0119215Y0185390D01*
X0119280Y0185362D01*
X0119344Y0185330D01*
X0119406Y0185295D01*
X0119466Y0185257D01*
X0119523Y0185216D01*
X0119579Y0185171D01*
X0119632Y0185124D01*
X0119682Y0185074D01*
X0119729Y0185021D01*
X0119774Y0184965D01*
X0119815Y0184908D01*
X0119853Y0184848D01*
X0119888Y0184786D01*
X0119920Y0184722D01*
X0119948Y0184657D01*
X0119972Y0184591D01*
X0119993Y0184523D01*
X0120010Y0184454D01*
X0120024Y0184384D01*
X0120033Y0184314D01*
X0120039Y0184243D01*
X0120041Y0184172D01*
X0114832Y0185483D02*
X0114832Y0181550D01*
X0112464Y0181550D02*
X0112137Y0181550D01*
X0112075Y0181552D01*
X0112014Y0181558D01*
X0111953Y0181567D01*
X0111893Y0181581D01*
X0111833Y0181598D01*
X0111775Y0181619D01*
X0111718Y0181644D01*
X0111663Y0181672D01*
X0111610Y0181703D01*
X0111559Y0181738D01*
X0111510Y0181776D01*
X0111464Y0181816D01*
X0111420Y0181860D01*
X0111380Y0181906D01*
X0111342Y0181955D01*
X0111307Y0182006D01*
X0111276Y0182059D01*
X0111248Y0182114D01*
X0111223Y0182171D01*
X0111202Y0182229D01*
X0111185Y0182289D01*
X0111171Y0182349D01*
X0111162Y0182410D01*
X0111156Y0182471D01*
X0111154Y0182533D01*
X0111153Y0182533D02*
X0111153Y0187450D01*
X0110498Y0185483D02*
X0112464Y0185483D01*
X0114668Y0187122D02*
X0114996Y0187122D01*
X0114996Y0187450D01*
X0114668Y0187450D01*
X0114668Y0187122D01*
X0108100Y0184500D02*
X0108100Y0181550D01*
X0106625Y0181550D01*
X0106558Y0181552D01*
X0106492Y0181558D01*
X0106426Y0181567D01*
X0106360Y0181581D01*
X0106296Y0181598D01*
X0106233Y0181619D01*
X0106171Y0181644D01*
X0106110Y0181672D01*
X0106052Y0181704D01*
X0105995Y0181739D01*
X0105940Y0181777D01*
X0105888Y0181818D01*
X0105838Y0181863D01*
X0105791Y0181910D01*
X0105746Y0181960D01*
X0105705Y0182012D01*
X0105667Y0182067D01*
X0105632Y0182124D01*
X0105600Y0182182D01*
X0105572Y0182243D01*
X0105547Y0182305D01*
X0105526Y0182368D01*
X0105509Y0182432D01*
X0105495Y0182498D01*
X0105486Y0182564D01*
X0105480Y0182630D01*
X0105478Y0182697D01*
X0105480Y0182764D01*
X0105486Y0182830D01*
X0105495Y0182896D01*
X0105509Y0182962D01*
X0105526Y0183026D01*
X0105547Y0183089D01*
X0105572Y0183151D01*
X0105600Y0183212D01*
X0105632Y0183271D01*
X0105667Y0183327D01*
X0105705Y0183382D01*
X0105746Y0183434D01*
X0105791Y0183484D01*
X0105838Y0183531D01*
X0105888Y0183576D01*
X0105940Y0183617D01*
X0105995Y0183655D01*
X0106052Y0183690D01*
X0106110Y0183722D01*
X0106171Y0183750D01*
X0106233Y0183775D01*
X0106296Y0183796D01*
X0106360Y0183813D01*
X0106426Y0183827D01*
X0106492Y0183836D01*
X0106558Y0183842D01*
X0106625Y0183844D01*
X0108100Y0183844D01*
X0108099Y0184500D02*
X0108097Y0184562D01*
X0108091Y0184623D01*
X0108082Y0184684D01*
X0108068Y0184744D01*
X0108051Y0184804D01*
X0108030Y0184862D01*
X0108005Y0184919D01*
X0107977Y0184974D01*
X0107946Y0185027D01*
X0107911Y0185078D01*
X0107873Y0185127D01*
X0107833Y0185173D01*
X0107789Y0185217D01*
X0107743Y0185257D01*
X0107694Y0185295D01*
X0107643Y0185330D01*
X0107590Y0185361D01*
X0107535Y0185389D01*
X0107478Y0185414D01*
X0107420Y0185435D01*
X0107360Y0185452D01*
X0107300Y0185466D01*
X0107239Y0185475D01*
X0107178Y0185481D01*
X0107116Y0185483D01*
X0105805Y0185483D01*
X0103108Y0185483D02*
X0101797Y0185483D01*
X0101735Y0185481D01*
X0101674Y0185475D01*
X0101613Y0185466D01*
X0101553Y0185452D01*
X0101493Y0185435D01*
X0101435Y0185414D01*
X0101378Y0185389D01*
X0101323Y0185361D01*
X0101270Y0185330D01*
X0101219Y0185295D01*
X0101170Y0185257D01*
X0101124Y0185217D01*
X0101080Y0185173D01*
X0101040Y0185127D01*
X0101002Y0185078D01*
X0100967Y0185027D01*
X0100936Y0184974D01*
X0100908Y0184919D01*
X0100883Y0184862D01*
X0100862Y0184804D01*
X0100845Y0184744D01*
X0100831Y0184684D01*
X0100822Y0184623D01*
X0100816Y0184562D01*
X0100814Y0184500D01*
X0100813Y0184500D02*
X0100813Y0182533D01*
X0100814Y0182533D02*
X0100816Y0182471D01*
X0100822Y0182410D01*
X0100831Y0182349D01*
X0100845Y0182289D01*
X0100862Y0182229D01*
X0100883Y0182171D01*
X0100908Y0182114D01*
X0100936Y0182059D01*
X0100967Y0182006D01*
X0101002Y0181955D01*
X0101040Y0181906D01*
X0101080Y0181860D01*
X0101124Y0181816D01*
X0101170Y0181776D01*
X0101219Y0181738D01*
X0101270Y0181703D01*
X0101323Y0181672D01*
X0101378Y0181644D01*
X0101435Y0181619D01*
X0101493Y0181598D01*
X0101553Y0181581D01*
X0101613Y0181567D01*
X0101674Y0181558D01*
X0101735Y0181552D01*
X0101797Y0181550D01*
X0103108Y0181550D01*
X0098216Y0181550D02*
X0098216Y0185483D01*
X0098380Y0187122D02*
X0098053Y0187122D01*
X0098053Y0187450D01*
X0098380Y0187450D01*
X0098380Y0187122D01*
X0095425Y0184500D02*
X0095425Y0181550D01*
X0092803Y0181550D02*
X0092803Y0185483D01*
X0094441Y0185483D01*
X0094503Y0185481D01*
X0094564Y0185475D01*
X0094625Y0185466D01*
X0094685Y0185452D01*
X0094745Y0185435D01*
X0094803Y0185414D01*
X0094860Y0185389D01*
X0094915Y0185361D01*
X0094968Y0185330D01*
X0095019Y0185295D01*
X0095068Y0185257D01*
X0095114Y0185217D01*
X0095158Y0185173D01*
X0095198Y0185127D01*
X0095236Y0185078D01*
X0095271Y0185027D01*
X0095302Y0184974D01*
X0095330Y0184919D01*
X0095355Y0184862D01*
X0095376Y0184804D01*
X0095393Y0184744D01*
X0095407Y0184684D01*
X0095416Y0184623D01*
X0095422Y0184562D01*
X0095424Y0184500D01*
X0089681Y0185483D02*
X0089681Y0181550D01*
X0088042Y0181550D01*
X0087980Y0181552D01*
X0087919Y0181558D01*
X0087858Y0181567D01*
X0087798Y0181581D01*
X0087738Y0181598D01*
X0087680Y0181619D01*
X0087623Y0181644D01*
X0087568Y0181672D01*
X0087515Y0181703D01*
X0087464Y0181738D01*
X0087415Y0181776D01*
X0087369Y0181816D01*
X0087325Y0181860D01*
X0087285Y0181906D01*
X0087247Y0181955D01*
X0087212Y0182006D01*
X0087181Y0182059D01*
X0087153Y0182114D01*
X0087128Y0182171D01*
X0087107Y0182229D01*
X0087090Y0182289D01*
X0087076Y0182349D01*
X0087067Y0182410D01*
X0087061Y0182471D01*
X0087059Y0182533D01*
X0087059Y0185483D01*
X0083772Y0184500D02*
X0083772Y0181550D01*
X0081806Y0181550D02*
X0081806Y0185483D01*
X0082789Y0185483D02*
X0079839Y0185483D01*
X0079839Y0181550D01*
X0076388Y0181550D02*
X0076388Y0184500D01*
X0076387Y0184500D02*
X0076385Y0184562D01*
X0076379Y0184623D01*
X0076370Y0184684D01*
X0076356Y0184744D01*
X0076339Y0184804D01*
X0076318Y0184862D01*
X0076293Y0184919D01*
X0076265Y0184974D01*
X0076234Y0185027D01*
X0076199Y0185078D01*
X0076161Y0185127D01*
X0076121Y0185173D01*
X0076077Y0185217D01*
X0076031Y0185257D01*
X0075982Y0185295D01*
X0075931Y0185330D01*
X0075878Y0185361D01*
X0075823Y0185389D01*
X0075766Y0185414D01*
X0075708Y0185435D01*
X0075648Y0185452D01*
X0075588Y0185466D01*
X0075527Y0185475D01*
X0075466Y0185481D01*
X0075404Y0185483D01*
X0072454Y0185483D01*
X0072454Y0181550D01*
X0074421Y0181550D02*
X0074421Y0185483D01*
X0069373Y0184172D02*
X0069373Y0182861D01*
X0069371Y0182790D01*
X0069365Y0182719D01*
X0069356Y0182649D01*
X0069342Y0182579D01*
X0069325Y0182510D01*
X0069304Y0182442D01*
X0069280Y0182376D01*
X0069252Y0182311D01*
X0069220Y0182247D01*
X0069185Y0182185D01*
X0069147Y0182125D01*
X0069106Y0182068D01*
X0069061Y0182012D01*
X0069014Y0181959D01*
X0068964Y0181909D01*
X0068911Y0181862D01*
X0068855Y0181817D01*
X0068798Y0181776D01*
X0068738Y0181738D01*
X0068676Y0181703D01*
X0068612Y0181671D01*
X0068547Y0181643D01*
X0068481Y0181619D01*
X0068413Y0181598D01*
X0068344Y0181581D01*
X0068274Y0181567D01*
X0068204Y0181558D01*
X0068133Y0181552D01*
X0068062Y0181550D01*
X0067991Y0181552D01*
X0067920Y0181558D01*
X0067850Y0181567D01*
X0067780Y0181581D01*
X0067711Y0181598D01*
X0067643Y0181619D01*
X0067577Y0181643D01*
X0067512Y0181671D01*
X0067448Y0181703D01*
X0067386Y0181738D01*
X0067326Y0181776D01*
X0067269Y0181817D01*
X0067213Y0181862D01*
X0067160Y0181909D01*
X0067110Y0181959D01*
X0067063Y0182012D01*
X0067018Y0182068D01*
X0066977Y0182125D01*
X0066939Y0182185D01*
X0066904Y0182247D01*
X0066872Y0182311D01*
X0066844Y0182376D01*
X0066820Y0182442D01*
X0066799Y0182510D01*
X0066782Y0182579D01*
X0066768Y0182649D01*
X0066759Y0182719D01*
X0066753Y0182790D01*
X0066751Y0182861D01*
X0066751Y0184172D01*
X0066753Y0184243D01*
X0066759Y0184314D01*
X0066768Y0184384D01*
X0066782Y0184454D01*
X0066799Y0184523D01*
X0066820Y0184591D01*
X0066844Y0184657D01*
X0066872Y0184722D01*
X0066904Y0184786D01*
X0066939Y0184848D01*
X0066977Y0184908D01*
X0067018Y0184965D01*
X0067063Y0185021D01*
X0067110Y0185074D01*
X0067160Y0185124D01*
X0067213Y0185171D01*
X0067269Y0185216D01*
X0067326Y0185257D01*
X0067386Y0185295D01*
X0067448Y0185330D01*
X0067512Y0185362D01*
X0067577Y0185390D01*
X0067643Y0185414D01*
X0067711Y0185435D01*
X0067780Y0185452D01*
X0067850Y0185466D01*
X0067920Y0185475D01*
X0067991Y0185481D01*
X0068062Y0185483D01*
X0068133Y0185481D01*
X0068204Y0185475D01*
X0068274Y0185466D01*
X0068344Y0185452D01*
X0068413Y0185435D01*
X0068481Y0185414D01*
X0068547Y0185390D01*
X0068612Y0185362D01*
X0068676Y0185330D01*
X0068738Y0185295D01*
X0068798Y0185257D01*
X0068855Y0185216D01*
X0068911Y0185171D01*
X0068964Y0185124D01*
X0069014Y0185074D01*
X0069061Y0185021D01*
X0069106Y0184965D01*
X0069147Y0184908D01*
X0069185Y0184848D01*
X0069220Y0184786D01*
X0069252Y0184722D01*
X0069280Y0184657D01*
X0069304Y0184591D01*
X0069325Y0184523D01*
X0069342Y0184454D01*
X0069356Y0184384D01*
X0069365Y0184314D01*
X0069371Y0184243D01*
X0069373Y0184172D01*
X0064303Y0181550D02*
X0062992Y0181550D01*
X0062921Y0181552D01*
X0062850Y0181558D01*
X0062780Y0181567D01*
X0062710Y0181581D01*
X0062641Y0181598D01*
X0062573Y0181619D01*
X0062507Y0181643D01*
X0062442Y0181671D01*
X0062378Y0181703D01*
X0062316Y0181738D01*
X0062256Y0181776D01*
X0062199Y0181817D01*
X0062143Y0181862D01*
X0062090Y0181909D01*
X0062040Y0181959D01*
X0061993Y0182012D01*
X0061948Y0182068D01*
X0061907Y0182125D01*
X0061869Y0182185D01*
X0061834Y0182247D01*
X0061802Y0182311D01*
X0061774Y0182376D01*
X0061750Y0182442D01*
X0061729Y0182510D01*
X0061712Y0182579D01*
X0061698Y0182649D01*
X0061689Y0182719D01*
X0061683Y0182790D01*
X0061681Y0182861D01*
X0061681Y0186139D01*
X0061683Y0186210D01*
X0061689Y0186281D01*
X0061698Y0186351D01*
X0061712Y0186421D01*
X0061729Y0186490D01*
X0061750Y0186558D01*
X0061774Y0186624D01*
X0061802Y0186689D01*
X0061834Y0186753D01*
X0061869Y0186815D01*
X0061907Y0186875D01*
X0061948Y0186932D01*
X0061993Y0186988D01*
X0062040Y0187041D01*
X0062090Y0187091D01*
X0062143Y0187138D01*
X0062199Y0187183D01*
X0062256Y0187224D01*
X0062316Y0187262D01*
X0062378Y0187297D01*
X0062442Y0187329D01*
X0062507Y0187357D01*
X0062573Y0187381D01*
X0062641Y0187402D01*
X0062710Y0187419D01*
X0062780Y0187433D01*
X0062850Y0187442D01*
X0062921Y0187448D01*
X0062992Y0187450D01*
X0064303Y0187450D01*
X0056254Y0185483D02*
X0056254Y0184828D01*
X0056254Y0185483D02*
X0054288Y0185483D01*
X0054288Y0181550D01*
X0051072Y0181550D02*
X0051072Y0184500D01*
X0051072Y0183844D02*
X0049597Y0183844D01*
X0051072Y0184500D02*
X0051070Y0184562D01*
X0051064Y0184623D01*
X0051055Y0184684D01*
X0051041Y0184744D01*
X0051024Y0184804D01*
X0051003Y0184862D01*
X0050978Y0184919D01*
X0050950Y0184974D01*
X0050919Y0185027D01*
X0050884Y0185078D01*
X0050846Y0185127D01*
X0050806Y0185173D01*
X0050762Y0185217D01*
X0050716Y0185257D01*
X0050667Y0185295D01*
X0050616Y0185330D01*
X0050563Y0185361D01*
X0050508Y0185389D01*
X0050451Y0185414D01*
X0050393Y0185435D01*
X0050333Y0185452D01*
X0050273Y0185466D01*
X0050212Y0185475D01*
X0050151Y0185481D01*
X0050089Y0185483D01*
X0048778Y0185483D01*
X0049597Y0183844D02*
X0049530Y0183842D01*
X0049464Y0183836D01*
X0049398Y0183827D01*
X0049332Y0183813D01*
X0049268Y0183796D01*
X0049205Y0183775D01*
X0049143Y0183750D01*
X0049082Y0183722D01*
X0049024Y0183690D01*
X0048967Y0183655D01*
X0048912Y0183617D01*
X0048860Y0183576D01*
X0048810Y0183531D01*
X0048763Y0183484D01*
X0048718Y0183434D01*
X0048677Y0183382D01*
X0048639Y0183327D01*
X0048604Y0183271D01*
X0048572Y0183212D01*
X0048544Y0183151D01*
X0048519Y0183089D01*
X0048498Y0183026D01*
X0048481Y0182962D01*
X0048467Y0182896D01*
X0048458Y0182830D01*
X0048452Y0182764D01*
X0048450Y0182697D01*
X0048452Y0182630D01*
X0048458Y0182564D01*
X0048467Y0182498D01*
X0048481Y0182432D01*
X0048498Y0182368D01*
X0048519Y0182305D01*
X0048544Y0182243D01*
X0048572Y0182182D01*
X0048604Y0182124D01*
X0048639Y0182067D01*
X0048677Y0182012D01*
X0048718Y0181960D01*
X0048763Y0181910D01*
X0048810Y0181863D01*
X0048860Y0181818D01*
X0048912Y0181777D01*
X0048967Y0181739D01*
X0049023Y0181704D01*
X0049082Y0181672D01*
X0049143Y0181644D01*
X0049205Y0181619D01*
X0049268Y0181598D01*
X0049332Y0181581D01*
X0049398Y0181567D01*
X0049464Y0181558D01*
X0049530Y0181552D01*
X0049597Y0181550D01*
X0051072Y0181550D01*
X0045577Y0181550D02*
X0045577Y0184500D01*
X0045575Y0184562D01*
X0045569Y0184623D01*
X0045560Y0184684D01*
X0045546Y0184744D01*
X0045529Y0184804D01*
X0045508Y0184862D01*
X0045483Y0184919D01*
X0045455Y0184974D01*
X0045424Y0185027D01*
X0045389Y0185078D01*
X0045351Y0185127D01*
X0045311Y0185173D01*
X0045267Y0185217D01*
X0045221Y0185257D01*
X0045172Y0185295D01*
X0045121Y0185330D01*
X0045068Y0185361D01*
X0045013Y0185389D01*
X0044956Y0185414D01*
X0044898Y0185435D01*
X0044838Y0185452D01*
X0044778Y0185466D01*
X0044717Y0185475D01*
X0044656Y0185481D01*
X0044594Y0185483D01*
X0042955Y0185483D01*
X0042955Y0181550D01*
X0040039Y0182861D02*
X0040039Y0184172D01*
X0040037Y0184243D01*
X0040031Y0184314D01*
X0040022Y0184384D01*
X0040008Y0184454D01*
X0039991Y0184523D01*
X0039970Y0184591D01*
X0039946Y0184657D01*
X0039918Y0184722D01*
X0039886Y0184786D01*
X0039851Y0184848D01*
X0039813Y0184908D01*
X0039772Y0184965D01*
X0039727Y0185021D01*
X0039680Y0185074D01*
X0039630Y0185124D01*
X0039577Y0185171D01*
X0039521Y0185216D01*
X0039464Y0185257D01*
X0039404Y0185295D01*
X0039342Y0185330D01*
X0039278Y0185362D01*
X0039213Y0185390D01*
X0039147Y0185414D01*
X0039079Y0185435D01*
X0039010Y0185452D01*
X0038940Y0185466D01*
X0038870Y0185475D01*
X0038799Y0185481D01*
X0038728Y0185483D01*
X0038657Y0185481D01*
X0038586Y0185475D01*
X0038516Y0185466D01*
X0038446Y0185452D01*
X0038377Y0185435D01*
X0038309Y0185414D01*
X0038243Y0185390D01*
X0038178Y0185362D01*
X0038114Y0185330D01*
X0038052Y0185295D01*
X0037992Y0185257D01*
X0037935Y0185216D01*
X0037879Y0185171D01*
X0037826Y0185124D01*
X0037776Y0185074D01*
X0037729Y0185021D01*
X0037684Y0184965D01*
X0037643Y0184908D01*
X0037605Y0184848D01*
X0037570Y0184786D01*
X0037538Y0184722D01*
X0037510Y0184657D01*
X0037486Y0184591D01*
X0037465Y0184523D01*
X0037448Y0184454D01*
X0037434Y0184384D01*
X0037425Y0184314D01*
X0037419Y0184243D01*
X0037417Y0184172D01*
X0037416Y0184172D02*
X0037416Y0182861D01*
X0037417Y0182861D02*
X0037419Y0182790D01*
X0037425Y0182719D01*
X0037434Y0182649D01*
X0037448Y0182579D01*
X0037465Y0182510D01*
X0037486Y0182442D01*
X0037510Y0182376D01*
X0037538Y0182311D01*
X0037570Y0182247D01*
X0037605Y0182185D01*
X0037643Y0182125D01*
X0037684Y0182068D01*
X0037729Y0182012D01*
X0037776Y0181959D01*
X0037826Y0181909D01*
X0037879Y0181862D01*
X0037935Y0181817D01*
X0037992Y0181776D01*
X0038052Y0181738D01*
X0038114Y0181703D01*
X0038178Y0181671D01*
X0038243Y0181643D01*
X0038309Y0181619D01*
X0038377Y0181598D01*
X0038446Y0181581D01*
X0038516Y0181567D01*
X0038586Y0181558D01*
X0038657Y0181552D01*
X0038728Y0181550D01*
X0038799Y0181552D01*
X0038870Y0181558D01*
X0038940Y0181567D01*
X0039010Y0181581D01*
X0039079Y0181598D01*
X0039147Y0181619D01*
X0039213Y0181643D01*
X0039278Y0181671D01*
X0039342Y0181703D01*
X0039404Y0181738D01*
X0039464Y0181776D01*
X0039521Y0181817D01*
X0039577Y0181862D01*
X0039630Y0181909D01*
X0039680Y0181959D01*
X0039727Y0182012D01*
X0039772Y0182068D01*
X0039813Y0182125D01*
X0039851Y0182185D01*
X0039886Y0182247D01*
X0039918Y0182311D01*
X0039946Y0182376D01*
X0039970Y0182442D01*
X0039991Y0182510D01*
X0040008Y0182579D01*
X0040022Y0182649D01*
X0040031Y0182719D01*
X0040037Y0182790D01*
X0040039Y0182861D01*
X0034172Y0184008D02*
X0032369Y0184992D01*
X0033025Y0187450D02*
X0033124Y0187448D01*
X0033223Y0187442D01*
X0033321Y0187432D01*
X0033419Y0187418D01*
X0033516Y0187400D01*
X0033612Y0187379D01*
X0033708Y0187353D01*
X0033802Y0187324D01*
X0033895Y0187291D01*
X0033987Y0187254D01*
X0034077Y0187213D01*
X0034166Y0187169D01*
X0034252Y0187122D01*
X0034337Y0187071D01*
X0034420Y0187016D01*
X0034500Y0186958D01*
X0032369Y0184991D02*
X0032310Y0185028D01*
X0032253Y0185068D01*
X0032199Y0185110D01*
X0032147Y0185155D01*
X0032097Y0185203D01*
X0032050Y0185254D01*
X0032005Y0185307D01*
X0031963Y0185362D01*
X0031924Y0185419D01*
X0031889Y0185478D01*
X0031856Y0185539D01*
X0031826Y0185602D01*
X0031800Y0185666D01*
X0031777Y0185731D01*
X0031758Y0185797D01*
X0031742Y0185864D01*
X0031729Y0185932D01*
X0031720Y0186001D01*
X0031715Y0186070D01*
X0031713Y0186139D01*
X0031714Y0186139D02*
X0031716Y0186210D01*
X0031722Y0186281D01*
X0031731Y0186351D01*
X0031745Y0186421D01*
X0031762Y0186490D01*
X0031783Y0186558D01*
X0031807Y0186624D01*
X0031835Y0186689D01*
X0031867Y0186753D01*
X0031902Y0186815D01*
X0031940Y0186875D01*
X0031981Y0186932D01*
X0032026Y0186988D01*
X0032073Y0187041D01*
X0032123Y0187091D01*
X0032176Y0187138D01*
X0032232Y0187183D01*
X0032289Y0187224D01*
X0032349Y0187262D01*
X0032411Y0187297D01*
X0032475Y0187329D01*
X0032540Y0187357D01*
X0032606Y0187381D01*
X0032674Y0187402D01*
X0032743Y0187419D01*
X0032813Y0187433D01*
X0032883Y0187442D01*
X0032954Y0187448D01*
X0033025Y0187450D01*
X0031550Y0182370D02*
X0031625Y0182297D01*
X0031702Y0182227D01*
X0031782Y0182161D01*
X0031865Y0182097D01*
X0031949Y0182036D01*
X0032036Y0181979D01*
X0032125Y0181925D01*
X0032216Y0181874D01*
X0032309Y0181827D01*
X0032404Y0181784D01*
X0032500Y0181744D01*
X0032597Y0181707D01*
X0032696Y0181674D01*
X0032796Y0181645D01*
X0032897Y0181620D01*
X0032999Y0181599D01*
X0033102Y0181581D01*
X0033205Y0181568D01*
X0033309Y0181558D01*
X0033413Y0181552D01*
X0033517Y0181550D01*
X0033588Y0181552D01*
X0033659Y0181558D01*
X0033729Y0181567D01*
X0033799Y0181581D01*
X0033868Y0181598D01*
X0033936Y0181619D01*
X0034002Y0181643D01*
X0034067Y0181671D01*
X0034131Y0181703D01*
X0034193Y0181738D01*
X0034253Y0181776D01*
X0034310Y0181817D01*
X0034366Y0181862D01*
X0034419Y0181909D01*
X0034469Y0181959D01*
X0034516Y0182012D01*
X0034561Y0182068D01*
X0034602Y0182125D01*
X0034640Y0182185D01*
X0034675Y0182247D01*
X0034707Y0182311D01*
X0034735Y0182376D01*
X0034759Y0182442D01*
X0034780Y0182510D01*
X0034797Y0182579D01*
X0034811Y0182649D01*
X0034820Y0182719D01*
X0034826Y0182790D01*
X0034828Y0182861D01*
X0034826Y0182930D01*
X0034821Y0182999D01*
X0034812Y0183068D01*
X0034799Y0183136D01*
X0034783Y0183203D01*
X0034764Y0183269D01*
X0034741Y0183334D01*
X0034715Y0183398D01*
X0034685Y0183461D01*
X0034653Y0183522D01*
X0034617Y0183581D01*
X0034578Y0183638D01*
X0034536Y0183693D01*
X0034491Y0183746D01*
X0034444Y0183797D01*
X0034394Y0183844D01*
X0034342Y0183890D01*
X0034288Y0183932D01*
X0034231Y0183972D01*
X0034172Y0184009D01*
X0082789Y0185483D02*
X0082851Y0185481D01*
X0082912Y0185475D01*
X0082973Y0185466D01*
X0083033Y0185452D01*
X0083093Y0185435D01*
X0083151Y0185414D01*
X0083208Y0185389D01*
X0083263Y0185361D01*
X0083316Y0185330D01*
X0083367Y0185295D01*
X0083416Y0185257D01*
X0083462Y0185217D01*
X0083506Y0185173D01*
X0083546Y0185127D01*
X0083584Y0185078D01*
X0083619Y0185027D01*
X0083650Y0184974D01*
X0083678Y0184919D01*
X0083703Y0184862D01*
X0083724Y0184804D01*
X0083741Y0184744D01*
X0083755Y0184684D01*
X0083764Y0184623D01*
X0083770Y0184562D01*
X0083772Y0184500D01*
X0251550Y0076139D02*
X0251550Y0072861D01*
X0251552Y0072790D01*
X0251558Y0072719D01*
X0251567Y0072649D01*
X0251581Y0072579D01*
X0251598Y0072510D01*
X0251619Y0072442D01*
X0251643Y0072376D01*
X0251671Y0072311D01*
X0251703Y0072247D01*
X0251738Y0072185D01*
X0251776Y0072125D01*
X0251817Y0072068D01*
X0251862Y0072012D01*
X0251909Y0071959D01*
X0251959Y0071909D01*
X0252012Y0071862D01*
X0252068Y0071817D01*
X0252125Y0071776D01*
X0252185Y0071738D01*
X0252247Y0071703D01*
X0252311Y0071671D01*
X0252376Y0071643D01*
X0252442Y0071619D01*
X0252510Y0071598D01*
X0252579Y0071581D01*
X0252649Y0071567D01*
X0252719Y0071558D01*
X0252790Y0071552D01*
X0252861Y0071550D01*
X0254828Y0071550D01*
X0254828Y0074828D01*
X0253844Y0074828D01*
X0251550Y0076139D02*
X0251552Y0076210D01*
X0251558Y0076281D01*
X0251567Y0076351D01*
X0251581Y0076421D01*
X0251598Y0076490D01*
X0251619Y0076558D01*
X0251643Y0076624D01*
X0251671Y0076689D01*
X0251703Y0076753D01*
X0251738Y0076815D01*
X0251776Y0076875D01*
X0251817Y0076932D01*
X0251862Y0076988D01*
X0251909Y0077041D01*
X0251959Y0077091D01*
X0252012Y0077138D01*
X0252068Y0077183D01*
X0252125Y0077224D01*
X0252185Y0077262D01*
X0252247Y0077297D01*
X0252311Y0077329D01*
X0252376Y0077357D01*
X0252442Y0077381D01*
X0252510Y0077402D01*
X0252579Y0077419D01*
X0252649Y0077433D01*
X0252719Y0077442D01*
X0252790Y0077448D01*
X0252861Y0077450D01*
X0254828Y0077450D01*
X0258114Y0077450D02*
X0261392Y0071550D01*
X0261392Y0077450D01*
X0258114Y0077450D02*
X0258114Y0071550D01*
X0264679Y0071550D02*
X0264679Y0077450D01*
X0266317Y0077450D01*
X0266395Y0077448D01*
X0266473Y0077443D01*
X0266550Y0077433D01*
X0266627Y0077420D01*
X0266703Y0077404D01*
X0266779Y0077384D01*
X0266853Y0077360D01*
X0266926Y0077333D01*
X0266998Y0077302D01*
X0267068Y0077268D01*
X0267137Y0077230D01*
X0267203Y0077190D01*
X0267268Y0077146D01*
X0267330Y0077099D01*
X0267390Y0077050D01*
X0267448Y0076997D01*
X0267503Y0076942D01*
X0267556Y0076884D01*
X0267605Y0076824D01*
X0267652Y0076762D01*
X0267696Y0076697D01*
X0267736Y0076631D01*
X0267774Y0076562D01*
X0267808Y0076492D01*
X0267839Y0076420D01*
X0267866Y0076347D01*
X0267890Y0076273D01*
X0267910Y0076197D01*
X0267926Y0076121D01*
X0267939Y0076044D01*
X0267949Y0075967D01*
X0267954Y0075889D01*
X0267956Y0075811D01*
X0267956Y0073189D01*
X0267954Y0073111D01*
X0267949Y0073033D01*
X0267939Y0072956D01*
X0267926Y0072879D01*
X0267910Y0072803D01*
X0267890Y0072727D01*
X0267866Y0072653D01*
X0267839Y0072580D01*
X0267808Y0072508D01*
X0267774Y0072438D01*
X0267736Y0072370D01*
X0267696Y0072303D01*
X0267652Y0072238D01*
X0267605Y0072176D01*
X0267556Y0072116D01*
X0267503Y0072058D01*
X0267448Y0072003D01*
X0267390Y0071950D01*
X0267330Y0071901D01*
X0267268Y0071854D01*
X0267203Y0071810D01*
X0267137Y0071770D01*
X0267068Y0071732D01*
X0266998Y0071698D01*
X0266926Y0071667D01*
X0266853Y0071640D01*
X0266779Y0071616D01*
X0266703Y0071596D01*
X0266627Y0071580D01*
X0266550Y0071567D01*
X0266473Y0071557D01*
X0266395Y0071552D01*
X0266317Y0071550D01*
X0264679Y0071550D01*
X0394050Y0073294D02*
X0394050Y0073950D01*
X0397328Y0073950D01*
X0395689Y0068050D01*
X0396500Y0058639D02*
X0396498Y0058568D01*
X0396492Y0058497D01*
X0396483Y0058427D01*
X0396469Y0058357D01*
X0396452Y0058288D01*
X0396431Y0058220D01*
X0396407Y0058154D01*
X0396379Y0058089D01*
X0396347Y0058025D01*
X0396312Y0057963D01*
X0396274Y0057903D01*
X0396233Y0057846D01*
X0396188Y0057790D01*
X0396141Y0057737D01*
X0396091Y0057687D01*
X0396038Y0057640D01*
X0395982Y0057595D01*
X0395925Y0057554D01*
X0395865Y0057516D01*
X0395803Y0057481D01*
X0395739Y0057449D01*
X0395674Y0057421D01*
X0395608Y0057397D01*
X0395540Y0057376D01*
X0395471Y0057359D01*
X0395401Y0057345D01*
X0395331Y0057336D01*
X0395260Y0057330D01*
X0395189Y0057328D01*
X0395118Y0057330D01*
X0395047Y0057336D01*
X0394977Y0057345D01*
X0394907Y0057359D01*
X0394838Y0057376D01*
X0394770Y0057397D01*
X0394704Y0057421D01*
X0394639Y0057449D01*
X0394575Y0057481D01*
X0394513Y0057516D01*
X0394453Y0057554D01*
X0394396Y0057595D01*
X0394340Y0057640D01*
X0394287Y0057687D01*
X0394237Y0057737D01*
X0394190Y0057790D01*
X0394145Y0057846D01*
X0394104Y0057903D01*
X0394066Y0057963D01*
X0394031Y0058025D01*
X0393999Y0058089D01*
X0393971Y0058154D01*
X0393947Y0058220D01*
X0393926Y0058288D01*
X0393909Y0058357D01*
X0393895Y0058427D01*
X0393886Y0058497D01*
X0393880Y0058568D01*
X0393878Y0058639D01*
X0393880Y0058710D01*
X0393886Y0058781D01*
X0393895Y0058851D01*
X0393909Y0058921D01*
X0393926Y0058990D01*
X0393947Y0059058D01*
X0393971Y0059124D01*
X0393999Y0059189D01*
X0394031Y0059253D01*
X0394066Y0059315D01*
X0394104Y0059375D01*
X0394145Y0059432D01*
X0394190Y0059488D01*
X0394237Y0059541D01*
X0394287Y0059591D01*
X0394340Y0059638D01*
X0394396Y0059683D01*
X0394453Y0059724D01*
X0394513Y0059762D01*
X0394575Y0059797D01*
X0394639Y0059829D01*
X0394704Y0059857D01*
X0394770Y0059881D01*
X0394838Y0059902D01*
X0394907Y0059919D01*
X0394977Y0059933D01*
X0395047Y0059942D01*
X0395118Y0059948D01*
X0395189Y0059950D01*
X0395260Y0059948D01*
X0395331Y0059942D01*
X0395401Y0059933D01*
X0395471Y0059919D01*
X0395540Y0059902D01*
X0395608Y0059881D01*
X0395674Y0059857D01*
X0395739Y0059829D01*
X0395803Y0059797D01*
X0395865Y0059762D01*
X0395925Y0059724D01*
X0395982Y0059683D01*
X0396038Y0059638D01*
X0396091Y0059591D01*
X0396141Y0059541D01*
X0396188Y0059488D01*
X0396233Y0059432D01*
X0396274Y0059375D01*
X0396312Y0059315D01*
X0396347Y0059253D01*
X0396379Y0059189D01*
X0396407Y0059124D01*
X0396431Y0059058D01*
X0396452Y0058990D01*
X0396469Y0058921D01*
X0396483Y0058851D01*
X0396492Y0058781D01*
X0396498Y0058710D01*
X0396500Y0058639D01*
X0396828Y0055689D02*
X0396826Y0055610D01*
X0396820Y0055531D01*
X0396811Y0055452D01*
X0396797Y0055374D01*
X0396780Y0055297D01*
X0396760Y0055220D01*
X0396735Y0055145D01*
X0396707Y0055071D01*
X0396675Y0054998D01*
X0396640Y0054927D01*
X0396602Y0054858D01*
X0396560Y0054791D01*
X0396515Y0054726D01*
X0396467Y0054663D01*
X0396416Y0054602D01*
X0396362Y0054544D01*
X0396305Y0054489D01*
X0396246Y0054436D01*
X0396184Y0054387D01*
X0396120Y0054340D01*
X0396054Y0054297D01*
X0395986Y0054257D01*
X0395915Y0054220D01*
X0395844Y0054186D01*
X0395770Y0054157D01*
X0395695Y0054130D01*
X0395620Y0054108D01*
X0395543Y0054089D01*
X0395465Y0054073D01*
X0395387Y0054062D01*
X0395308Y0054054D01*
X0395229Y0054050D01*
X0395149Y0054050D01*
X0395070Y0054054D01*
X0394991Y0054062D01*
X0394913Y0054073D01*
X0394835Y0054089D01*
X0394758Y0054108D01*
X0394683Y0054130D01*
X0394608Y0054157D01*
X0394534Y0054186D01*
X0394463Y0054220D01*
X0394392Y0054257D01*
X0394324Y0054297D01*
X0394258Y0054340D01*
X0394194Y0054387D01*
X0394132Y0054436D01*
X0394073Y0054489D01*
X0394016Y0054544D01*
X0393962Y0054602D01*
X0393911Y0054663D01*
X0393863Y0054726D01*
X0393818Y0054791D01*
X0393776Y0054858D01*
X0393738Y0054927D01*
X0393703Y0054998D01*
X0393671Y0055071D01*
X0393643Y0055145D01*
X0393618Y0055220D01*
X0393598Y0055297D01*
X0393581Y0055374D01*
X0393567Y0055452D01*
X0393558Y0055531D01*
X0393552Y0055610D01*
X0393550Y0055689D01*
X0393552Y0055768D01*
X0393558Y0055847D01*
X0393567Y0055926D01*
X0393581Y0056004D01*
X0393598Y0056081D01*
X0393618Y0056158D01*
X0393643Y0056233D01*
X0393671Y0056307D01*
X0393703Y0056380D01*
X0393738Y0056451D01*
X0393776Y0056520D01*
X0393818Y0056587D01*
X0393863Y0056652D01*
X0393911Y0056715D01*
X0393962Y0056776D01*
X0394016Y0056834D01*
X0394073Y0056889D01*
X0394132Y0056942D01*
X0394194Y0056991D01*
X0394258Y0057038D01*
X0394324Y0057081D01*
X0394392Y0057121D01*
X0394463Y0057158D01*
X0394534Y0057192D01*
X0394608Y0057221D01*
X0394683Y0057248D01*
X0394758Y0057270D01*
X0394835Y0057289D01*
X0394913Y0057305D01*
X0394991Y0057316D01*
X0395070Y0057324D01*
X0395149Y0057328D01*
X0395229Y0057328D01*
X0395308Y0057324D01*
X0395387Y0057316D01*
X0395465Y0057305D01*
X0395543Y0057289D01*
X0395620Y0057270D01*
X0395695Y0057248D01*
X0395770Y0057221D01*
X0395844Y0057192D01*
X0395915Y0057158D01*
X0395986Y0057121D01*
X0396054Y0057081D01*
X0396120Y0057038D01*
X0396184Y0056991D01*
X0396246Y0056942D01*
X0396305Y0056889D01*
X0396362Y0056834D01*
X0396416Y0056776D01*
X0396467Y0056715D01*
X0396515Y0056652D01*
X0396560Y0056587D01*
X0396602Y0056520D01*
X0396640Y0056451D01*
X0396675Y0056380D01*
X0396707Y0056307D01*
X0396735Y0056233D01*
X0396760Y0056158D01*
X0396780Y0056081D01*
X0396797Y0056004D01*
X0396811Y0055926D01*
X0396820Y0055847D01*
X0396826Y0055768D01*
X0396828Y0055689D01*
X0396017Y0041311D02*
X0396017Y0037378D01*
X0397983Y0039344D02*
X0394050Y0039344D01*
X0394050Y0084689D02*
X0394050Y0086328D01*
X0396017Y0086328D01*
X0394050Y0086328D02*
X0394052Y0086428D01*
X0394058Y0086529D01*
X0394067Y0086629D01*
X0394081Y0086728D01*
X0394098Y0086827D01*
X0394119Y0086925D01*
X0394144Y0087023D01*
X0394172Y0087119D01*
X0394204Y0087214D01*
X0394240Y0087308D01*
X0394279Y0087401D01*
X0394322Y0087491D01*
X0394369Y0087581D01*
X0394418Y0087668D01*
X0394471Y0087753D01*
X0394527Y0087836D01*
X0394587Y0087918D01*
X0394649Y0087996D01*
X0394715Y0088072D01*
X0394783Y0088146D01*
X0394854Y0088217D01*
X0394928Y0088285D01*
X0395004Y0088351D01*
X0395082Y0088413D01*
X0395164Y0088473D01*
X0395247Y0088529D01*
X0395332Y0088582D01*
X0395419Y0088631D01*
X0395509Y0088678D01*
X0395599Y0088721D01*
X0395692Y0088760D01*
X0395786Y0088796D01*
X0395881Y0088828D01*
X0395977Y0088856D01*
X0396075Y0088881D01*
X0396173Y0088902D01*
X0396272Y0088919D01*
X0396371Y0088933D01*
X0396471Y0088942D01*
X0396572Y0088948D01*
X0396672Y0088950D01*
X0396017Y0086328D02*
X0396088Y0086326D01*
X0396159Y0086320D01*
X0396229Y0086311D01*
X0396299Y0086297D01*
X0396368Y0086280D01*
X0396436Y0086259D01*
X0396502Y0086235D01*
X0396567Y0086207D01*
X0396631Y0086175D01*
X0396693Y0086140D01*
X0396753Y0086102D01*
X0396810Y0086061D01*
X0396866Y0086016D01*
X0396919Y0085969D01*
X0396969Y0085919D01*
X0397016Y0085866D01*
X0397061Y0085810D01*
X0397102Y0085753D01*
X0397140Y0085693D01*
X0397175Y0085631D01*
X0397207Y0085567D01*
X0397235Y0085502D01*
X0397259Y0085436D01*
X0397280Y0085368D01*
X0397297Y0085299D01*
X0397311Y0085229D01*
X0397320Y0085159D01*
X0397326Y0085088D01*
X0397328Y0085017D01*
X0397328Y0084689D01*
X0397326Y0084610D01*
X0397320Y0084531D01*
X0397311Y0084452D01*
X0397297Y0084374D01*
X0397280Y0084297D01*
X0397260Y0084220D01*
X0397235Y0084145D01*
X0397207Y0084071D01*
X0397175Y0083998D01*
X0397140Y0083927D01*
X0397102Y0083858D01*
X0397060Y0083791D01*
X0397015Y0083726D01*
X0396967Y0083663D01*
X0396916Y0083602D01*
X0396862Y0083544D01*
X0396805Y0083489D01*
X0396746Y0083436D01*
X0396684Y0083387D01*
X0396620Y0083340D01*
X0396554Y0083297D01*
X0396486Y0083257D01*
X0396415Y0083220D01*
X0396344Y0083186D01*
X0396270Y0083157D01*
X0396195Y0083130D01*
X0396120Y0083108D01*
X0396043Y0083089D01*
X0395965Y0083073D01*
X0395887Y0083062D01*
X0395808Y0083054D01*
X0395729Y0083050D01*
X0395649Y0083050D01*
X0395570Y0083054D01*
X0395491Y0083062D01*
X0395413Y0083073D01*
X0395335Y0083089D01*
X0395258Y0083108D01*
X0395183Y0083130D01*
X0395108Y0083157D01*
X0395034Y0083186D01*
X0394963Y0083220D01*
X0394892Y0083257D01*
X0394824Y0083297D01*
X0394758Y0083340D01*
X0394694Y0083387D01*
X0394632Y0083436D01*
X0394573Y0083489D01*
X0394516Y0083544D01*
X0394462Y0083602D01*
X0394411Y0083663D01*
X0394363Y0083726D01*
X0394318Y0083791D01*
X0394276Y0083858D01*
X0394238Y0083927D01*
X0394203Y0083998D01*
X0394171Y0084071D01*
X0394143Y0084145D01*
X0394118Y0084220D01*
X0394098Y0084297D01*
X0394081Y0084374D01*
X0394067Y0084452D01*
X0394058Y0084531D01*
X0394052Y0084610D01*
X0394050Y0084689D01*
X0393550Y0097050D02*
X0395517Y0097050D01*
X0395588Y0097052D01*
X0395659Y0097058D01*
X0395729Y0097067D01*
X0395799Y0097081D01*
X0395868Y0097098D01*
X0395936Y0097119D01*
X0396002Y0097143D01*
X0396067Y0097171D01*
X0396131Y0097203D01*
X0396193Y0097238D01*
X0396253Y0097276D01*
X0396310Y0097317D01*
X0396366Y0097362D01*
X0396419Y0097409D01*
X0396469Y0097459D01*
X0396516Y0097512D01*
X0396561Y0097568D01*
X0396602Y0097625D01*
X0396640Y0097685D01*
X0396675Y0097747D01*
X0396707Y0097811D01*
X0396735Y0097876D01*
X0396759Y0097942D01*
X0396780Y0098010D01*
X0396797Y0098079D01*
X0396811Y0098149D01*
X0396820Y0098219D01*
X0396826Y0098290D01*
X0396828Y0098361D01*
X0396828Y0099017D01*
X0396826Y0099088D01*
X0396820Y0099159D01*
X0396811Y0099229D01*
X0396797Y0099299D01*
X0396780Y0099368D01*
X0396759Y0099436D01*
X0396735Y0099502D01*
X0396707Y0099567D01*
X0396675Y0099631D01*
X0396640Y0099693D01*
X0396602Y0099753D01*
X0396561Y0099810D01*
X0396516Y0099866D01*
X0396469Y0099919D01*
X0396419Y0099969D01*
X0396366Y0100016D01*
X0396310Y0100061D01*
X0396253Y0100102D01*
X0396193Y0100140D01*
X0396131Y0100175D01*
X0396067Y0100207D01*
X0396002Y0100235D01*
X0395936Y0100259D01*
X0395868Y0100280D01*
X0395799Y0100297D01*
X0395729Y0100311D01*
X0395659Y0100320D01*
X0395588Y0100326D01*
X0395517Y0100328D01*
X0393550Y0100328D01*
X0393550Y0102950D01*
X0396828Y0102950D01*
X0395844Y0112050D02*
X0395844Y0114672D01*
X0396828Y0113361D02*
X0393550Y0113361D01*
X0394861Y0117950D01*
X0395189Y0128050D02*
X0393550Y0128050D01*
X0395189Y0128050D02*
X0395268Y0128052D01*
X0395347Y0128058D01*
X0395426Y0128067D01*
X0395504Y0128081D01*
X0395581Y0128098D01*
X0395658Y0128118D01*
X0395733Y0128143D01*
X0395807Y0128171D01*
X0395880Y0128203D01*
X0395951Y0128238D01*
X0396020Y0128276D01*
X0396087Y0128318D01*
X0396152Y0128363D01*
X0396215Y0128411D01*
X0396276Y0128462D01*
X0396334Y0128516D01*
X0396389Y0128573D01*
X0396442Y0128632D01*
X0396491Y0128694D01*
X0396538Y0128758D01*
X0396581Y0128824D01*
X0396621Y0128892D01*
X0396658Y0128963D01*
X0396692Y0129034D01*
X0396721Y0129108D01*
X0396748Y0129183D01*
X0396770Y0129258D01*
X0396789Y0129335D01*
X0396805Y0129413D01*
X0396816Y0129491D01*
X0396824Y0129570D01*
X0396828Y0129649D01*
X0396828Y0129729D01*
X0396824Y0129808D01*
X0396816Y0129887D01*
X0396805Y0129965D01*
X0396789Y0130043D01*
X0396770Y0130120D01*
X0396748Y0130195D01*
X0396721Y0130270D01*
X0396692Y0130344D01*
X0396658Y0130415D01*
X0396621Y0130486D01*
X0396581Y0130554D01*
X0396538Y0130620D01*
X0396491Y0130684D01*
X0396442Y0130746D01*
X0396389Y0130805D01*
X0396334Y0130862D01*
X0396276Y0130916D01*
X0396215Y0130967D01*
X0396152Y0131015D01*
X0396087Y0131060D01*
X0396020Y0131102D01*
X0395951Y0131140D01*
X0395880Y0131175D01*
X0395807Y0131207D01*
X0395733Y0131235D01*
X0395658Y0131260D01*
X0395581Y0131280D01*
X0395504Y0131297D01*
X0395426Y0131311D01*
X0395347Y0131320D01*
X0395268Y0131326D01*
X0395189Y0131328D01*
X0395517Y0131328D02*
X0394206Y0131328D01*
X0395517Y0131328D02*
X0395588Y0131330D01*
X0395659Y0131336D01*
X0395729Y0131345D01*
X0395799Y0131359D01*
X0395868Y0131376D01*
X0395936Y0131397D01*
X0396002Y0131421D01*
X0396067Y0131449D01*
X0396131Y0131481D01*
X0396193Y0131516D01*
X0396253Y0131554D01*
X0396310Y0131595D01*
X0396366Y0131640D01*
X0396419Y0131687D01*
X0396469Y0131737D01*
X0396516Y0131790D01*
X0396561Y0131846D01*
X0396602Y0131903D01*
X0396640Y0131963D01*
X0396675Y0132025D01*
X0396707Y0132089D01*
X0396735Y0132154D01*
X0396759Y0132220D01*
X0396780Y0132288D01*
X0396797Y0132357D01*
X0396811Y0132427D01*
X0396820Y0132497D01*
X0396826Y0132568D01*
X0396828Y0132639D01*
X0396826Y0132710D01*
X0396820Y0132781D01*
X0396811Y0132851D01*
X0396797Y0132921D01*
X0396780Y0132990D01*
X0396759Y0133058D01*
X0396735Y0133124D01*
X0396707Y0133189D01*
X0396675Y0133253D01*
X0396640Y0133315D01*
X0396602Y0133375D01*
X0396561Y0133432D01*
X0396516Y0133488D01*
X0396469Y0133541D01*
X0396419Y0133591D01*
X0396366Y0133638D01*
X0396310Y0133683D01*
X0396253Y0133724D01*
X0396193Y0133762D01*
X0396131Y0133797D01*
X0396067Y0133829D01*
X0396002Y0133857D01*
X0395936Y0133881D01*
X0395868Y0133902D01*
X0395799Y0133919D01*
X0395729Y0133933D01*
X0395659Y0133942D01*
X0395588Y0133948D01*
X0395517Y0133950D01*
X0393550Y0133950D01*
X0393550Y0143050D02*
X0396828Y0143050D01*
X0393550Y0143050D02*
X0396336Y0146328D01*
X0395353Y0148950D02*
X0395268Y0148948D01*
X0395183Y0148942D01*
X0395098Y0148933D01*
X0395014Y0148919D01*
X0394931Y0148902D01*
X0394848Y0148882D01*
X0394767Y0148857D01*
X0394687Y0148829D01*
X0394608Y0148797D01*
X0394530Y0148762D01*
X0394454Y0148723D01*
X0394380Y0148681D01*
X0394308Y0148636D01*
X0394238Y0148588D01*
X0394171Y0148536D01*
X0394105Y0148481D01*
X0394043Y0148424D01*
X0393982Y0148364D01*
X0393925Y0148301D01*
X0393871Y0148235D01*
X0393819Y0148168D01*
X0393771Y0148098D01*
X0393725Y0148026D01*
X0393684Y0147952D01*
X0393645Y0147876D01*
X0393610Y0147798D01*
X0393578Y0147719D01*
X0393550Y0147639D01*
X0396335Y0146328D02*
X0396389Y0146381D01*
X0396440Y0146437D01*
X0396488Y0146495D01*
X0396533Y0146556D01*
X0396575Y0146618D01*
X0396614Y0146683D01*
X0396651Y0146749D01*
X0396684Y0146817D01*
X0396713Y0146886D01*
X0396740Y0146957D01*
X0396763Y0147028D01*
X0396782Y0147101D01*
X0396798Y0147175D01*
X0396811Y0147249D01*
X0396820Y0147324D01*
X0396825Y0147400D01*
X0396827Y0147475D01*
X0396828Y0147475D02*
X0396826Y0147550D01*
X0396820Y0147624D01*
X0396811Y0147698D01*
X0396798Y0147772D01*
X0396781Y0147845D01*
X0396760Y0147917D01*
X0396736Y0147987D01*
X0396708Y0148057D01*
X0396677Y0148125D01*
X0396643Y0148191D01*
X0396605Y0148255D01*
X0396564Y0148318D01*
X0396519Y0148378D01*
X0396472Y0148436D01*
X0396422Y0148491D01*
X0396369Y0148544D01*
X0396314Y0148594D01*
X0396256Y0148641D01*
X0396196Y0148686D01*
X0396133Y0148727D01*
X0396069Y0148765D01*
X0396003Y0148799D01*
X0395935Y0148830D01*
X0395865Y0148858D01*
X0395795Y0148882D01*
X0395723Y0148903D01*
X0395650Y0148920D01*
X0395576Y0148933D01*
X0395502Y0148942D01*
X0395428Y0148948D01*
X0395353Y0148950D01*
X0395189Y0158050D02*
X0395189Y0163950D01*
X0393550Y0162639D01*
X0393550Y0158050D02*
X0396828Y0158050D01*
X0395361Y0172550D02*
X0394050Y0172550D01*
X0394706Y0172550D02*
X0394706Y0178450D01*
X0395361Y0178450D02*
X0394050Y0178450D01*
X0397990Y0176811D02*
X0397990Y0174189D01*
X0397992Y0174110D01*
X0397998Y0174031D01*
X0398007Y0173952D01*
X0398021Y0173874D01*
X0398038Y0173797D01*
X0398058Y0173720D01*
X0398083Y0173645D01*
X0398111Y0173571D01*
X0398143Y0173498D01*
X0398178Y0173427D01*
X0398216Y0173358D01*
X0398258Y0173291D01*
X0398303Y0173226D01*
X0398351Y0173163D01*
X0398402Y0173102D01*
X0398456Y0173044D01*
X0398513Y0172989D01*
X0398572Y0172936D01*
X0398634Y0172887D01*
X0398698Y0172840D01*
X0398764Y0172797D01*
X0398832Y0172757D01*
X0398903Y0172720D01*
X0398974Y0172686D01*
X0399048Y0172657D01*
X0399123Y0172630D01*
X0399198Y0172608D01*
X0399275Y0172589D01*
X0399353Y0172573D01*
X0399431Y0172562D01*
X0399510Y0172554D01*
X0399589Y0172550D01*
X0399669Y0172550D01*
X0399748Y0172554D01*
X0399827Y0172562D01*
X0399905Y0172573D01*
X0399983Y0172589D01*
X0400060Y0172608D01*
X0400135Y0172630D01*
X0400210Y0172657D01*
X0400284Y0172686D01*
X0400355Y0172720D01*
X0400426Y0172757D01*
X0400494Y0172797D01*
X0400560Y0172840D01*
X0400624Y0172887D01*
X0400686Y0172936D01*
X0400745Y0172989D01*
X0400802Y0173044D01*
X0400856Y0173102D01*
X0400907Y0173163D01*
X0400955Y0173226D01*
X0401000Y0173291D01*
X0401042Y0173358D01*
X0401080Y0173427D01*
X0401115Y0173498D01*
X0401147Y0173571D01*
X0401175Y0173645D01*
X0401200Y0173720D01*
X0401220Y0173797D01*
X0401237Y0173874D01*
X0401251Y0173952D01*
X0401260Y0174031D01*
X0401266Y0174110D01*
X0401268Y0174189D01*
X0401268Y0176811D01*
X0401266Y0176890D01*
X0401260Y0176969D01*
X0401251Y0177048D01*
X0401237Y0177126D01*
X0401220Y0177203D01*
X0401200Y0177280D01*
X0401175Y0177355D01*
X0401147Y0177429D01*
X0401115Y0177502D01*
X0401080Y0177573D01*
X0401042Y0177642D01*
X0401000Y0177709D01*
X0400955Y0177774D01*
X0400907Y0177837D01*
X0400856Y0177898D01*
X0400802Y0177956D01*
X0400745Y0178011D01*
X0400686Y0178064D01*
X0400624Y0178113D01*
X0400560Y0178160D01*
X0400494Y0178203D01*
X0400426Y0178243D01*
X0400355Y0178280D01*
X0400284Y0178314D01*
X0400210Y0178343D01*
X0400135Y0178370D01*
X0400060Y0178392D01*
X0399983Y0178411D01*
X0399905Y0178427D01*
X0399827Y0178438D01*
X0399748Y0178446D01*
X0399669Y0178450D01*
X0399589Y0178450D01*
X0399510Y0178446D01*
X0399431Y0178438D01*
X0399353Y0178427D01*
X0399275Y0178411D01*
X0399198Y0178392D01*
X0399123Y0178370D01*
X0399048Y0178343D01*
X0398974Y0178314D01*
X0398903Y0178280D01*
X0398832Y0178243D01*
X0398764Y0178203D01*
X0398698Y0178160D01*
X0398634Y0178113D01*
X0398572Y0178064D01*
X0398513Y0178011D01*
X0398456Y0177956D01*
X0398402Y0177898D01*
X0398351Y0177837D01*
X0398303Y0177774D01*
X0398258Y0177709D01*
X0398216Y0177642D01*
X0398178Y0177573D01*
X0398143Y0177502D01*
X0398111Y0177429D01*
X0398083Y0177355D01*
X0398058Y0177280D01*
X0398038Y0177203D01*
X0398021Y0177126D01*
X0398007Y0177048D01*
X0397998Y0176969D01*
X0397992Y0176890D01*
X0397990Y0176811D01*
D11*
X0379750Y0177875D02*
X0379750Y0174125D01*
X0379750Y0162875D02*
X0379750Y0159125D01*
X0379750Y0147875D02*
X0379750Y0144125D01*
X0379750Y0132875D02*
X0379750Y0129125D01*
X0379750Y0117875D02*
X0379750Y0114125D01*
X0379750Y0102875D02*
X0379750Y0099125D01*
X0379750Y0087875D02*
X0379750Y0084125D01*
X0379750Y0072875D02*
X0379750Y0069125D01*
X0379750Y0057875D02*
X0379750Y0054125D01*
X0379750Y0042875D02*
X0379750Y0039125D01*
X0273000Y0011000D02*
X0273000Y0071000D01*
X0251000Y0071000D01*
X0251000Y0066000D01*
X0256000Y0066000D01*
X0256000Y0016000D01*
X0251000Y0016000D01*
X0251000Y0066000D01*
X0251000Y0016000D02*
X0251000Y0011000D01*
X0273000Y0011000D01*
D12*
X0023500Y0041000D02*
X0018500Y0041000D01*
X0016000Y0043500D01*
X0016000Y0048500D01*
X0018500Y0051000D01*
X0016000Y0053500D01*
X0016000Y0058500D01*
X0018500Y0061000D01*
X0016000Y0063500D01*
X0016000Y0068500D01*
X0018500Y0071000D01*
X0016000Y0073500D01*
X0016000Y0078500D01*
X0018500Y0081000D01*
X0016000Y0083500D01*
X0016000Y0088500D01*
X0018500Y0091000D01*
X0016000Y0093500D01*
X0016000Y0098500D01*
X0018500Y0101000D01*
X0016000Y0103500D01*
X0016000Y0108500D01*
X0018500Y0111000D01*
X0023500Y0111000D01*
X0026000Y0108500D01*
X0026000Y0103500D01*
X0023500Y0101000D01*
X0026000Y0098500D01*
X0026000Y0093500D01*
X0023500Y0091000D01*
X0026000Y0088500D01*
X0026000Y0083500D01*
X0023500Y0081000D01*
X0026000Y0078500D01*
X0026000Y0073500D01*
X0023500Y0071000D01*
X0026000Y0068500D01*
X0026000Y0063500D01*
X0023500Y0061000D01*
X0026000Y0058500D01*
X0026000Y0053500D01*
X0023500Y0051000D01*
X0026000Y0048500D01*
X0026000Y0043500D01*
X0023500Y0041000D01*
X0046000Y0043500D02*
X0048500Y0041000D01*
X0053500Y0041000D01*
X0056000Y0043500D01*
X0056000Y0048500D01*
X0053500Y0051000D01*
X0056000Y0053500D01*
X0056000Y0058500D01*
X0053500Y0061000D01*
X0056000Y0063500D01*
X0056000Y0068500D01*
X0053500Y0071000D01*
X0056000Y0073500D01*
X0056000Y0078500D01*
X0053500Y0081000D01*
X0056000Y0083500D01*
X0056000Y0088500D01*
X0053500Y0091000D01*
X0056000Y0093500D01*
X0056000Y0098500D01*
X0053500Y0101000D01*
X0056000Y0103500D01*
X0056000Y0108500D01*
X0053500Y0111000D01*
X0048500Y0111000D01*
X0046000Y0108500D01*
X0046000Y0103500D01*
X0048500Y0101000D01*
X0046000Y0098500D01*
X0046000Y0093500D01*
X0048500Y0091000D01*
X0046000Y0088500D01*
X0046000Y0083500D01*
X0048500Y0081000D01*
X0046000Y0078500D01*
X0046000Y0073500D01*
X0048500Y0071000D01*
X0046000Y0068500D01*
X0046000Y0063500D01*
X0048500Y0061000D01*
X0046000Y0058500D01*
X0046000Y0053500D01*
X0048500Y0051000D01*
X0046000Y0048500D01*
X0046000Y0043500D01*
X0076000Y0043500D02*
X0076000Y0048500D01*
X0078500Y0051000D01*
X0076000Y0053500D01*
X0076000Y0058500D01*
X0078500Y0061000D01*
X0076000Y0063500D01*
X0076000Y0068500D01*
X0078500Y0071000D01*
X0076000Y0073500D01*
X0076000Y0078500D01*
X0078500Y0081000D01*
X0076000Y0083500D01*
X0076000Y0088500D01*
X0078500Y0091000D01*
X0076000Y0093500D01*
X0076000Y0098500D01*
X0078500Y0101000D01*
X0076000Y0103500D01*
X0076000Y0108500D01*
X0078500Y0111000D01*
X0083500Y0111000D01*
X0086000Y0108500D01*
X0086000Y0103500D01*
X0083500Y0101000D01*
X0086000Y0098500D01*
X0086000Y0093500D01*
X0083500Y0091000D01*
X0086000Y0088500D01*
X0086000Y0083500D01*
X0083500Y0081000D01*
X0086000Y0078500D01*
X0086000Y0073500D01*
X0083500Y0071000D01*
X0086000Y0068500D01*
X0086000Y0063500D01*
X0083500Y0061000D01*
X0086000Y0058500D01*
X0086000Y0053500D01*
X0083500Y0051000D01*
X0086000Y0048500D01*
X0086000Y0043500D01*
X0083500Y0041000D01*
X0078500Y0041000D01*
X0076000Y0043500D01*
X0106000Y0043500D02*
X0108500Y0041000D01*
X0113500Y0041000D01*
X0116000Y0043500D01*
X0116000Y0048500D01*
X0113500Y0051000D01*
X0116000Y0053500D01*
X0116000Y0058500D01*
X0113500Y0061000D01*
X0116000Y0063500D01*
X0116000Y0068500D01*
X0113500Y0071000D01*
X0116000Y0073500D01*
X0116000Y0078500D01*
X0113500Y0081000D01*
X0116000Y0083500D01*
X0116000Y0088500D01*
X0113500Y0091000D01*
X0116000Y0093500D01*
X0116000Y0098500D01*
X0113500Y0101000D01*
X0116000Y0103500D01*
X0116000Y0108500D01*
X0113500Y0111000D01*
X0108500Y0111000D01*
X0106000Y0108500D01*
X0106000Y0103500D01*
X0108500Y0101000D01*
X0106000Y0098500D01*
X0106000Y0093500D01*
X0108500Y0091000D01*
X0106000Y0088500D01*
X0106000Y0083500D01*
X0108500Y0081000D01*
X0106000Y0078500D01*
X0106000Y0073500D01*
X0108500Y0071000D01*
X0106000Y0068500D01*
X0106000Y0063500D01*
X0108500Y0061000D01*
X0106000Y0058500D01*
X0106000Y0053500D01*
X0108500Y0051000D01*
X0106000Y0048500D01*
X0106000Y0043500D01*
X0136000Y0043500D02*
X0136000Y0048500D01*
X0138500Y0051000D01*
X0136000Y0053500D01*
X0136000Y0058500D01*
X0138500Y0061000D01*
X0136000Y0063500D01*
X0136000Y0068500D01*
X0138500Y0071000D01*
X0136000Y0073500D01*
X0136000Y0078500D01*
X0138500Y0081000D01*
X0136000Y0083500D01*
X0136000Y0088500D01*
X0138500Y0091000D01*
X0136000Y0093500D01*
X0136000Y0098500D01*
X0138500Y0101000D01*
X0136000Y0103500D01*
X0136000Y0108500D01*
X0138500Y0111000D01*
X0143500Y0111000D01*
X0146000Y0108500D01*
X0146000Y0103500D01*
X0143500Y0101000D01*
X0146000Y0098500D01*
X0146000Y0093500D01*
X0143500Y0091000D01*
X0146000Y0088500D01*
X0146000Y0083500D01*
X0143500Y0081000D01*
X0146000Y0078500D01*
X0146000Y0073500D01*
X0143500Y0071000D01*
X0146000Y0068500D01*
X0146000Y0063500D01*
X0143500Y0061000D01*
X0146000Y0058500D01*
X0146000Y0053500D01*
X0143500Y0051000D01*
X0146000Y0048500D01*
X0146000Y0043500D01*
X0143500Y0041000D01*
X0138500Y0041000D01*
X0136000Y0043500D01*
X0166000Y0043500D02*
X0166000Y0048500D01*
X0168500Y0051000D01*
X0166000Y0053500D01*
X0166000Y0058500D01*
X0168500Y0061000D01*
X0166000Y0063500D01*
X0166000Y0068500D01*
X0168500Y0071000D01*
X0166000Y0073500D01*
X0166000Y0078500D01*
X0168500Y0081000D01*
X0166000Y0083500D01*
X0166000Y0088500D01*
X0168500Y0091000D01*
X0166000Y0093500D01*
X0166000Y0098500D01*
X0168500Y0101000D01*
X0166000Y0103500D01*
X0166000Y0108500D01*
X0168500Y0111000D01*
X0173500Y0111000D01*
X0176000Y0108500D01*
X0176000Y0103500D01*
X0173500Y0101000D01*
X0176000Y0098500D01*
X0176000Y0093500D01*
X0173500Y0091000D01*
X0176000Y0088500D01*
X0176000Y0083500D01*
X0173500Y0081000D01*
X0176000Y0078500D01*
X0176000Y0073500D01*
X0173500Y0071000D01*
X0176000Y0068500D01*
X0176000Y0063500D01*
X0173500Y0061000D01*
X0176000Y0058500D01*
X0176000Y0053500D01*
X0173500Y0051000D01*
X0176000Y0048500D01*
X0176000Y0043500D01*
X0173500Y0041000D01*
X0168500Y0041000D01*
X0166000Y0043500D01*
X0196000Y0043500D02*
X0198500Y0041000D01*
X0203500Y0041000D01*
X0206000Y0043500D01*
X0206000Y0048500D01*
X0203500Y0051000D01*
X0206000Y0053500D01*
X0206000Y0058500D01*
X0203500Y0061000D01*
X0206000Y0063500D01*
X0206000Y0068500D01*
X0203500Y0071000D01*
X0206000Y0073500D01*
X0206000Y0078500D01*
X0203500Y0081000D01*
X0206000Y0083500D01*
X0206000Y0088500D01*
X0203500Y0091000D01*
X0206000Y0093500D01*
X0206000Y0098500D01*
X0203500Y0101000D01*
X0206000Y0103500D01*
X0206000Y0108500D01*
X0203500Y0111000D01*
X0198500Y0111000D01*
X0196000Y0108500D01*
X0196000Y0103500D01*
X0198500Y0101000D01*
X0196000Y0098500D01*
X0196000Y0093500D01*
X0198500Y0091000D01*
X0196000Y0088500D01*
X0196000Y0083500D01*
X0198500Y0081000D01*
X0196000Y0078500D01*
X0196000Y0073500D01*
X0198500Y0071000D01*
X0196000Y0068500D01*
X0196000Y0063500D01*
X0198500Y0061000D01*
X0196000Y0058500D01*
X0196000Y0053500D01*
X0198500Y0051000D01*
X0196000Y0048500D01*
X0196000Y0043500D01*
X0226000Y0043500D02*
X0226000Y0048500D01*
X0228500Y0051000D01*
X0226000Y0053500D01*
X0226000Y0058500D01*
X0228500Y0061000D01*
X0226000Y0063500D01*
X0226000Y0068500D01*
X0228500Y0071000D01*
X0226000Y0073500D01*
X0226000Y0078500D01*
X0228500Y0081000D01*
X0226000Y0083500D01*
X0226000Y0088500D01*
X0228500Y0091000D01*
X0226000Y0093500D01*
X0226000Y0098500D01*
X0228500Y0101000D01*
X0226000Y0103500D01*
X0226000Y0108500D01*
X0228500Y0111000D01*
X0233500Y0111000D01*
X0236000Y0108500D01*
X0236000Y0103500D01*
X0233500Y0101000D01*
X0236000Y0098500D01*
X0236000Y0093500D01*
X0233500Y0091000D01*
X0236000Y0088500D01*
X0236000Y0083500D01*
X0233500Y0081000D01*
X0236000Y0078500D01*
X0236000Y0073500D01*
X0233500Y0071000D01*
X0236000Y0068500D01*
X0236000Y0063500D01*
X0233500Y0061000D01*
X0236000Y0058500D01*
X0236000Y0053500D01*
X0233500Y0051000D01*
X0236000Y0048500D01*
X0236000Y0043500D01*
X0233500Y0041000D01*
X0228500Y0041000D01*
X0226000Y0043500D01*
X0266000Y0063500D02*
X0266000Y0068500D01*
X0285606Y0066512D02*
X0288756Y0066512D01*
X0288756Y0064150D01*
X0288756Y0057850D02*
X0288756Y0055488D01*
X0285606Y0055488D01*
X0335606Y0055488D02*
X0338756Y0055488D01*
X0338756Y0057850D01*
X0338756Y0064150D02*
X0338756Y0066512D01*
X0335606Y0066512D01*
X0335606Y0075488D02*
X0338756Y0075488D01*
X0338756Y0077850D01*
X0338756Y0084150D02*
X0338756Y0086512D01*
X0335606Y0086512D01*
X0335606Y0095488D02*
X0338756Y0095488D01*
X0338756Y0097850D01*
X0338756Y0104150D02*
X0338756Y0106512D01*
X0335606Y0106512D01*
X0335606Y0115488D02*
X0338756Y0115488D01*
X0338756Y0117850D01*
X0338756Y0124150D02*
X0338756Y0126512D01*
X0335606Y0126512D01*
X0335606Y0135488D02*
X0338756Y0135488D01*
X0338756Y0137850D01*
X0338756Y0144150D02*
X0338756Y0146512D01*
X0335606Y0146512D01*
X0335606Y0155488D02*
X0338756Y0155488D01*
X0338756Y0157850D01*
X0338756Y0164150D02*
X0338756Y0166512D01*
X0335606Y0166512D01*
X0335606Y0175488D02*
X0338756Y0175488D01*
X0338756Y0177850D01*
X0338756Y0184150D02*
X0338756Y0186512D01*
X0335606Y0186512D01*
X0300500Y0189000D02*
X0287500Y0189000D01*
X0274500Y0189000D01*
X0261500Y0189000D01*
X0261500Y0103000D01*
X0274500Y0103000D01*
X0287500Y0103000D01*
X0300500Y0103000D01*
X0300500Y0189000D01*
X0288500Y0184000D02*
X0288500Y0178000D01*
X0273500Y0178000D01*
X0273500Y0184000D01*
X0288500Y0184000D01*
X0287500Y0187000D02*
X0287500Y0189000D01*
X0287500Y0187000D02*
X0274500Y0187000D01*
X0274500Y0189000D01*
X0273500Y0174000D02*
X0273500Y0168000D01*
X0288500Y0168000D01*
X0288500Y0174000D01*
X0273500Y0174000D01*
X0273500Y0164000D02*
X0273500Y0158000D01*
X0288500Y0158000D01*
X0288500Y0164000D01*
X0273500Y0164000D01*
X0273500Y0154000D02*
X0273500Y0148000D01*
X0288500Y0148000D01*
X0288500Y0154000D01*
X0273500Y0154000D01*
X0273500Y0144000D02*
X0273500Y0138000D01*
X0288500Y0138000D01*
X0288500Y0144000D01*
X0273500Y0144000D01*
X0273500Y0134000D02*
X0273500Y0128000D01*
X0288500Y0128000D01*
X0288500Y0134000D01*
X0273500Y0134000D01*
X0273500Y0124000D02*
X0273500Y0118000D01*
X0288500Y0118000D01*
X0288500Y0124000D01*
X0273500Y0124000D01*
X0273500Y0114000D02*
X0273500Y0108000D01*
X0288500Y0108000D01*
X0288500Y0114000D01*
X0273500Y0114000D01*
X0274500Y0105000D02*
X0274500Y0103000D01*
X0274500Y0105000D02*
X0287500Y0105000D01*
X0287500Y0103000D01*
X0236512Y0150606D02*
X0236512Y0153756D01*
X0234150Y0153756D01*
X0227850Y0153756D02*
X0225488Y0153756D01*
X0225488Y0150606D01*
X0201512Y0150606D02*
X0201512Y0153756D01*
X0199150Y0153756D01*
X0192850Y0153756D02*
X0190488Y0153756D01*
X0190488Y0150606D01*
X0176512Y0150606D02*
X0176512Y0153756D01*
X0174150Y0153756D01*
X0167850Y0153756D02*
X0165488Y0153756D01*
X0165488Y0150606D01*
X0146512Y0150606D02*
X0146512Y0153756D01*
X0144150Y0153756D01*
X0137850Y0153756D02*
X0135488Y0153756D01*
X0135488Y0150606D01*
X0116512Y0150606D02*
X0116512Y0153756D01*
X0114150Y0153756D01*
X0107850Y0153756D02*
X0105488Y0153756D01*
X0105488Y0150606D01*
X0086512Y0150606D02*
X0086512Y0153756D01*
X0084150Y0153756D01*
X0077850Y0153756D02*
X0075488Y0153756D01*
X0075488Y0150606D01*
X0056512Y0150606D02*
X0056512Y0153756D01*
X0054150Y0153756D01*
X0047850Y0153756D02*
X0045488Y0153756D01*
X0045488Y0150606D01*
X0026512Y0150606D02*
X0026512Y0153756D01*
X0024150Y0153756D01*
X0017850Y0153756D02*
X0015488Y0153756D01*
X0015488Y0150606D01*
X0335606Y0046512D02*
X0338756Y0046512D01*
X0338756Y0044150D01*
X0338756Y0037850D02*
X0338756Y0035488D01*
X0335606Y0035488D01*
X0335606Y0026512D02*
X0338756Y0026512D01*
X0338756Y0024150D01*
X0338756Y0017850D02*
X0338756Y0015488D01*
X0335606Y0015488D01*
D13*
X0280250Y0111000D03*
X0277750Y0111000D03*
X0275250Y0111000D03*
X0275250Y0121000D03*
X0277750Y0121000D03*
X0280250Y0121000D03*
X0280250Y0131000D03*
X0277750Y0131000D03*
X0275250Y0131000D03*
X0275250Y0141000D03*
X0277750Y0141000D03*
X0280250Y0141000D03*
X0280250Y0151000D03*
X0277750Y0151000D03*
X0275250Y0151000D03*
X0275250Y0161000D03*
X0277750Y0161000D03*
X0280250Y0161000D03*
X0280250Y0171000D03*
X0277750Y0171000D03*
X0275250Y0171000D03*
X0275250Y0181000D03*
X0277750Y0181000D03*
X0280250Y0181000D03*
D14*
X0283343Y0035331D02*
X0288657Y0035331D01*
X0283343Y0031787D02*
X0283343Y0030213D01*
X0283343Y0026669D02*
X0288657Y0026669D01*
X0288657Y0020331D02*
X0283343Y0020331D01*
X0283343Y0016787D02*
X0283343Y0015213D01*
X0283343Y0011669D02*
X0288657Y0011669D01*
M02*
