G75*
%MOIN*%
%OFA0B0*%
%FSLAX25Y25*%
%IPPOS*%
%LPD*%
%AMOC8*
5,1,8,0,0,1.08239X$1,22.5*
%
%ADD10C,0.01421*%
%ADD11R,0.04343X0.03950*%
%ADD12R,0.03950X0.05524*%
%ADD13C,0.06619*%
%ADD14C,0.08200*%
%ADD15R,0.03950X0.04343*%
%ADD16R,0.05524X0.03950*%
%ADD17R,0.03556X0.02454*%
%ADD18C,0.13800*%
D10*
X0384205Y0039342D02*
X0384205Y0042658D01*
X0384205Y0039342D02*
X0380889Y0039342D01*
X0380889Y0042658D01*
X0384205Y0042658D01*
X0384205Y0040762D02*
X0380889Y0040762D01*
X0380889Y0042182D02*
X0384205Y0042182D01*
X0391111Y0042658D02*
X0391111Y0039342D01*
X0387795Y0039342D01*
X0387795Y0042658D01*
X0391111Y0042658D01*
X0391111Y0040762D02*
X0387795Y0040762D01*
X0387795Y0042182D02*
X0391111Y0042182D01*
X0391111Y0054342D02*
X0391111Y0057658D01*
X0391111Y0054342D02*
X0387795Y0054342D01*
X0387795Y0057658D01*
X0391111Y0057658D01*
X0391111Y0055762D02*
X0387795Y0055762D01*
X0387795Y0057182D02*
X0391111Y0057182D01*
X0384205Y0057658D02*
X0384205Y0054342D01*
X0380889Y0054342D01*
X0380889Y0057658D01*
X0384205Y0057658D01*
X0384205Y0055762D02*
X0380889Y0055762D01*
X0380889Y0057182D02*
X0384205Y0057182D01*
X0384205Y0069342D02*
X0384205Y0072658D01*
X0384205Y0069342D02*
X0380889Y0069342D01*
X0380889Y0072658D01*
X0384205Y0072658D01*
X0384205Y0070762D02*
X0380889Y0070762D01*
X0380889Y0072182D02*
X0384205Y0072182D01*
X0391111Y0072658D02*
X0391111Y0069342D01*
X0387795Y0069342D01*
X0387795Y0072658D01*
X0391111Y0072658D01*
X0391111Y0070762D02*
X0387795Y0070762D01*
X0387795Y0072182D02*
X0391111Y0072182D01*
X0391111Y0084342D02*
X0391111Y0087658D01*
X0391111Y0084342D02*
X0387795Y0084342D01*
X0387795Y0087658D01*
X0391111Y0087658D01*
X0391111Y0085762D02*
X0387795Y0085762D01*
X0387795Y0087182D02*
X0391111Y0087182D01*
X0384205Y0087658D02*
X0384205Y0084342D01*
X0380889Y0084342D01*
X0380889Y0087658D01*
X0384205Y0087658D01*
X0384205Y0085762D02*
X0380889Y0085762D01*
X0380889Y0087182D02*
X0384205Y0087182D01*
X0384205Y0099342D02*
X0384205Y0102658D01*
X0384205Y0099342D02*
X0380889Y0099342D01*
X0380889Y0102658D01*
X0384205Y0102658D01*
X0384205Y0100762D02*
X0380889Y0100762D01*
X0380889Y0102182D02*
X0384205Y0102182D01*
X0391111Y0102658D02*
X0391111Y0099342D01*
X0387795Y0099342D01*
X0387795Y0102658D01*
X0391111Y0102658D01*
X0391111Y0100762D02*
X0387795Y0100762D01*
X0387795Y0102182D02*
X0391111Y0102182D01*
X0391111Y0114342D02*
X0391111Y0117658D01*
X0391111Y0114342D02*
X0387795Y0114342D01*
X0387795Y0117658D01*
X0391111Y0117658D01*
X0391111Y0115762D02*
X0387795Y0115762D01*
X0387795Y0117182D02*
X0391111Y0117182D01*
X0384205Y0117658D02*
X0384205Y0114342D01*
X0380889Y0114342D01*
X0380889Y0117658D01*
X0384205Y0117658D01*
X0384205Y0115762D02*
X0380889Y0115762D01*
X0380889Y0117182D02*
X0384205Y0117182D01*
X0384205Y0129342D02*
X0384205Y0132658D01*
X0384205Y0129342D02*
X0380889Y0129342D01*
X0380889Y0132658D01*
X0384205Y0132658D01*
X0384205Y0130762D02*
X0380889Y0130762D01*
X0380889Y0132182D02*
X0384205Y0132182D01*
X0391111Y0132658D02*
X0391111Y0129342D01*
X0387795Y0129342D01*
X0387795Y0132658D01*
X0391111Y0132658D01*
X0391111Y0130762D02*
X0387795Y0130762D01*
X0387795Y0132182D02*
X0391111Y0132182D01*
X0391111Y0144342D02*
X0391111Y0147658D01*
X0391111Y0144342D02*
X0387795Y0144342D01*
X0387795Y0147658D01*
X0391111Y0147658D01*
X0391111Y0145762D02*
X0387795Y0145762D01*
X0387795Y0147182D02*
X0391111Y0147182D01*
X0384205Y0147658D02*
X0384205Y0144342D01*
X0380889Y0144342D01*
X0380889Y0147658D01*
X0384205Y0147658D01*
X0384205Y0145762D02*
X0380889Y0145762D01*
X0380889Y0147182D02*
X0384205Y0147182D01*
X0384205Y0159342D02*
X0384205Y0162658D01*
X0384205Y0159342D02*
X0380889Y0159342D01*
X0380889Y0162658D01*
X0384205Y0162658D01*
X0384205Y0160762D02*
X0380889Y0160762D01*
X0380889Y0162182D02*
X0384205Y0162182D01*
X0391111Y0162658D02*
X0391111Y0159342D01*
X0387795Y0159342D01*
X0387795Y0162658D01*
X0391111Y0162658D01*
X0391111Y0160762D02*
X0387795Y0160762D01*
X0387795Y0162182D02*
X0391111Y0162182D01*
X0391111Y0174342D02*
X0391111Y0177658D01*
X0391111Y0174342D02*
X0387795Y0174342D01*
X0387795Y0177658D01*
X0391111Y0177658D01*
X0391111Y0175762D02*
X0387795Y0175762D01*
X0387795Y0177182D02*
X0391111Y0177182D01*
X0384205Y0177658D02*
X0384205Y0174342D01*
X0380889Y0174342D01*
X0380889Y0177658D01*
X0384205Y0177658D01*
X0384205Y0175762D02*
X0380889Y0175762D01*
X0380889Y0177182D02*
X0384205Y0177182D01*
D11*
X0340331Y0181000D03*
X0332063Y0184740D03*
X0332063Y0177260D03*
X0332063Y0164740D03*
X0340331Y0161000D03*
X0332063Y0157260D03*
X0332063Y0144740D03*
X0340331Y0141000D03*
X0332063Y0137260D03*
X0332063Y0124740D03*
X0340331Y0121000D03*
X0332063Y0117260D03*
X0332063Y0104740D03*
X0340331Y0101000D03*
X0332063Y0097260D03*
X0332063Y0084740D03*
X0340331Y0081000D03*
X0332063Y0077260D03*
X0332063Y0064740D03*
X0340331Y0061000D03*
X0332063Y0057260D03*
X0332063Y0044740D03*
X0340331Y0041000D03*
X0332063Y0037260D03*
X0332063Y0024740D03*
X0340331Y0021000D03*
X0332063Y0017260D03*
X0282063Y0057260D03*
X0290331Y0061000D03*
X0282063Y0064740D03*
D12*
X0312457Y0061000D03*
X0319543Y0061000D03*
X0289543Y0046000D03*
X0282457Y0046000D03*
X0312457Y0041000D03*
X0319543Y0041000D03*
X0319543Y0021000D03*
X0312457Y0021000D03*
X0362457Y0041000D03*
X0369543Y0041000D03*
X0369543Y0056000D03*
X0362457Y0056000D03*
X0362457Y0071000D03*
X0369543Y0071000D03*
X0369543Y0086000D03*
X0362457Y0086000D03*
X0362457Y0101000D03*
X0369543Y0101000D03*
X0369543Y0116000D03*
X0362457Y0116000D03*
X0362457Y0131000D03*
X0369543Y0131000D03*
X0369543Y0146000D03*
X0362457Y0146000D03*
X0362457Y0161000D03*
X0369543Y0161000D03*
X0369543Y0176000D03*
X0362457Y0176000D03*
X0319543Y0181000D03*
X0312457Y0181000D03*
X0312457Y0161000D03*
X0319543Y0161000D03*
X0319543Y0141000D03*
X0312457Y0141000D03*
X0312457Y0121000D03*
X0319543Y0121000D03*
X0319543Y0101000D03*
X0312457Y0101000D03*
X0312457Y0081000D03*
X0319543Y0081000D03*
X0234543Y0136000D03*
X0227457Y0136000D03*
X0199543Y0136000D03*
X0192457Y0136000D03*
X0174543Y0136000D03*
X0167457Y0136000D03*
X0144543Y0136000D03*
X0137457Y0136000D03*
X0114543Y0136000D03*
X0107457Y0136000D03*
X0084543Y0136000D03*
X0077457Y0136000D03*
X0054543Y0136000D03*
X0047457Y0136000D03*
X0024543Y0136000D03*
X0017457Y0136000D03*
D13*
X0263091Y0131000D02*
X0268909Y0131000D01*
X0268909Y0121000D02*
X0263091Y0121000D01*
X0263091Y0111000D02*
X0268909Y0111000D01*
X0293091Y0111000D02*
X0298909Y0111000D01*
X0298909Y0121000D02*
X0293091Y0121000D01*
X0293091Y0131000D02*
X0298909Y0131000D01*
X0298909Y0141000D02*
X0293091Y0141000D01*
X0293091Y0151000D02*
X0298909Y0151000D01*
X0298909Y0161000D02*
X0293091Y0161000D01*
X0293091Y0171000D02*
X0298909Y0171000D01*
X0298909Y0181000D02*
X0293091Y0181000D01*
X0268909Y0181000D02*
X0263091Y0181000D01*
X0263091Y0171000D02*
X0268909Y0171000D01*
X0268909Y0161000D02*
X0263091Y0161000D01*
X0263091Y0151000D02*
X0268909Y0151000D01*
X0268909Y0141000D02*
X0263091Y0141000D01*
D14*
X0231000Y0106000D03*
X0231000Y0096000D03*
X0231000Y0086000D03*
X0231000Y0076000D03*
X0231000Y0066000D03*
X0231000Y0056000D03*
X0231000Y0046000D03*
X0201000Y0046000D03*
X0201000Y0056000D03*
X0201000Y0066000D03*
X0201000Y0076000D03*
X0201000Y0086000D03*
X0201000Y0096000D03*
X0201000Y0106000D03*
X0171000Y0106000D03*
X0171000Y0096000D03*
X0171000Y0086000D03*
X0171000Y0076000D03*
X0171000Y0066000D03*
X0171000Y0056000D03*
X0171000Y0046000D03*
X0141000Y0046000D03*
X0141000Y0056000D03*
X0141000Y0066000D03*
X0141000Y0076000D03*
X0141000Y0086000D03*
X0141000Y0096000D03*
X0141000Y0106000D03*
X0111000Y0106000D03*
X0111000Y0096000D03*
X0111000Y0086000D03*
X0111000Y0076000D03*
X0111000Y0066000D03*
X0111000Y0056000D03*
X0111000Y0046000D03*
X0081000Y0046000D03*
X0081000Y0056000D03*
X0081000Y0066000D03*
X0081000Y0076000D03*
X0081000Y0086000D03*
X0081000Y0096000D03*
X0081000Y0106000D03*
X0051000Y0106000D03*
X0051000Y0096000D03*
X0051000Y0086000D03*
X0051000Y0076000D03*
X0051000Y0066000D03*
X0051000Y0056000D03*
X0051000Y0046000D03*
X0021000Y0046000D03*
X0021000Y0056000D03*
X0021000Y0066000D03*
X0021000Y0076000D03*
X0021000Y0086000D03*
X0021000Y0096000D03*
X0021000Y0106000D03*
X0261000Y0066000D03*
X0261000Y0056000D03*
X0261000Y0046000D03*
X0261000Y0036000D03*
X0261000Y0026000D03*
X0261000Y0016000D03*
D15*
X0234740Y0147063D03*
X0227260Y0147063D03*
X0231000Y0155331D03*
X0199740Y0147063D03*
X0192260Y0147063D03*
X0196000Y0155331D03*
X0174740Y0147063D03*
X0167260Y0147063D03*
X0171000Y0155331D03*
X0144740Y0147063D03*
X0137260Y0147063D03*
X0141000Y0155331D03*
X0114740Y0147063D03*
X0107260Y0147063D03*
X0111000Y0155331D03*
X0084740Y0147063D03*
X0077260Y0147063D03*
X0081000Y0155331D03*
X0054740Y0147063D03*
X0047260Y0147063D03*
X0051000Y0155331D03*
X0024740Y0147063D03*
X0017260Y0147063D03*
X0021000Y0155331D03*
D16*
X0261000Y0094543D03*
X0261000Y0087457D03*
X0282000Y0078543D03*
X0282000Y0071457D03*
D17*
X0282260Y0033559D03*
X0282260Y0028441D03*
X0289740Y0028441D03*
X0289740Y0031000D03*
X0289740Y0033559D03*
X0289740Y0018559D03*
X0289740Y0016000D03*
X0289740Y0013441D03*
X0282260Y0013441D03*
X0282260Y0018559D03*
D18*
X0021000Y0021000D03*
X0021000Y0196000D03*
X0386000Y0196000D03*
X0386000Y0021000D03*
M02*
