%
M48
M72
T01C0.0200
T02C0.0382
T03C0.0400
T04C0.1300
%
T01
X4100Y2600
X6100Y7100
X6100Y9600
X3600Y13600
X6600Y14100
X9600Y14100
X12600Y14100
X15600Y14100
X18600Y14100
X21600Y14100
X21600Y11100
X21600Y9600
X27100Y9600
X31300Y9330
X32600Y9100
X32600Y11100
X32600Y13100
X32600Y15100
X32600Y17100
X36100Y19100
X27600Y20100
X20100Y20100
X32600Y7100
X32600Y5100
X30100Y3600
X31300Y3350
X32600Y3100
X30100Y1600
X27600Y2100
X27600Y3100
X36100Y3100
X36100Y2100
T02
X29600Y11100
X29600Y12100
X29600Y13100
X29600Y14100
X29600Y15100
X29600Y16100
X29600Y17100
X29600Y18100
X26600Y18100
X26600Y17100
X26600Y16100
X26600Y15100
X26600Y14100
X26600Y13100
X26600Y12100
X26600Y11100
T03
X23100Y10600
X23100Y9600
X23100Y8600
X23100Y7600
X23100Y6600
X23100Y5600
X23100Y4600
X20100Y4600
X20100Y5600
X20100Y6600
X20100Y7600
X20100Y8600
X20100Y9600
X20100Y10600
X17100Y10600
X17100Y9600
X17100Y8600
X17100Y7600
X17100Y6600
X17100Y5600
X17100Y4600
X14100Y4600
X14100Y5600
X14100Y6600
X14100Y7600
X14100Y8600
X14100Y9600
X14100Y10600
X11100Y10600
X11100Y9600
X11100Y8600
X11100Y7600
X11100Y6600
X11100Y5600
X11100Y4600
X8100Y4600
X8100Y5600
X8100Y6600
X8100Y7600
X8100Y8600
X8100Y9600
X8100Y10600
X5100Y10600
X5100Y9600
X5100Y8600
X5100Y7600
X5100Y6600
X5100Y5600
X5100Y4600
X2100Y4600
X2100Y5600
X2100Y6600
X2100Y7600
X2100Y8600
X2100Y9600
X2100Y10600
X26100Y6600
X26100Y5600
X26100Y4600
X26100Y3600
X26100Y2600
X26100Y1600
T04
X2100Y2100
X2100Y19600
X38600Y19600
X38600Y2100
M30
